<?xml version="1.0" encoding="utf-8"?>
<!-- Generator: Adobe Illustrator 24.1.2, SVG Export Plug-In . SVG Version: 6.00 Build 0)  -->
<svg version="1.1" id="Calque_1" xmlns="http://www.w3.org/2000/svg" xmlns:xlink="http://www.w3.org/1999/xlink" x="0px" y="0px"
	 viewBox="0 0 31 31" style="enable-background:new 0 0 31 31;" xml:space="preserve">
<style type="text/css">
	.st0{fill-rule:evenodd;clip-rule:evenodd;fill:#658791;}
</style>
<g id="Layer_2">
	<g id="Layer_5">
		<path class="st0" d="M15.6,0.42C7.11,0.37,0.18,7.22,0.13,15.72C0.1,22.4,4.38,28.35,10.74,30.42c0.77,0.14,1.05-0.33,1.05-0.74
			s0-1.33,0-2.61C7.51,28,6.61,25,6.61,25c-0.28-0.93-0.89-1.72-1.71-2.24c-1.4-1,0.1-0.94,0.1-0.94c0.98,0.14,1.85,0.73,2.34,1.6
			c0.87,1.58,2.86,2.16,4.44,1.29c0.01-0.01,0.03-0.01,0.04-0.02c0.08-0.78,0.43-1.51,1-2.05c-3.41-0.39-7-1.71-7-7.6
			c-0.02-1.53,0.55-3,1.58-4.13C6.91,9.58,6.95,8.1,7.52,6.8c0,0,1.29-0.38,4.23,1.62c2.52-0.69,5.18-0.69,7.7,0
			c2.94-2,4.23-1.58,4.23-1.58c0.57,1.29,0.62,2.74,0.15,4.07c1.03,1.13,1.6,2.6,1.58,4.13c0,5.9-3.6,7.2-7,7.58
			c0.72,0.76,1.09,1.8,1,2.85c0,2.06,0,3.72,0,4.22s0.28,0.89,1.06,0.74c8.08-2.62,12.51-11.29,9.89-19.37
			C28.29,4.67,22.31,0.37,15.6,0.42z"/>
	</g>
</g>
</svg>
