<?xml version="1.0" encoding="utf-8"?>
<!-- Generator: Adobe Illustrator 24.1.2, SVG Export Plug-In . SVG Version: 6.00 Build 0)  -->
<svg version="1.1" id="Calque_1" xmlns="http://www.w3.org/2000/svg" xmlns:xlink="http://www.w3.org/1999/xlink" x="0px" y="0px"
	 viewBox="0 0 512 458" style="enable-background:new 0 0 512 458;" xml:space="preserve">
<style type="text/css">
	svg { background:#9bc8c3; }
	.st0{opacity:0.2;fill:#FFFFFF;}
	.st1{fill:#FFFFFF;}
	.st2{fill:url(#SVGID_1_);}
	.st3{fill:url(#SVGID_2_);}
	.st4{fill:#7DC798;}
	.st5{fill:none;stroke:#292929;stroke-width:2;stroke-miterlimit:10;}
	.st6{opacity:0.68;fill:#7DC798;}
	.st7{fill:#777D9E;}
	.st8{fill:#9DA4BD;}
	.st9{fill:#FBFDFA;}
	.st10{fill:#F9FBFB;}
	.st11{fill:#FBFCFA;}
	.st12{fill:#FAFCF9;}
	.st13{fill:#F9FBFA;}
	.st14{fill:#FCFCF9;}
	.st15{fill:#797F99;}
	.st16{fill:#F8FBFA;}
	.st17{fill:#FAFCFA;}
	.st18{fill:#F9FBF9;}
	.st19{fill:#A0A5B7;}
	.st20{fill:#F7FAFA;}
	.st21{fill:#F9FAFA;}
	.st22{fill:#F9FBF7;}
	.st23{fill:#5B607A;}
	.st24{fill:#FBFBF9;}
	.st25{fill:#A1A6B6;}
	.st26{fill:#FBFBF8;}
	.st27{fill:#F9FCF9;}
	.st28{fill:#F1F3F8;}
	.st29{fill:#7C8298;}
	.st30{fill:#798097;}
	.st31{fill:#A2A5B4;}
	.st32{fill:#9FA5B4;}
	.st33{fill:#7A8293;}
	.st34{fill:#9FA3B5;}
	.st35{fill:#F8F9F9;}
	.st36{fill:#F6F9F9;}
	.st37{fill:#F3F7F9;}
	.st38{fill:#7E8297;}
	.st39{fill:#FAFCF6;}
	.st40{fill:#F7F8F7;}
	.st41{fill:#7B819A;}
	.st42{fill:#767E94;}
	.st43{fill:#787E92;}
	.st44{fill:#9FA6B5;}
	.st45{fill:#A3A9B6;}
	.st46{fill:#F7F6F7;}
	.st47{fill:#7D8298;}
	.st48{fill:#5C607E;}
	.st49{fill:#5A5F7B;}
	.st50{fill:#7A8190;}
	.st51{fill:#F6F7F9;}
	.st52{fill:#797E92;}
	.st53{fill:#F3F3F9;}
	.st54{fill:#F5F9FB;}
	.st55{fill:#EAEBF4;}
	.st56{fill:#80859D;}
	.st57{fill:#F4F8FB;}
	.st58{fill:#767E8B;}
	.st59{fill:#ECF0F5;}
	.st60{fill:#EAEDF5;}
	.st61{fill:#EDEFF5;}
	.st62{fill:#E2E2F1;}
	.st63{fill:#A1A8B9;}
	.st64{fill:#575B86;}
	.st65{fill:#7C81A5;}
	.st66{fill:#7D82A6;}
	.st67{fill:#7E83A8;}
	.st68{fill:#7B8095;}
	.st69{fill:#7B7F94;}
	.st70{fill:#7E84A6;}
	.st71{fill:#8086A8;}
	.st72{fill:#8388AB;}
	.st73{fill:#727A90;}
	.st74{fill:#7E849A;}
	.st75{fill:#858BAC;}
	.st76{fill:#878DB2;}
	.st77{fill:#9DA4BF;}
	.st78{fill:#A3AAC5;}
	.st79{fill:#989FBA;}
	.st80{fill:#8389AA;}
	.st81{fill:#727799;}
	.st82{fill:#7B81A3;}
	.st83{fill:#575E7F;}
	.st84{fill:#81889C;}
	.st85{fill:#A4ABC6;}
	.st86{fill:#777F98;}
	.st87{fill:#7C8299;}
	.st88{fill:#797D95;}
	.st89{fill:#797D93;}
	.st90{fill:#7B8297;}
	.st91{fill:#797E96;}
	.st92{fill:#7C8094;}
	.st93{fill:#9CA5C2;}
	.st94{fill:#A2A9C4;}
	.st95{fill:#9FA7B4;}
	.st96{fill:#5A5E7F;}
	.st97{fill:#5F617D;}
	.st98{fill:#FEFEFE;}
	.st99{fill:#535B7D;}
	.st100{fill:#5A5E7C;}
	.st101{fill:#575C85;}
	.st102{fill:#5A6078;}
	.st103{fill:#5A5D78;}
	.z-index-above {
		z-index:10;
		position: relative;
	}
	.funds-interaction {
		animation: translate-funds 7s ease-in-out infinite;
		transform: translate(-18px, -7px);
		z-index:1;
		position: relative;
		fill:#FFF;
		opacity:1;
	}
	@keyframes translate-funds {
	  0%, 100%  {
		transform: translate(-18px, -7px);
		fill:#FFF;
	  }
	  10% { fill:#FFF; }
	  11% { fill:#7DC798; }
	  20% {
		transform: translate(314px, 139px);
		fill:#7DC798;
	  }
	  50% {
		transform: translate(314px, 139px);
		fill:#7DC798;
	  }
	  60% {	fill:#7DC798; }
	  61% { fill:#FFF; }
	  70% {	transform: translate(-18px, -7px); }
	}

	.tree-growing-2 {
		animation: tree-growing-2 7s ease-in-out infinite;
		transform: translate(0px, 9px);
	}
	
	@keyframes tree-growing-2 {
		0%,100% { transform: translate(0px, 9px); }
		20% { transform: translate(0px, 9px); }
		50% { transform: translate(0px, 0px); }
		70% { transform: translate(0px, 9px); }
	}
	
	.circle-client {
		transform-origin: 56.04px 133.01px;
		transform: scale(1);
		animation: circle-client 7s ease-in-out infinite;
	}
	
	@keyframes circle-client {
		0%,100% { transform: scale(1); }
		2% { transform: scale(1.1); }
		4% { transform: scale(1); }
		66% { transform: scale(1); }
		68% { transform: scale(1.1); }
		70% { transform: scale(1); }
	}
	
	.circle-orne {
		transform-origin: 256.04px 232.01px;
		transform: scale(1);
		animation: circle-orne 7s ease-in-out infinite;
	}
	
	@keyframes circle-orne {
		0%,100% { transform: scale(1); }
		8% { transform: scale(1); }
		10% { transform: scale(1.1); }
		12% { transform: scale(1); }
		58% { transform: scale(1); }
		60% { transform: scale(1.1); }
		62% { transform: scale(1); }
	}
	
	.circle-tree {
		transform-origin: 455.04px 320.01px;
		transform: scale(1);
		animation: circle-tree 7s ease-in-out infinite;
	}
	
	@keyframes circle-tree {
		0%,100% { transform: scale(1); }
		18% { transform: scale(1); }
		20% { transform: scale(1.1); }
		22% { transform: scale(1); }
		48% { transform: scale(1); }
		50% { transform: scale(1.1); }
		52% { transform: scale(1); }
	}
	
</style>

<circle class="st0" cx="253.54" cy="230.51" r="222"/>
<circle class="st0" cx="255.4" cy="231.57" r="148.65"/>
<circle class="st0" cx="255.54" cy="231.51" r="97"/>
<linearGradient id="SVGID_1_" gradientUnits="userSpaceOnUse" x1="1658.8044" y1="3556.729" x2="1862.3118" y2="3645.4463" gradientTransform="matrix(-0.9171 -0.1859 -0.1859 -0.5829 2646.3879 2701.0142)">
	<stop  offset="0.2957" style="stop-color:#FFFFFF;stop-opacity:0.1"/>
	<stop  offset="1" style="stop-color:#FFFFFF"/>
</linearGradient>
<polygon class="st2" points="267.89,234.79 269.52,231.13 481.42,325.59 479.79,329.24 "/>
<linearGradient id="SVGID_2_" gradientUnits="userSpaceOnUse" x1="339.338" y1="-461.5411" x2="542.8454" y2="-372.8239" gradientTransform="matrix(0.9171 0.1859 0.1859 0.5829 -156.1564 350.3333)">
	<stop  offset="0.2877" style="stop-color:#FFFFFF;stop-opacity:0.1"/>
	<stop  offset="1" style="stop-color:#FFFFFF"/>
</linearGradient>
<polygon class="st3" points="265.12,229.09 263.49,232.74 51.59,138.29 53.22,134.63 "/>
<circle class="st1 funds-interaction" cx="107.04" cy="161.01" r="8.5"/>
<circle class="st1 z-index-above circle-orne" cx="256.04" cy="232.01" r="57.5"/>
<circle class="st1 z-index-above circle-client" cx="56.04" cy="133.01" r="49.5"/>
<circle class="st1 z-index-above circle-tree" cx="455.04" cy="320.01" r="49.5"/>
<g class="z-index-above">
	<path class="st4" d="M284.52,255.15h-50.29c-2.31,0-3.75-2.5-2.6-4.5l25.14-43.55c1.15-2,4.04-2,5.2,0l25.14,43.55
		C288.28,252.65,286.83,255.15,284.52,255.15z"/>
	<path class="st5" d="M272.44,254.13h-47.77c-2.31,0-3.75-2.5-2.6-4.5l23.88-41.37c1.15-2,4.04-2,5.2,0l23.88,41.37
		C276.19,251.63,274.75,254.13,272.44,254.13z"/>
</g>
<g class="z-index-above">
	<path class="st6 tree-growing-2" d="M468.99,328.92c-1.93-3.36-3.85-6.73-5.78-10.09c-2.26-3.93-4.54-7.84-6.8-11.76
		c-0.06-0.11-0.1-0.22-0.16-0.33c-0.24-0.41-0.41-1.07-0.87-1.05c-0.44,0.02-0.62,0.67-0.86,1.08c-4.06,7.05-8.11,14.09-12.17,21.14
		c-0.12,0.21-0.27,0.4-0.41,0.6c-1.7,0-3.41,0-5.39,0c6.31-10.93,12.51-21.66,18.84-32.62c6.28,10.87,12.48,21.6,18.84,32.61
		c-1.51,0-2.82-0.02-4.12,0.01C469.71,328.53,469.16,328.26,468.99,328.92z"/>
	<path class="st4 tree-growing-1" d="M468.99,328.92c1.7,2.9,3.39,5.8,5.23,8.96c-12.61,0.17-24.99,0.08-37.62,0c1.83-3.22,3.58-6.3,5.33-9.38
		c-0.18-0.46,0.15-0.77,0.34-1.11c4.02-7,8.1-13.97,12.1-20.98c0.79-1.39,1.25-1.37,2.06,0.04c3.98,6.98,8.03,13.91,12.05,20.87
		C468.76,327.84,468.97,328.35,468.99,328.92z"/>
</g>
<g class="z-index-above">
	<path class="st7" d="M58.01,111.45c0.03,0.05,0.05,0.1,0.08,0.14c0.23,0.32,0.47,0.64,0.67,0.98c0.07,0.13,0.15,0.24,0.17,0.39
		c-0.08,0.33,0.02,0.56,0.35,0.68c0.13,0.06,0.13,0.21,0.22,0.3c0.11,0.04,0.1,0.15,0.14,0.23l0,0c0.08,0.12,0.2,0.22,0.22,0.37
		c0.01,0.09,0.06,0.17,0.13,0.22c0.21,0.26,0.4,0.53,0.53,0.84c0,0.16,0.01,0.32,0.2,0.39c0.2,0.4,0.53,0.71,0.75,1.1
		c0.22,0.45,0.54,0.84,0.78,1.27c0.08,0.14,0.17,0.26,0.2,0.43c0.02,0.27-0.05,0.58,0.32,0.69c0.03,0.02,0.06,0.04,0.08,0.07
		c0.06,0.21,0.2,0.39,0.29,0.59c-0.01,0.15-0.06,0.31,0.18,0.35c0.08,0.01,0.11,0.16,0.11,0.26c0,0.25,0.16,0.32,0.36,0.37
		c0.12,0.06,0.13,0.19,0.21,0.28c0.06,0.09,0.11,0.19,0.17,0.28c0.17,0.13,0.28,0.29,0.31,0.5c-0.04,0.14-0.11,0.3,0.15,0.29
		c0.14,0.1,0.2,0.25,0.26,0.39l0,0c0.28,0.37,0.53,0.76,0.73,1.19l0,0c0.17,0.13,0.27,0.31,0.33,0.52c0.01,0.05,0.03,0.1,0.05,0.15
		c-0.01,0.33,0.12,0.56,0.35,0.82c0.26,0.28,0.41,0.68,0.6,1.03c0.11,0.21,0.2,0.45,0.46,0.53c0.07,0.02,0.1,0.08,0.12,0.14
		c0.08,0.24,0.23,0.44,0.38,0.64c0.07,0.06,0.12,0.14,0.14,0.23l0,0c0.12,0.16,0.23,0.33,0.3,0.51c0.13,0.24,0.25,0.47,0.38,0.71
		c0.07,0.24,0.13,0.54,0.26,0.71c0.3,0.4,0.51,0.84,0.77,1.24c0.23,0.36,0.54,0.67,0.7,1.08c0.15,0.38,0.31,0.78,0.61,1.08
		c0.08,0.08,0.08,0.17,0.02,0.27c-0.42,0.06-0.75-0.19-1.08-0.36c-0.39-0.2-0.79-0.37-1.2-0.54c-0.71-0.42-1.49-0.7-2.23-1.06
		c-0.08-0.04-0.16-0.04-0.25,0c-0.25-0.01-0.47-0.11-0.65-0.29c-0.17-0.28-0.46-0.34-0.74-0.43c-0.03-0.01-0.06-0.02-0.1-0.03
		c-0.42-0.18-0.81-0.45-1.28-0.5c-0.15-0.02-0.29-0.07-0.38-0.2c-0.02-0.17-0.15-0.06-0.22-0.1c-0.1-0.02-0.17-0.08-0.25-0.14
		c-0.13-0.1-0.29-0.15-0.44-0.21c-0.03-0.01-0.06-0.03-0.09-0.05c-0.35-0.19-0.7-0.38-1.1-0.48c-0.04-0.02-0.07-0.04-0.09-0.07
		c-0.06-0.06-0.09-0.15-0.18-0.17c-0.84-0.23-1.58-0.7-2.39-1.02c-0.67-0.27-1.31-0.63-1.97-0.95c-0.07-0.03-0.12-0.07-0.2-0.09
		c-0.58-0.17-0.6-0.19-0.6-0.78c0-5.53,0-11.07,0-16.6c0-0.19-0.08-0.43,0.15-0.56c0.02-0.01,0.05,0,0.02-0.03
		c-0.3-0.29-0.09-0.69-0.21-1.01c-0.01-0.1-0.02-0.2,0.08-0.27c0.12-0.02,0.18,0.07,0.23,0.15c0.36,0.58,0.76,1.13,1.01,1.77l0,0
		c0.27,0.18,0.36,0.48,0.49,0.75C57.59,110.78,57.9,111.05,58.01,111.45z"/>
	<path class="st8" d="M47.34,121.53c0.11-0.22,0.21-0.44,0.32-0.65c0.12-0.37,0.34-0.67,0.58-0.96l0,0c0.04-0.21,0.17-0.36,0.3-0.52
		l0,0c0.07-0.13,0.12-0.28,0.27-0.36c0.41-0.29,0.68-0.67,0.69-1.2c0.03-0.1,0.07-0.2,0.18-0.24c0.18,0.07,0.05-0.1,0.1-0.13
		c0.76-1.28,1.53-2.56,2.28-3.84c0.18-0.3,0.42-0.57,0.53-0.92c0.21-0.35,0.35-0.73,0.58-1.06c0.07-0.11,0.14-0.23,0.26-0.3
		c0.12-0.04,0.23-0.14,0.25-0.25c0.06-0.29,0.41-0.32,0.49-0.62c0.05-0.19,0.24,0.04,0.35,0.15c0.17,0.18,0.19,0.4,0.16,0.62
		c-0.08,0.57,0.01,1.14,0.01,1.71c0,2.89,0,5.79,0,8.68c0,1.29,0.01,2.57,0,3.86c0,0.33,0.04,0.6,0.4,0.73
		c0.14,0.05,0.24,0.17,0.31,0.3c0.09,0.19-0.02,0.31-0.15,0.41c-0.18,0.18-0.48,0.18-0.6,0.44c-0.3,0.25-0.67,0.35-1.01,0.51
		c-2.13,0.98-4.27,1.93-6.4,2.91c-2.32,1.06-4.64,2.12-6.97,3.16c-0.12,0.05-0.25,0.1-0.36,0.18c-0.25-0.12-0.05-0.24,0.01-0.34
		c0.57-0.95,1.15-1.9,1.72-2.85c0.05-0.08,0.08-0.18,0.12-0.26c0.24-0.63,0.64-1.16,1.03-1.7l0,0c0.02-0.03,0.05-0.04,0.08-0.04
		c0.48-0.31,0.61-0.86,0.87-1.31c0.09-0.16,0.15-0.33,0.23-0.5c0.1-0.32,0.36-0.54,0.45-0.87c0.39-0.73,0.82-1.43,1.27-2.13
		c0.14-0.22,0.19-0.51,0.42-0.67l0,0c0.03-0.15,0.08-0.28,0.22-0.37l0,0c0.03-0.06,0.06-0.12,0.11-0.17
		C46.99,122.62,47.12,122.05,47.34,121.53z"/>
	<path class="st7" d="M40.2,133.91c1.37-0.63,2.75-1.27,4.12-1.9c1.13-0.52,2.26-1.04,3.39-1.55c1.09-0.5,2.18-0.99,3.27-1.48
		c1.22-0.55,2.46-1.08,3.65-1.69c0.2-0.18,0.46-0.26,0.7-0.38c0.12-0.06,0.26-0.08,0.33,0.1c0.05,0.19,0.03,0.39,0.03,0.59
		c0,5,0,9.99,0,14.99c0,0.2-0.01,0.39,0.02,0.59c0.02,0.06,0.02,0.13,0,0.19c-0.18,0.14-0.28-0.05-0.41-0.09
		c-0.44-0.31-0.9-0.58-1.38-0.82c-0.32-0.03-0.52-0.26-0.75-0.44c-0.32-0.23-0.65-0.43-1.01-0.59c-0.7-0.27-1.3-0.73-1.94-1.09
		c-0.19-0.11-0.39-0.21-0.55-0.37c-0.07-0.1-0.18-0.14-0.29-0.16c-0.3-0.14-0.61-0.27-0.84-0.52c-0.6-0.41-1.24-0.76-1.86-1.13
		c-0.12-0.07-0.24-0.16-0.36-0.24c-0.11-0.23-0.35-0.29-0.55-0.39c-0.35-0.19-0.63-0.55-1.09-0.49c-0.63-0.28-1.21-0.67-1.79-1.04
		c-0.11-0.07-0.23-0.13-0.31-0.24c-0.14-0.14-0.31-0.22-0.5-0.29c-0.34-0.09-0.61-0.3-0.87-0.52c-0.15-0.24-0.27-0.52-0.64-0.4
		c-0.15-0.03-0.3-0.05-0.38-0.21c-0.01-0.03,0.04-0.07,0.03-0.08C39.94,134.13,40.06,134.02,40.2,133.91z"/>
	<path class="st7" d="M61.54,151.28c-0.09,0.02-0.16,0.07-0.18,0.16c-0.08,0.26-0.21,0.49-0.36,0.72c-0.23,0.37-0.58,0.66-0.76,1.07
		c-0.03,0.08-0.11,0.13-0.2,0.15c-0.26-0.02-0.31,0.24-0.43,0.37c-0.11,0.11-0.2,0.35-0.22,0.55c-0.01,0.07-0.07,0.11-0.11,0.16
		c-0.05,0.05-0.1,0.1-0.15,0.15c-0.39,0.21-0.68,0.47-0.63,0.97c-0.08,0.23-0.26,0.39-0.41,0.57c-0.17,0.22-0.35,0.44-0.52,0.67
		c-0.35,0.4-0.87,0.65-1.02,1.23c-0.07,0.25-0.29,0.44-0.41,0.69c-0.09,0.19-0.25,0.31-0.44,0.39c-0.04-0.01-0.06-0.04-0.08-0.08
		c-0.05-0.14-0.04-0.28-0.05-0.43c0-0.05,0-0.09,0-0.14c0-3.76,0-7.51,0-11.27c0-0.2-0.01-0.39,0.01-0.59
		c0.08-0.27,0.3-0.35,0.54-0.41l0,0c0.06-0.07,0.13-0.11,0.22-0.12c0.4,0,0.73-0.17,1.03-0.41c0.1-0.08,0.21-0.16,0.31-0.25
		c0.17-0.06,0.35-0.1,0.37-0.33c0.02-0.03,0.04-0.05,0.07-0.07l0,0c0.39-0.38,0.89-0.59,1.37-0.81c0.54,0.03,0.86-0.42,1.3-0.61
		c0.03-0.01,0.05-0.06,0.09-0.07c0.23-0.08,0.37-0.33,0.64-0.33c0.13,0,0.04-0.14,0.08-0.21c0.12-0.26,0.39-0.31,0.62-0.41
		c0.38,0.02,0.62-0.24,0.9-0.42c0.16-0.15,0.37-0.22,0.58-0.3c0.09-0.03,0.15-0.07,0.13-0.17c0-0.04,0.02-0.06,0.06-0.06
		c0.28-0.15,0.57-0.3,0.85-0.45c0.21-0.04,0.4-0.1,0.55-0.26c0.18-0.2,0.49-0.13,0.67-0.33c0.07-0.07,0.14-0.14,0.18-0.22
		c0.41-0.25,0.82-0.49,1.23-0.74c0.25-0.04,0.41-0.24,0.61-0.36c0.05-0.05,0.1-0.09,0.15-0.14c0.04-0.04,0.09-0.07,0.14-0.08
		c0.43-0.03,0.79-0.23,1.1-0.5c0.31-0.28,0.73-0.39,1.05-0.65c0.05-0.04,0.12-0.01,0.18,0.01c0.1,0.1,0.08,0.22,0.06,0.34
		c-0.52,0.75-1.2,1.39-1.57,2.24c-0.07,0.17-0.3,0.18-0.31,0.38c-0.35,0.4-0.56,0.92-0.95,1.29c-0.08,0.08-0.16,0.15-0.19,0.26
		c-0.01,0.15-0.09,0.26-0.19,0.36c-0.18,0.22-0.28,0.49-0.55,0.64c-0.09,0.05,0.02,0.28-0.03,0.43c-0.12,0.24-0.23,0.49-0.48,0.64
		c-0.16,0-0.25,0.07-0.35,0.22c-0.28,0.44-0.6,0.85-0.78,1.36c-0.02,0.05-0.05,0.09-0.09,0.12l0,0c-0.17,0.36-0.33,0.72-0.71,0.92
		c-0.04,0-0.08-0.01-0.11,0.01c-0.41,0.35-0.8,0.72-0.99,1.24c-0.04,0.11-0.03,0.22,0,0.33c0,0.04-0.01,0.06-0.04,0.08
		c-0.07,0.08-0.14,0.15-0.21,0.23c-0.22,0.21-0.55,0.34-0.52,0.73c-0.22,0.34-0.45,0.67-0.67,1.01
		C61.82,150.95,61.7,151.13,61.54,151.28z"/>
	<path class="st8" d="M55.67,159.1c0.02,0,0.04,0,0.07,0.01c0.04,0.07,0.02,0.16,0.06,0.23c-0.02,0.12-0.04,0.22-0.19,0.13l0,0.01
		c-0.33-0.35-0.65-0.71-0.82-1.17c-0.34-0.54-0.71-1.05-1.1-1.55c-0.24-0.31-0.51-0.59-0.67-0.95l0,0
		c-0.05-0.05-0.12-0.08-0.13-0.16c-0.45-0.76-1-1.44-1.5-2.16c-0.79-1.13-1.6-2.24-2.4-3.36c-0.56-0.64-1.08-1.32-1.48-2.07
		c0-0.02-0.01-0.04-0.02-0.06c-0.08-0.07-0.15-0.13-0.2-0.23l0,0c-0.1-0.14-0.28-0.23-0.26-0.44c0.07-0.29-0.19-0.42-0.3-0.63
		c-0.12-0.23-0.33-0.4-0.49-0.61c-0.46-0.62-0.75-1.36-1.39-1.84c-0.34-0.39-0.6-0.83-0.88-1.26c-0.06-0.42-0.36-0.69-0.59-1
		c-0.05-0.07-0.11,0.02-0.16-0.02c-0.14-0.22-0.29-0.44-0.43-0.66c-0.06-0.2-0.11-0.4-0.23-0.57c-0.24-0.35-0.21-0.43,0.21-0.5
		c0.05-0.02-0.01,0.02,0.04-0.01c0.18-0.09,0.45-0.1,0.43-0.37c-0.02-0.28-0.3-0.29-0.51-0.32c-0.18-0.03-0.27-0.11-0.34-0.27
		c-0.13-0.27-0.26-0.29-0.44-0.1c-0.08,0.09-0.18,0.16-0.27,0.05c-0.14-0.17-0.44-0.09-0.52-0.36c-0.01-0.05,0.16-0.07,0-0.1
		c-0.15-0.03-0.31-0.41-0.22-0.53c0.07-0.11,0.18-0.07,0.26-0.03c0.23,0.12,0.49,0.14,0.74,0.16c0.38,0.12,0.7,0.33,1,0.59
		c0.82,0.58,1.72,1.03,2.57,1.55c0.17,0.1,0.32,0.24,0.51,0.27c0.09,0.06,0.23,0.06,0.27,0.19c0.37,0.4,0.76,0.77,1.29,0.94
		c0.25,0.14,0.55,0.2,0.67,0.51c0.06,0.15,0.24-0.01,0.36,0.06c0.27,0.16,0.5,0.45,0.77,0.53c0.44,0.12,0.74,0.45,1.16,0.58
		c0.16,0.05,0.27,0.25,0.48,0.16c0.04,0,0.07,0.01,0.09,0.04c0.71,0.43,1.43,0.86,2.14,1.29c0.08,0.05,0.16,0.11,0.23,0.17
		c-0.01,0.05-0.04,0.13-0.01,0.13c0.32,0.1,0.53,0.37,0.81,0.54c0.24,0.15,0.48,0.23,0.76,0.18c0.24,0.09,0.55,0.11,0.57,0.47
		c0.04,0.16,0.03,0.32,0.03,0.48c0,3.71,0,7.43,0,11.14c0,0.13-0.04,0.27,0.04,0.4c0,0.02,0,0.05,0,0.07
		c-0.07,0.05-0.13,0.04-0.18-0.04c-0.06-0.11-0.04-0.24-0.04-0.36c0-3.58,0-7.17,0-10.75c0-0.09-0.04-0.2,0.04-0.27
		c-0.05,0.04-0.04,0.09-0.04,0.13c0,3.73-0.01,7.46,0.01,11.18c0.01,0.04,0.03,0.07,0.06,0.1C55.67,158.76,55.59,158.96,55.67,159.1
		z"/>
	<path class="st9" d="M63.87,141.65c-0.01,0.02-0.02,0.04-0.03,0.06c-0.09,0.19-0.3,0.22-0.46,0.32c-0.1,0.06-0.22,0.09-0.27,0.22
		c-0.31,0.1-0.56,0.36-0.89,0.42c-0.21,0.09-0.42,0.19-0.6,0.35c-0.47,0.35-0.94,0.71-1.53,0.85c0.02-0.13,0.13-0.2,0.22-0.28
		c0.05-0.05,0.16-0.09,0.07-0.16c-0.13-0.11-0.05-0.12,0.02-0.22c0.24-0.37,0.56-0.57,0.99-0.52c0.19,0.02,0.24,0,0.23-0.19
		c0-0.09,0.02-0.19,0.05-0.29c0.02-0.07,0.07-0.14,0.16-0.12c0.13,0.04,0.02,0.14,0.04,0.24c0.12-0.06,0.24-0.13,0.23-0.26
		c-0.01-0.12-0.16-0.14-0.26-0.15c-0.16,0-0.22-0.07-0.21-0.23c0.01-0.1,0.01-0.21,0.14-0.21c0.12-0.01,0.22-0.02,0.3,0.13
		c0.14,0.26,0.61,0.21,0.79-0.03c0.17-0.24,0.43-0.09,0.66-0.07C63.64,141.54,63.76,141.61,63.87,141.65z"/>
	<path class="st10" d="M48.53,139.27c0.32,0.09,0.56,0.34,0.86,0.46c0.1,0.05,0.24,0.04,0.3,0.18c0.82,0.5,1.64,1,2.46,1.5
		c-0.39,0.11-0.72,0.03-1.08-0.21c-0.28-0.19-0.61-0.41-1.01-0.32c-0.06,0.01-0.13-0.05-0.29-0.12c0.19,0,0.27,0,0.36,0
		c-0.06-0.19-0.06-0.19-0.23-0.22c-0.02,0-0.04-0.01-0.05-0.02c-0.19-0.25-0.19-0.25-0.57-0.22c-0.2,0.01-0.59-0.35-0.59-0.56
		c0-0.1-0.22-0.21-0.35-0.18c-0.08,0.02-0.14,0.11-0.25,0.04C48.15,139.36,48.46,139.45,48.53,139.27z"/>
	<path class="st9" d="M65.16,146.2c0.01-0.04,0.01-0.08,0.02-0.12c0.27-0.47,0.58-0.92,0.9-1.36c0.08-0.11,0.15-0.22,0.28-0.28
		c0.18-0.17,0.3-0.39,0.43-0.6c0.1-0.12,0.05-0.37,0.3-0.35c0,0.08-0.02,0.17,0.07,0.23c0.02-0.01,0.05-0.02,0.05-0.03
		c-0.03-0.16,0.05-0.26,0.17-0.32c0.06-0.03,0.09,0.07,0.11,0.12c0.04,0.13,0.09,0.27-0.07,0.35c-0.11,0.05-0.15,0.15-0.18,0.26
		c-0.1,0.45-0.35,0.72-0.8,0.76c-0.17,0.02-0.11,0.06-0.11,0.16c-0.02,0.3,0.08,0.58-0.15,0.89c-0.21,0.28-0.41,0.3-0.69,0.29
		C65.38,146.2,65.27,146.2,65.16,146.2z"/>
	<path class="st11" d="M59.29,154.46c0.02-0.05,0.04-0.1,0.06-0.15c0.18-0.35,0.38-0.68,0.68-0.95c0.4-0.51,0.79-1.03,1.12-1.59
		c0.07-0.11,0.15-0.21,0.23-0.32c0.08,0.2,0.16,0.39,0.25,0.6c-0.15,0-0.12-0.19-0.26-0.19c0.02,0.24-0.05,0.47,0.09,0.7
		c0.08,0.13,0.04,0.3-0.15,0.26c-0.14-0.03-0.28,0.27-0.41-0.01c-0.02-0.03-0.02,0.19-0.13,0.21c-0.15-0.08,0.04-0.21-0.06-0.29
		c-0.37,0.17-0.01,0.34,0.01,0.51c-0.11,0.04-0.22,0.06-0.31,0.11c-0.14,0.07-0.22,0.17-0.06,0.3c0.19,0.15,0.06,0.26-0.01,0.43
		C60.12,154.66,59.64,154.35,59.29,154.46z"/>
	<path class="st12" d="M69.52,135.31c-0.05,0.29-0.37,0.28-0.53,0.43c-0.05,0.05-0.14,0.05-0.2,0.09c-0.07,0.05-0.02,0.11,0.02,0.16
		c0.02,0.03,0.07,0.04,0.08-0.01c0.02-0.09,0.15-0.14,0.14-0.12c-0.07,0.23,0.34,0.11,0.23,0.33c-0.06,0.11-0.08,0.27-0.25,0.28
		c-0.15,0.01-0.29,0-0.44,0c-0.14,0-0.26-0.01-0.31,0.18c-0.05,0.2-0.25,0.09-0.38,0.12c-0.15,0.03-0.27-0.07-0.42-0.11
		c0.09,0.33,0.02,0.39-0.52,0.48c-0.02-0.02-0.03-0.04-0.03-0.07c0-0.06-0.05-0.08-0.09-0.11c-0.03-0.02-0.04-0.04-0.05-0.07
		c0.01-0.07,0.06-0.11,0.11-0.15c0.03-0.02,0.05-0.04,0.08-0.06c0.6-0.37,1.23-0.69,1.82-1.1c0.03-0.02,0.06-0.04,0.09-0.05
		C69.09,135.47,69.26,135.26,69.52,135.31z"/>
	<path class="st13" d="M62.38,118.8c-0.26-0.6-0.69-1.09-0.96-1.68c0.05-0.04,0.1-0.05,0.15,0c0.08,0.13,0.04,0.38,0.34,0.26
		c0.13-0.05-0.07,0.19,0.16,0.22c0.06,0-0.04-0.25,0.11-0.21c0.11,0.03,0.26,0.18,0.18,0.27c-0.1,0.12,0.4,0.46-0.14,0.39
		c-0.06-0.01-0.04,0.08-0.01,0.11c0.04,0.06,0.1,0.1,0.15,0.16c0.17,0.25,0.31,0.36,0.35-0.07c0.17,0.07,0.14,0.21,0.1,0.28
		c-0.17,0.38-0.09,0.64,0.27,0.88c0.09,0.06,0.37,0.26,0.29,0.53c-0.01,0.02,0.01,0.05,0.02,0.06c0.4,0.31,0.4,0.31,0.17,0.65
		c-0.24-0.08-0.28-0.32-0.4-0.5c-0.15-0.18-0.26-0.39-0.33-0.62l0,0C62.6,119.34,62.46,119.08,62.38,118.8z"/>
	<path class="st14" d="M59.48,144.29c-0.46,0.25-0.91,0.51-1.37,0.76c0-0.3,0-0.61-0.01-0.91c-0.01-0.2,0.05-0.29,0.27-0.29
		c0.33,0.01,0.66,0.02,0.99,0c0.2-0.01,0.28,0.11,0.38,0.23C59.75,144.27,59.58,144.23,59.48,144.29z"/>
	<path class="st15" d="M71.06,133.69c-0.01-0.07-0.01-0.16-0.05-0.21c-0.33-0.37-0.5-0.75-0.71-1.29c-0.13-0.32-0.36-0.6-0.64-0.83
		c-0.07-0.05-0.1-0.11-0.11-0.17c-0.1-0.38-0.33-0.67-0.56-0.97c-0.19-0.25-0.31-0.57-0.28-0.91c0.04,0.04,0.08,0.07,0.12,0.11
		c0.23,0.2,0.38,0.45,0.45,0.74c0.37,0.68,0.76,1.33,1.19,1.97c0.2,0.21,0.39,0.44,0.44,0.74c0.08,0.22,0.22,0.41,0.36,0.6
		c0.15,0.14,0.3,0.27,0.25,0.51c-0.04,0.04-0.09,0.05-0.15,0.04C71.25,133.93,71.11,133.85,71.06,133.69z"/>
	<path class="st16" d="M64.45,147.12c0.24-0.31,0.48-0.61,0.72-0.92c-0.05,0.33,0.03,0.66-0.06,0.99c-0.1,0.36-0.44,0.7-0.81,0.73
		c-0.15,0.01-0.25,0.08-0.37,0.13c-0.03-0.02-0.04-0.06-0.05-0.09C63.97,147.62,64.14,147.32,64.45,147.12z"/>
	<path class="st17" d="M56.34,146.14c-0.07,0.03-0.15,0.05-0.22,0.08c0.13-0.11,0.1-0.33,0.27-0.42c0.1-0.06-0.01-0.12-0.05-0.17
		c-0.2-0.24-0.07-0.21,0.15-0.33c0.5-0.28,1-0.23,1.52-0.25c0.04,0,0.07,0,0.11-0.01c0,0.02-0.01,0.05-0.01,0.07
		c-0.14,0.22-0.39,0.27-0.59,0.4C57.13,145.73,56.79,146.05,56.34,146.14z"/>
	<path class="st17" d="M55.61,146.5c-0.18-0.16-0.39-0.26-0.6-0.36c-0.23-0.04-0.43-0.11-0.52-0.35c0.03-0.19-0.06-0.44,0.26-0.46
		c0.32-0.02,0.46,0.14,0.39,0.45c-0.04,0.19,0.06,0.13,0.18,0.15c0.26,0.04,0.47-0.19,0.72-0.09c0.14,0.1-0.06,0.28,0.08,0.38
		c-0.15,0.1-0.3,0.19-0.45,0.29C55.65,146.54,55.63,146.53,55.61,146.5z"/>
	<path class="st18" d="M42.56,135.73c0.59,0.34,1.18,0.68,1.76,1.02c0.11,0.07,0.23,0.12,0.35,0.18c0.1,0.05,0.26,0.03,0.25,0.21
		c-0.09,0.01-0.16,0.04-0.22,0.12c-0.07,0.1-0.18,0.06-0.23,0c-0.04-0.06-0.01-0.19-0.14-0.16c-0.15,0.03,0.03,0.18-0.09,0.25
		c-0.14-0.07-0.3-0.13-0.29-0.35c0.01-0.23-0.08-0.31-0.32-0.23c-0.12,0.04-0.26,0.03-0.37-0.02c-0.01-0.17,0.21-0.05,0.18-0.19
		c-0.02-0.1-0.13-0.16-0.22-0.17c-0.28-0.03-0.48-0.11-0.5-0.44C42.73,135.86,42.57,135.85,42.56,135.73z"/>
	<path class="st19" d="M44.84,144.23c0.34-0.02,0.41,0.3,0.58,0.48c0.39,0.4,0.53,0.98,0.91,1.37c0.28,0.29,0.46,0.64,0.73,0.93
		c0.16,0.17,0.1,0.22-0.02,0.31c-0.21,0.02-0.19-0.2-0.28-0.3l0,0c-0.07-0.06-0.09-0.16-0.14-0.23c-0.53-0.78-1.05-1.58-1.65-2.31
		C44.9,144.41,44.84,144.33,44.84,144.23z"/>
	<path class="st20" d="M47.5,148.04c0.53,0.66,1.01,1.36,1.48,2.07c-0.06,0.01-0.12,0.02-0.18,0.03c-0.02-0.41-0.32-0.4-0.61-0.41
		c-0.09,0-0.11-0.1-0.1-0.17c0.06-0.24-0.02-0.34-0.25-0.46c-0.28-0.14-0.49-0.4-0.29-0.78C47.58,148.25,47.52,148.13,47.5,148.04z"
		/>
	<path class="st10" d="M46.1,123.46c-0.53,0.96-1.07,1.9-1.7,2.8c-0.03-0.14,0.05-0.26,0.15-0.37c-0.16-0.06-0.2,0.17-0.35,0.09
		c0.04-0.3,0.35-0.41,0.52-0.56c0.27-0.25,0.49-0.47,0.45-0.84c-0.02-0.18,0.1-0.23,0.19-0.26c0.18-0.06,0.26-0.21,0.34-0.35
		c0.07-0.12,0.08-0.25-0.09-0.33c-0.11-0.05-0.21-0.14-0.16-0.29c0.02-0.06,0.07-0.11,0.14-0.11c0.2,0,0.1,0.19,0.17,0.27
		c0.02,0.03,0.04,0.06,0.06,0.1C45.9,123.54,45.91,123.32,46.1,123.46z"/>
	<path class="st21" d="M66.94,137.08c0,0.02,0,0.05,0,0.07c-0.05,0.05-0.09,0.12-0.16,0.15c-0.18,0.07-0.31,0.09-0.32,0.39
		c-0.01,0.35-0.41,0.24-0.65,0.25c-0.16,0.01-0.33-0.08-0.5-0.12c-0.01-0.02-0.01-0.03-0.02-0.05c0.42-0.41,0.9-0.72,1.48-0.85
		l0.02,0.02C66.84,136.99,66.99,136.94,66.94,137.08z"/>
	<path class="st15" d="M68.71,140.9c0.01-0.08,0.01-0.22,0.04-0.24c0.3-0.1,0.32-0.39,0.44-0.61c0.11-0.2,0.27-0.37,0.38-0.56
		c0.21-0.38,0.59-0.62,0.77-1.02c0.05-0.1,0.14-0.2,0.27-0.22c0.06,0.01,0.09,0.05,0.1,0.11c-0.12,0.41-0.42,0.7-0.7,0.99
		c-0.21,0.25-0.43,0.51-0.58,0.81c-0.06,0.11-0.09,0.24-0.21,0.3c-0.1,0.11-0.2,0.23-0.3,0.34
		C68.82,140.76,68.82,140.96,68.71,140.9z"/>
	<path class="st22" d="M64.88,122.86c-0.1-0.13-0.19-0.26-0.29-0.38c-0.11-0.06-0.19-0.14-0.16-0.28c-0.09-0.17-0.18-0.35-0.27-0.52
		c0.15-0.26,0.38-0.3,0.63-0.19c0.2,0.08,0.37,0.63,0.29,0.86c-0.1-0.02-0.04-0.25-0.14-0.16c-0.08,0.06-0.3,0.23-0.15,0.34
		C64.95,122.64,64.85,122.75,64.88,122.86z"/>
	<path class="st13" d="M61.56,117.11c-0.05,0-0.1,0-0.15,0c-0.24-0.37-0.49-0.74-0.73-1.1c-0.05-0.08-0.14-0.15-0.11-0.26
		c0.01-0.01,0.02-0.02,0.03-0.04c0.06,0.05,0.12,0.11,0.19,0.16c0.04-0.09,0.07-0.18,0.14-0.25c0.08-0.09,0.2-0.06,0.31-0.04
		c0.07,0.01,0.09,0.07,0.09,0.14c-0.01,0.12-0.12,0.25-0.19,0.24c-0.26-0.05-0.19,0.06-0.11,0.19c0.02,0.03,0.04,0.07,0.03,0.09
		c-0.05,0.17,0.07,0.36,0.16,0.36c0.18,0,0.25-0.19,0.28-0.37C61.73,116.83,61.73,116.83,61.56,117.11z"/>
	<path class="st18" d="M68.78,138.33c-0.02,0.08-0.03,0.16-0.05,0.24c0.31-0.14,0.38-0.25,0.33-0.56c0.27,0.26,0.56-0.15,0.82,0.09
		c-0.17,0.3-0.49,0.39-0.75,0.57c-0.19,0.12-0.37,0.33-0.65,0.25c0-0.08-0.04-0.16-0.12-0.16c-0.21,0-0.23-0.17-0.21-0.28
		c0.04-0.16,0.19-0.25,0.37-0.22C68.62,138.27,68.7,138.3,68.78,138.33z"/>
	<path class="st23" d="M59.42,141.27c-0.47,0.26-0.93,0.51-1.4,0.77c-0.02-0.03-0.03-0.06-0.02-0.1c0.02-0.07,0.06-0.12,0.11-0.17
		c0.44-0.29,0.83-0.64,1.32-0.88c0.34-0.16,0.68-0.35,1-0.56c0.16-0.1,0.3-0.14,0.47-0.04c0.05,0.09-0.02,0.13-0.09,0.16
		c-0.19,0.06-0.36,0.16-0.5,0.29C60,140.91,59.77,141.19,59.42,141.27z"/>
	<path class="st24" d="M48.8,119.1c-0.09,0.1-0.18,0.21-0.27,0.31c0.03-0.28,0.32-0.52,0.15-0.84c-0.02-0.03,0.02-0.06,0.07-0.05
		c0.34,0.09,0.35-0.23,0.48-0.39c0.08-0.11,0.11-0.28-0.1-0.35c-0.11-0.04-0.15-0.12-0.16-0.22c-0.02-0.11-0.18-0.22-0.03-0.32
		c0.12-0.08,0.3-0.08,0.42,0c0.13,0.09,0.03,0.22-0.01,0.33c-0.02,0.04-0.03,0.09-0.02,0.15c0.12-0.11,0.25-0.18,0.39-0.22
		c0.03,0.05,0.05,0.1-0.03,0.13c-0.04,0.07-0.09,0.14-0.13,0.21C49.4,118.31,49.12,118.71,48.8,119.1z"/>
	<path class="st21" d="M60.81,140.46c0.04-0.04,0.08-0.09,0.11-0.13c0.05-0.12,0.18-0.16,0.27-0.23c0.54-0.28,1.03-0.68,1.61-0.9
		c0.15-0.01,0.29-0.17,0.46-0.06c0,0.35-0.35,0.29-0.52,0.44c-0.24,0.08-0.49,0.1-0.63,0.39c-0.05,0.1-0.25,0.15-0.39,0.18
		c-0.35,0.07-0.69,0.13-0.68,0.6c0,0.06-0.01,0.14-0.09,0.13c-0.12-0.02-0.07-0.08-0.03-0.15
		C61.01,140.59,60.98,140.48,60.81,140.46z"/>
	<path class="st25" d="M51.03,143.79c-0.15,0.06-0.25,0.01-0.4-0.05c-0.45-0.16-0.77-0.53-1.26-0.64c-0.29-0.06-0.51-0.38-0.77-0.58
		c-0.04-0.08,0.01-0.13,0.08-0.17c0.21-0.03,0.3,0.15,0.44,0.25c0.04,0.03,0.09,0.05,0.13,0.08c0.13,0.07,0.29,0.08,0.38,0.22l0,0
		c0.07,0.05,0.17,0.07,0.23,0.14c0.1,0.11,0.24,0.16,0.37,0.22C50.53,143.37,50.79,143.57,51.03,143.79z"/>
	<path class="st26" d="M70.02,139.35c0.23-0.34,0.45-0.68,0.68-1.02c0.04-0.22,0.13-0.39,0.36-0.45c-0.05,0.21-0.01,0.45-0.28,0.57
		c-0.14,0.07,0,0.19,0.04,0.28c0.13,0.26,0.14,0.49-0.11,0.68c-0.11,0.09-0.22,0.12-0.28-0.06c-0.12-0.32-0.22-0.13-0.33,0l0,0
		C70.08,139.36,70.05,139.36,70.02,139.35z"/>
	<path class="st27" d="M69.29,130.17c-0.17-0.23-0.34-0.47-0.45-0.74c0.2-0.29,0.46-0.38,0.65-0.22c0.17,0.14,0.14,0.44-0.08,0.7
		c0.23,0.01,0.28,0.15,0.27,0.34c-0.13,0.01-0.13-0.12-0.2-0.17C69.35,129.99,69.31,130.04,69.29,130.17z"/>
	<path class="st28" d="M55.3,143.26c0.12,0.05,0.25,0.09,0.37,0.14c0.08-0.17,0.24-0.23,0.4-0.3c0.26-0.11,0.47-0.29,0.71-0.44
		c0.13-0.05,0.24-0.12,0.35-0.19c0.3-0.12,0.53-0.35,0.81-0.49c0.03-0.01,0.07,0,0.09,0.02c0,0,0,0.04,0,0.04
		c0.08,0.53,0.07,0.54-0.42,0.53c-0.16,0-0.32,0.05-0.41,0.13c-0.34,0.3-0.8,0.38-1.14,0.65C55.76,143.58,55.52,143.53,55.3,143.26z
		"/>
	<path class="st15" d="M68.49,138.92c0.49-0.23,0.94-0.52,1.4-0.81c0.27-0.15,0.54-0.29,0.81-0.44c0.16,0.14,0.13,0.24-0.08,0.29
		c-0.45,0.13-0.81,0.41-1.19,0.68c-0.36,0.25-0.7,0.54-1.19,0.49C68.23,138.95,68.4,138.98,68.49,138.92L68.49,138.92z"/>
	<path class="st24" d="M48.23,119.91c-0.16,0.34-0.33,0.68-0.58,0.96c-0.04-0.03-0.12-0.07-0.11-0.08c0.12-0.28-0.12-0.53-0.05-0.8
		c0.03-0.11,0-0.23,0.13-0.28c0.14-0.05,0.23,0.08,0.26,0.15C47.98,120.13,48.11,119.99,48.23,119.91z"/>
	<path class="st29" d="M59.48,144.29c0.09-0.07,0.17-0.14,0.26-0.21c0.14-0.03,0.26-0.1,0.36-0.2c0.51-0.28,1.02-0.57,1.53-0.85
		c0.1,0.21,0,0.23-0.19,0.32c-0.45,0.21-0.86,0.5-1.27,0.78C59.94,144.27,59.73,144.31,59.48,144.29z"/>
	<path class="st30" d="M66.87,126.62c-0.29-0.39-0.4-0.9-0.8-1.22c-0.24-0.19-0.15-0.46-0.15-0.71c0.3,0.14,0.41,0.42,0.49,0.71
		c0.02,0.11,0.06,0.21,0.15,0.28c0.19,0.09,0.23,0.28,0.3,0.45c0.02,0.07-0.01,0.16,0.09,0.19c0.07,0.03,0.1,0.08,0.09,0.15
		C67,126.54,66.92,126.57,66.87,126.62z"/>
	<path class="st31" d="M43.96,127.13c-0.04,0.33-0.16,0.63-0.33,0.91c-0.14,0.24-0.2,0.51-0.41,0.72c-0.12,0.12-0.2,0.23-0.38,0.2
		c-0.06-0.17,0.05-0.26,0.16-0.35C43.32,128.11,43.64,127.62,43.96,127.13z"/>
	<path class="st32" d="M54.49,145.78c0.17,0.12,0.35,0.23,0.52,0.35c-0.17,0.14-0.34,0.08-0.51,0c-0.24-0.12-0.47-0.26-0.66-0.44
		c-0.15-0.14-0.28-0.32-0.55-0.15c0.02-0.19,0.12-0.24,0.19-0.31C53.77,145.5,54.15,145.6,54.49,145.78z"/>
	<path class="st18" d="M65.61,124.05c-0.29-0.37-0.52-0.77-0.73-1.19c0.19-0.24,0.43-0.25,0.73-0.18c-0.16,0.17-0.5,0.03-0.49,0.31
		c0.01,0.24,0.16,0.44,0.34,0.6v0c0.07,0.08,0.15,0.1,0.2,0c0.05-0.08,0.07-0.26,0.2-0.15c0.08,0.08,0.11,0.28-0.07,0.36
		C65.69,123.86,65.62,123.92,65.61,124.05z"/>
	<path class="st33" d="M68.71,140.9c0.1,0.03,0.05-0.29,0.22-0.1c-0.2,0.3-0.39,0.61-0.59,0.91c-0.06,0.11-0.06,0.26-0.22,0.29l0,0
		c-0.11,0.17-0.14,0.39-0.36,0.46c-0.09,0-0.17-0.04-0.23-0.1C68.01,141.96,68.24,141.34,68.71,140.9z"/>
	<path class="st16" d="M46.76,147.02c0.16,0.04,0.14,0.24,0.28,0.3c0.07,0.15,0.21,0.26,0.24,0.43c-0.4,0.19-0.66,0.12-0.73-0.36
		c-0.01-0.05-0.12-0.08-0.2-0.13C46.47,147.12,46.77,147.33,46.76,147.02z"/>
	<path class="st34" d="M47.34,121.53c0.11,0.02,0.2,0.07,0.12,0.19c-0.15,0.21-0.41,0.35-0.32,0.69c0.01,0.04-0.2,0.34-0.37,0.38
		c-0.15,0.04-0.17,0.2-0.32,0.21c-0.08-0.27,0.17-0.41,0.24-0.62c0.01-0.03,0.03-0.06,0.05-0.08c0.06-0.1,0.14-0.18,0.23-0.25
		C47.1,121.88,47.16,121.67,47.34,121.53z"/>
	<path class="st35" d="M63.26,139.14c-0.17,0-0.29,0.16-0.47,0.14c-0.01-0.08,0.03-0.13,0.09-0.18c0.29-0.14,0.52-0.37,0.8-0.52
		c0.14-0.04,0.28-0.13,0.43-0.12c0.01,0.01,0.03,0.02,0.04,0.03c0.15,0.22-0.13,0.3-0.16,0.47c-0.05,0.33-0.24,0.11-0.37,0.07
		C63.47,138.98,63.38,139.1,63.26,139.14z"/>
	<path class="st36" d="M59.42,141.27c0.27-0.22,0.57-0.38,0.88-0.52c-0.02,0.23-0.31,0.16-0.38,0.35c0.13,0.06,0.19-0.08,0.34-0.12
		c-0.17,0.25,0.06,0.31,0.21,0.48C60.07,141.51,59.73,141.48,59.42,141.27z"/>
	<path class="st37" d="M46.23,140.98c-0.07-0.07-0.15-0.14-0.22-0.22c0.35,0.12,0.73,0.15,1.01,0.48c0.19,0.22,0.52,0.32,0.79,0.48
		c0.07,0.04,0.21,0.05,0.13,0.2c-0.04,0.05-0.09,0.06-0.15,0.05c-0.5-0.29-0.99-0.6-1.49-0.89
		C46.25,141.07,46.22,141.04,46.23,140.98z"/>
	<path class="st10" d="M46.97,122.05c-0.05,0.12-0.09,0.23-0.21,0.3c-0.02-0.01-0.03-0.03-0.05-0.04c0.01,0.02,0.03,0.03,0.05,0.04
		c-0.04,0.25-0.27,0.41-0.32,0.66c-0.04,0.03-0.08,0.06-0.12,0.09c-0.02-0.07-0.04-0.14-0.13-0.15c-0.09-0.01-0.16-0.04-0.16-0.15
		c0-0.11,0.08-0.13,0.16-0.15c0.16-0.03,0.19-0.18,0.24-0.3C46.54,122.08,46.71,122,46.97,122.05z"/>
	<path class="st38" d="M44.93,137.14c-0.08-0.07-0.17-0.14-0.25-0.21c0.34,0.01,0.63,0.06,0.88,0.35c0.08,0.1,0.3,0.24,0.5,0.28
		c0.17,0.03,0.26,0.15,0.25,0.33C45.85,137.64,45.39,137.39,44.93,137.14z"/>
	<path class="st39" d="M49.11,142.6c-0.15-0.07-0.3-0.14-0.44-0.21c-0.11,0.01-0.16-0.04-0.16-0.15c0.13-0.05,0.16-0.16,0.17-0.29
		c0-0.13,0.09-0.16,0.2-0.15c0.11,0,0.28,0.02,0.22,0.14c-0.05,0.11,0.35,0.32-0.07,0.32C49.06,142.37,49.08,142.49,49.11,142.6z"/>
	<path class="st24" d="M48.53,119.4c-0.04,0.21-0.17,0.36-0.3,0.52c-0.03-0.13-0.07-0.25-0.12-0.43c-0.02,0.13-0.04,0.21-0.06,0.33
		c-0.16-0.24-0.18-0.47-0.06-0.66c0.07-0.11,0.26-0.09,0.37-0.02c0.21,0.12-0.08,0.23-0.03,0.37
		C48.41,119.47,48.47,119.43,48.53,119.4z"/>
	<path class="st40" d="M67.01,126.47c-0.02-0.05-0.05-0.1-0.07-0.16c0.14-0.21,0.35-0.06,0.55-0.13c-0.17,0.37,0.04,0.7,0.03,1.04
		c-0.04-0.04-0.09-0.07-0.13-0.11C67.16,126.96,67.06,126.73,67.01,126.47z"/>
	<path class="st18" d="M65.91,124.55c-0.14-0.15-0.24-0.32-0.3-0.51c0.42-0.14,0.75,0.13,0.72,0.58c-0.12,0.02-0.16-0.36-0.35-0.07
		C65.96,124.59,65.93,124.59,65.91,124.55z"/>
	<path class="st41" d="M66.13,140.38c0.04,0.09,0.09,0.16-0.03,0.25c-0.33,0.23-0.77,0.26-1.06,0.58c-0.04,0.05-0.21-0.01-0.31-0.01
		C65.18,140.9,65.63,140.6,66.13,140.38z"/>
	<path class="st42" d="M63.19,120.13c0.12,0.17,0.24,0.35,0.36,0.52c0,0.16,0.14,0.25,0.21,0.37c0.06,0.03,0.06,0.08,0.04,0.13
		c-0.2,0.05-0.32-0.02-0.42-0.21c-0.07-0.14,0.06-0.43-0.27-0.42c-0.01,0-0.19-0.26,0-0.39C63.13,120.1,63.16,120.1,63.19,120.13z"
		/>
	<path class="st43" d="M59.05,154.81c-0.2,0.25-0.4,0.5-0.6,0.75c-0.11-0.28,0.06-0.67,0.41-0.9c0.05-0.03,0.14-0.35,0.27-0.04
		C59.11,154.68,59.08,154.74,59.05,154.81z"/>
	<path class="st44" d="M48.51,142.24c0.05,0.05,0.11,0.1,0.16,0.15c-0.02,0.05-0.05,0.09-0.07,0.14c-0.21,0.01-0.45,0.16-0.52-0.21
		c-0.05-0.25-0.41-0.15-0.51-0.38c0.07-0.05,0.15,0.02,0.23-0.01c0.05,0,0.1,0,0.14,0C48.11,142.06,48.3,142.18,48.51,142.24z"/>
	<path class="st45" d="M43.21,141.95c0.07,0,0.09-0.17,0.2-0.04c0.27,0.31,0.62,0.58,0.55,1.07
		C43.71,142.63,43.46,142.29,43.21,141.95z"/>
	<path class="st16" d="M67.76,142.47c0.12-0.15,0.24-0.3,0.36-0.45c-0.1,0.4-0.01,0.81-0.11,1.22c-0.06-0.23-0.1-0.46-0.35-0.57
		C67.61,142.56,67.65,142.5,67.76,142.47z"/>
	<path class="st46" d="M70.92,132.88c-0.18-0.23-0.32-0.48-0.44-0.74c0.17,0,0.33,0.14,0.51-0.02c0.06-0.06,0.09,0.06,0.08,0.1
		C71,132.44,71.02,132.67,70.92,132.88z"/>
	<path class="st47" d="M67.09,143.49c-0.1,0.12-0.2,0.24-0.3,0.35c-0.06-0.34,0.06-0.59,0.37-0.74c0.15-0.07-0.01-0.34,0.23-0.35
		c0.08-0.05,0.11,0.02,0.14,0.07C67.38,143.04,67.23,143.27,67.09,143.49z"/>
	<path class="st48" d="M69.52,135.31c-0.21,0.1-0.43,0.21-0.64,0.31c-0.04-0.27,0.29-0.65,0.61-0.69c0.11-0.02,0.22-0.01,0.32,0.02
		c0.04,0.02,0.07,0.04,0.09,0.08C69.77,135.12,69.64,135.21,69.52,135.31z"/>
	<path class="st49" d="M70.85,134.43c-0.19,0.22-0.45,0.33-0.71,0.45c-0.11,0.03-0.17-0.02-0.2-0.12c0.12-0.36,0.49-0.39,0.75-0.55
		c0.11-0.07,0.14,0.08,0.16,0.17C70.85,134.4,70.85,134.41,70.85,134.43z"/>
	<path class="st35" d="M64.81,138.11c-0.12,0.2,0.27,0.02,0.17,0.25c-0.09,0.19-0.26-0.08-0.34,0.12c-0.14,0.36-0.32-0.09-0.49,0
		c0,0-0.01-0.01-0.01-0.01c0.11-0.28,0.35-0.38,0.63-0.4C64.78,138.09,64.8,138.1,64.81,138.11z"/>
	<path class="st50" d="M62.59,149.74c-0.19-0.21-0.19-0.39,0.12-0.46c0.12-0.03,0.07-0.15,0.12-0.19c0.07-0.06,0.12-0.32,0.28-0.07
		C62.97,149.28,62.79,149.52,62.59,149.74z"/>
	<path class="st13" d="M60.47,115.62c-0.15-0.29-0.31-0.57-0.46-0.86c0.18,0.01,0.28,0.08,0.32,0.28c0.05,0.23,0.36,0.36,0.29,0.66
		c0,0-0.02,0.02-0.02,0.02C60.51,115.74,60.49,115.68,60.47,115.62z"/>
	<path class="st51" d="M65.91,124.55c0.03,0,0.05,0,0.08,0c0.26,0.11,0.29,0.45,0.55,0.58c0.12,0.06-0.09,0.16-0.13,0.25
		c-0.16-0.24-0.33-0.47-0.49-0.71C65.91,124.64,65.91,124.6,65.91,124.55z"/>
	<path class="st52" d="M58.89,112.99c0.03,0.03,0.06,0.05,0.09,0.08c0.1,0.19,0.2,0.38,0.3,0.57
		C58.89,113.64,58.74,113.39,58.89,112.99z"/>
	<path class="st53" d="M53.17,142c0.27,0.12,0.52,0.26,0.75,0.44c-0.08,0.09-0.51,0.06-0.52-0.04
		C53.38,142.22,53.22,142.15,53.17,142z"/>
	<path class="st16" d="M68.12,142.01c0.05-0.11,0.11-0.22,0.22-0.29c0.37,0.19,0.37,0.19,0.32,0.48c-0.18-0.03-0.11-0.17-0.14-0.29
		C68.39,141.95,68.3,142.16,68.12,142.01z"/>
	<path class="st54" d="M51.03,143.79c-0.3-0.13-0.54-0.36-0.81-0.52c0.1,0,0.21-0.17,0.31,0.04c0.06,0.13,0.21,0.2,0.35,0.24
		c0.13,0.03,0.22,0.09,0.23,0.24C51.08,143.78,51.05,143.78,51.03,143.79z"/>
	<path class="st51" d="M66.86,126.12c-0.14-0.12-0.2-0.3-0.3-0.45c0.08-0.01,0.16-0.16,0.2-0.09
		C66.86,125.74,66.96,125.92,66.86,126.12z"/>
	<path class="st55" d="M63.91,147.95c0,0.03,0.01,0.06,0.01,0.1c-0.07,0.19-0.07,0.43-0.36,0.45c-0.01-0.01-0.02-0.03-0.04-0.04
		C63.54,148.21,63.65,148.02,63.91,147.95z"/>
	<path class="st54" d="M49.85,143.04c-0.1-0.01-0.18-0.06-0.23-0.14c0.18-0.05,0.27-0.39,0.57-0.13
		C49.95,142.73,49.87,142.85,49.85,143.04z"/>
	<path class="st56" d="M67.97,139.28c-0.17,0.18-0.28,0.47-0.61,0.36C67.54,139.49,67.73,139.35,67.97,139.28z"/>
	<path class="st57" d="M59.64,114.17c-0.07-0.06-0.12-0.13-0.14-0.23c0.06-0.1,0.12-0.2,0.19-0.3
		C59.76,113.83,59.82,114.01,59.64,114.17z"/>
	<path class="st58" d="M67.52,142.82c-0.05-0.02-0.09-0.05-0.14-0.07c0.13-0.09,0.17-0.22,0.15-0.37c0.09,0,0.18-0.01,0.23,0.09
		c-0.03,0.07-0.06,0.13-0.09,0.2C67.62,142.72,67.57,142.77,67.52,142.82z"/>
	<path class="st18" d="M68.49,138.92c-0.08,0.07-0.16,0.14-0.25,0.21c-0.04,0-0.08,0.01-0.12,0.01
		C68.07,138.78,68.28,138.86,68.49,138.92z"/>
	<path class="st35" d="M65.32,137.82c-0.11,0.21-0.3,0.27-0.51,0.3c0,0-0.02-0.02-0.02-0.02c-0.01-0.08,0.02-0.13,0.07-0.19
		c0.13-0.09,0.26-0.17,0.44-0.11L65.32,137.82z"/>
	<path class="st59" d="M61.54,151.28c0.08-0.21,0.22-0.37,0.37-0.53C61.94,151.04,61.73,151.15,61.54,151.28z"/>
	<path class="st26" d="M70.11,139.36c0.08,0.03,0.17,0.05,0.23,0.1c0.08,0.07,0.1,0.21,0,0.24c-0.2,0.05,0.05-0.13-0.05-0.14
		C70.17,139.54,70.08,139.51,70.11,139.36L70.11,139.36z"/>
	<path class="st60" d="M68.34,128.61c-0.13-0.15-0.25-0.31-0.3-0.51C68.21,128.22,68.34,128.38,68.34,128.61z"/>
	<path class="st21" d="M62.74,139.53c0.09,0.17,0.12,0.28-0.02,0.33c-0.03,0.01-0.11-0.01-0.12-0.04
		C62.54,139.68,62.74,139.69,62.74,139.53z"/>
	<path class="st54" d="M49.63,142.9c-0.15-0.03-0.28-0.1-0.38-0.22C49.42,142.67,49.61,142.64,49.63,142.9z"/>
	<path class="st10" d="M46.33,123.09c-0.03,0.15-0.13,0.26-0.22,0.37C46.03,123.25,46.07,123.1,46.33,123.09z"/>
	<path class="st48" d="M69.96,134.72c0.04,0.08,0.1,0.13,0.18,0.16c-0.06,0.08-0.14,0.13-0.24,0.14c0,0-0.02-0.02-0.02-0.02
		C69.82,134.89,69.77,134.77,69.96,134.72z"/>
	<path class="st57" d="M59.87,114.54c-0.1-0.1-0.19-0.22-0.22-0.37C59.76,114.27,59.97,114.31,59.87,114.54z"/>
	<path class="st16" d="M46.61,146.79c0.09,0.05,0.13,0.13,0.14,0.23c-0.07,0.02-0.14,0.03-0.24,0.06
		C46.55,146.97,46.58,146.88,46.61,146.79z"/>
	<path class="st21" d="M62.91,139.72c0.08-0.14,0.17-0.18,0.31-0.19C63.16,139.66,63.09,139.72,62.91,139.72z"/>
	<path class="st21" d="M62.22,140.28c-0.14,0.01-0.22-0.02-0.3-0.09C62.02,140.17,62.13,140.13,62.22,140.28z"/>
	<path class="st18" d="M65.47,123.6c-0.03-0.11-0.06-0.22-0.09-0.32C65.49,123.36,65.61,123.45,65.47,123.6L65.47,123.6z"/>
	<path class="st61" d="M63.8,121.16c-0.01-0.04-0.03-0.09-0.04-0.13c0.17,0.06,0.21,0.21,0.23,0.37
		C63.93,121.31,63.86,121.24,63.8,121.16z"/>
	<path class="st28" d="M69.23,140.46c0.04-0.12,0.11-0.22,0.21-0.3C69.45,140.32,69.42,140.45,69.23,140.46z"/>
	<path class="st60" d="M68.04,128.1c-0.08-0.05-0.13-0.13-0.14-0.23C68.05,127.88,68.13,127.93,68.04,128.1z"/>
	<path class="st62" d="M63.32,148.78c0-0.02,0-0.05,0-0.07c-0.01-0.15,0.07-0.22,0.21-0.23c0.01,0.01,0.02,0.01,0.03,0.02
		C63.53,148.64,63.45,148.73,63.32,148.78z"/>
	<path class="st10" d="M45.85,123.15c-0.04-0.02-0.08-0.03-0.09-0.06c-0.02-0.06,0.03-0.08,0.08-0.08c0.02,0,0.06,0.04,0.06,0.06
		C45.91,123.1,45.87,123.13,45.85,123.15z"/>
	<path class="st18" d="M68.85,138.16c0.02,0.02,0.05,0.05,0.05,0.08c0.01,0.06-0.04,0.08-0.09,0.08c-0.07,0.01-0.03-0.05-0.03-0.06
		C68.78,138.22,68.77,138.16,68.85,138.16z"/>
	<path class="st63" d="M49.68,117.62c0.01-0.04,0.02-0.09,0.03-0.13c0.02,0,0.04-0.01,0.06-0.02c0.02,0.07,0.12,0.15,0.06,0.22
		C49.77,117.76,49.75,117.61,49.68,117.62z"/>
	<path class="st17" d="M56.11,145.68c0.04,0.03,0.07,0.04,0.09,0.06c-0.03,0.03-0.06,0.06-0.1,0.08c-0.01,0-0.08,0.06-0.06-0.02
		C56.05,145.77,56.09,145.73,56.11,145.68z"/>
	<path class="st20" d="M47.28,147.75c0.09,0.05,0.16,0.13,0.2,0.23C47.34,147.96,47.27,147.89,47.28,147.75z"/>
	<path class="st64" d="M69.96,134.72c-0.11,0.07-0.06,0.19-0.08,0.29c-0.49-0.06-0.82,0.17-1,0.61c0,0,0,0,0,0
		c-0.43,0.18-0.84,0.43-1.23,0.67c-0.24,0.15-0.57,0.19-0.7,0.49l0,0c-0.51,0.14-0.98,0.35-1.38,0.7c-0.12,0.11-0.28,0.15-0.42,0.21
		c-0.13,0.06-0.21,0.16-0.25,0.3c-0.03,0.03-0.06,0.07-0.09,0.1c-0.24,0.1-0.45,0.22-0.65,0.38c-0.15,0.03-0.26,0.19-0.43,0.15
		c-0.22-0.03-0.35,0.22-0.51,0.21c-0.28-0.03-0.27,0.19-0.37,0.32c-0.44,0.27-0.98,0.34-1.35,0.73c-0.09,0.09-0.2,0.06-0.31,0.08
		c-0.06,0.02-0.07,0.11-0.12,0.16c0.05,0,0.1,0.01,0.13,0.05c-0.07,0.09-0.16,0.14-0.26,0.16c-0.2-0.02-0.37,0.07-0.55,0.14
		c-0.43,0.15-0.77,0.46-1.18,0.65c-0.38,0.18-0.75,0.48-1.09,0.76c-0.07,0.05-0.14-0.18-0.22,0.01c-0.03,0.07-0.09,0.14-0.17,0.18
		c-0.18,0.01-0.35,0.08-0.53,0.12c-0.27,0.06-0.36-0.04-0.24-0.28c0.06-0.14,0.09-0.24-0.01-0.36c-0.12-0.14-0.11-0.32-0.11-0.49
		c0-4.01,0-8.01,0-12.02c0-0.53,0.12-0.64,0.65-0.66c0.22-0.01,0.44,0,0.66-0.07c0.36-0.11,0.65,0.19,0.99,0.15
		c0.28-0.01,0.51,0.15,0.74,0.26c0.4,0.18,0.84,0.3,1.19,0.58c0.02,0,0.05,0,0.07,0c0.36,0.18,0.76,0.31,1.11,0.52l0,0
		c0.17,0.07,0.35,0.15,0.52,0.22c0.07,0.05,0.15,0.1,0.22,0.14c0.1-0.04,0.15,0.03,0.22,0.08c0.13,0.07,0.25,0.14,0.38,0.21
		c0.27-0.03,0.46,0.17,0.69,0.25c0.21,0.07,0.43,0.16,0.63,0.27l0,0c0.27,0.14,0.6,0.19,0.81,0.44c0.21,0.11,0.42,0.23,0.66,0.29
		c0.25-0.04,0.43,0.14,0.64,0.23c0.6,0.28,1.23,0.51,1.81,0.84c0.75,0.29,1.46,0.67,2.19,0.99c0.07,0.03,0.13,0.07,0.15,0.15
		c-0.06,0.19-0.16,0.36-0.3,0.51c-0.08,0-0.02-0.27-0.24-0.08C70.43,134.49,70.18,134.59,69.96,134.72z"/>
	<path class="st65" d="M61.05,129.27c-0.49-0.21-0.98-0.42-1.46-0.63c-0.12-0.05-0.23-0.13-0.37-0.11c-0.72-0.24-1.38-0.61-2.08-0.9
		c-0.42-0.17-0.83-0.37-1.24-0.56c-0.1-0.05-0.21-0.08-0.27-0.19c-0.02-0.04-0.04-0.08-0.05-0.12c-0.02-0.17-0.02-0.34-0.02-0.52
		c0-5.81,0-11.63,0-17.44c0-0.26,0-0.52,0.1-0.76c0-0.02,0-0.05,0.01-0.07c0.11,0.22,0.08,0.44,0.07,0.67
		c-0.01,0.22,0.06,0.36,0.36,0.3c-0.49,0.13-0.36,0.49-0.36,0.8c0,5.52,0,11.05,0,16.57c0,0.47,0.04,0.48,0.5,0.58
		c0.28,0.06,0.52,0.27,0.8,0.35c0.34,0.1,0.66,0.32,0.96,0.49c0.44,0.24,0.92,0.34,1.34,0.6c0.19,0.12,0.35,0.27,0.62,0.24
		c0.12-0.01,0.22,0.2,0.38,0.25c0.12,0.03,0.23,0.13,0.34,0.13C60.92,128.95,61.02,129.05,61.05,129.27z"/>
	<path class="st66" d="M68.78,132.8c-0.81-0.37-1.62-0.74-2.43-1.1c0-0.11,0.07-0.12,0.15-0.08c0.74,0.34,1.48,0.68,2.22,1.02
		c0.03,0.01,0.04,0.06,0.06,0.09c0.03,0.02,0.03,0.03,0.03,0.05C68.8,132.79,68.79,132.8,68.78,132.8z"/>
	<path class="st67" d="M68.78,132.8c0-0.02,0-0.05,0-0.07c0.31,0.05,0.61,0.16,0.87,0.32c0.45,0.27,0.93,0.45,1.41,0.64
		c0.1,0.09,0.27,0.12,0.29,0.29c-0.07-0.02-0.15-0.05-0.22-0.07C70.35,133.54,69.57,133.17,68.78,132.8z"/>
	<path class="st68" d="M62.38,118.8c0.17,0.23,0.35,0.46,0.44,0.74C62.39,119.51,62.36,119.46,62.38,118.8z"/>
	<path class="st69" d="M67.01,126.47c0.17,0.19,0.26,0.42,0.38,0.65c-0.28,0.08-0.31-0.18-0.44-0.32c-0.04-0.04-0.02-0.14-0.09-0.18
		C66.87,126.52,66.92,126.47,67.01,126.47z"/>
	<path class="st70" d="M65.69,131.4c-0.27-0.15-0.6-0.19-0.81-0.44c0.38-0.08,0.61,0.29,0.96,0.31c0.04,0,0.05,0.07,0.02,0.08
		C65.81,131.39,65.74,131.39,65.69,131.4z"/>
	<path class="st71" d="M64.88,130.97c-0.48-0.07-0.87-0.38-1.32-0.53c0.05-0.07,0.13-0.08,0.19-0.04
		C64.11,130.62,64.56,130.66,64.88,130.97z"/>
	<path class="st72" d="M62.22,129.79c-0.38-0.16-0.79-0.24-1.11-0.52C61.54,129.33,61.9,129.53,62.22,129.79z"/>
	<path class="st73" d="M64.43,122.2c0.05,0.09,0.11,0.19,0.16,0.28c-0.05,0.08-0.1,0.2-0.2,0.06
		C64.31,122.43,64.23,122.29,64.43,122.2z"/>
	<path class="st68" d="M63.19,120.13c-0.03,0-0.05,0-0.08,0c-0.19-0.15-0.32-0.33-0.29-0.6C62.99,119.71,63.06,119.94,63.19,120.13z
		"/>
	<path class="st74" d="M60.47,115.62c0.04,0.03,0.08,0.07,0.12,0.1c0.03,0.09,0.06,0.19,0.09,0.28
		C60.41,116,60.45,115.8,60.47,115.62z"/>
	<path class="st75" d="M62.74,130.01c-0.2,0-0.37-0.09-0.52-0.22C62.43,129.78,62.6,129.87,62.74,130.01z"/>
	<path class="st76" d="M63.18,130.23c-0.07-0.03-0.14-0.05-0.22-0.08C63.09,130.04,63.15,130.09,63.18,130.23z"/>
	<path class="st77" d="M54.42,110.56c-0.07-0.32,0.11-0.76,0.38-0.89c0.2-0.1,0.07-0.33,0.22-0.46c0.21-0.18,0.32-0.43,0.36-0.71
		c0.12,0.13,0.1,0.3,0.1,0.45c0,5.74,0,11.48,0,17.21c0,0.16,0.03,0.32-0.1,0.45c-0.13-0.19-0.29-0.35-0.51-0.39
		c-0.3-0.05-0.3-0.23-0.3-0.47c0.01-4.43,0-8.87,0-13.3c0-0.14,0.09-0.33-0.12-0.42c-0.06-0.03-0.05-0.07-0.01-0.12
		c0.26-0.31,0.05-0.69,0.14-1.02C54.63,110.7,54.24,110.77,54.42,110.56z"/>
	<path class="st78" d="M55.67,108.06c0,6.22,0,12.44,0,18.67c0,0.06-0.01,0.12-0.01,0.18c-0.02,0.03-0.04,0.03-0.06,0.01
		c-0.32,0.12-0.64,0.25-0.95,0.37c0.05-0.29,0.36-0.22,0.51-0.37c0.28-0.09,0.26-0.3,0.26-0.53c0-5.62,0-11.24,0-16.85
		c0-0.15-0.03-0.29,0.02-0.44c0.08-0.01,0.11,0.03,0.12,0.1c0.01,0.1,0,0.2,0,0.29c0,5.57,0,11.14,0,16.71c0,0.12,0.02,0.24,0,0.29
		c0-3.97,0-8.02,0-12.07c0-1.64,0-3.29,0-4.93c0-0.4-0.12-0.8-0.04-1.2c0-0.02,0-0.05,0-0.07C55.57,108.15,55.62,108.1,55.67,108.06
		z"/>
	<path class="st79" d="M55.45,109.09c0,5.78,0,11.56,0,17.34c0,0.22,0.06,0.48-0.29,0.49c0.03-0.13,0.23-0.14,0.22-0.29
		c0-6.04,0-12.08,0-18.12c0.02,0,0.05,0,0.07,0C55.56,108.69,55.55,108.89,55.45,109.09z"/>
	<path class="st63" d="M48.8,119.1c0.22-0.44,0.46-0.86,0.75-1.26c0.08,0.57-0.26,0.93-0.64,1.27
		C48.89,119.12,48.84,119.1,48.8,119.1z"/>
	<path class="st80" d="M55.6,126.91c0.02,0,0.04,0,0.06-0.01c0,0,0.02,0.01,0.02,0.01c0.12,0.15,0.11,0.32,0.11,0.49
		c0,5.05,0,10.1,0,15.14c0,0.17-0.02,0.34-0.03,0.51c-0.01,0.08-0.04,0.14-0.1,0.19c-0.13-0.15-0.07-0.33-0.07-0.49
		C55.6,137.48,55.6,132.2,55.6,126.91z"/>
	<path class="st81" d="M55.45,142.67c-0.11-0.1-0.07-0.23-0.07-0.34c0-4.91,0-9.81,0-14.72c0-0.08,0.01-0.17,0.01-0.25
		c0-0.01,0.02-0.02,0.03-0.02c0.01,0,0.02,0.01,0.03,0.01c0.06,0.11,0.03,0.24,0.03,0.36c0,4.87,0,9.73,0,14.6
		C55.48,142.43,55.51,142.56,55.45,142.67z"/>
	<path class="st82" d="M55.45,142.67c0-5.11,0-10.21,0-15.32c0.12,0.11,0.07,0.25,0.07,0.38c0,4.85,0,9.71,0,14.56
		C55.52,142.42,55.57,142.56,55.45,142.67z"/>
	<path class="st83" d="M55.67,143.26c0-0.05,0.01-0.1,0.01-0.15c0.09-0.41,0.19-0.48,0.56-0.31c0.12,0.05,0.06-0.04,0.09-0.05
		c0.23-0.13,0.36-0.14,0.52-0.01c-0.38,0.24-0.75,0.49-1.17,0.67C55.67,143.36,55.67,143.31,55.67,143.26z"/>
	<path class="st84" d="M49.69,139.91c-0.1-0.06-0.2-0.12-0.3-0.18C49.54,139.72,49.67,139.73,49.69,139.91z"/>
	<path class="st85" d="M55.61,146.5c0.02,0,0.04,0,0.06,0.01c0,4.02,0,8.05,0,12.07c-0.13-0.12-0.07-0.28-0.07-0.42
		c0-3.73,0-7.45,0-11.18C55.6,146.83,55.49,146.66,55.61,146.5z"/>
	<path class="st86" d="M63.53,148.48c-0.07,0.08-0.14,0.16-0.21,0.23c-0.16-0.18-0.08-0.35,0.02-0.52c0.09-0.16,0.17-0.32,0.26-0.47
		c0.17-0.29,0.53-0.41,0.68-0.73c0.04-0.08,0.12,0.06,0.17,0.13c-0.18,0.28-0.36,0.56-0.54,0.84
		C63.75,148.1,63.62,148.28,63.53,148.48z"/>
	<path class="st87" d="M66.36,144.44c-0.37,0.56-0.74,1.13-1.18,1.64c0.08-0.39,0.29-0.72,0.51-1.03c0.1-0.13,0.24-0.27,0.28-0.41
		C66.05,144.41,66.2,144.44,66.36,144.44z"/>
	<path class="st88" d="M56.34,146.14c0.37-0.25,0.75-0.49,1.16-0.68c0.06-0.03,0.11-0.04,0.16,0.01c-0.13,0.31-0.4,0.48-0.69,0.56
		C56.77,146.09,56.59,146.38,56.34,146.14z"/>
	<path class="st89" d="M60.02,153.36c-0.19,0.34-0.43,0.65-0.68,0.95c-0.1-0.27,0.28-0.43,0.17-0.7c0.27,0.05,0.23-0.2,0.33-0.33
		C59.9,153.18,59.98,153.28,60.02,153.36z"/>
	<path class="st90" d="M62.22,142.67c0.28-0.18,0.52-0.41,0.87-0.45c0.03-0.04,0.06-0.04,0.09,0
		C62.89,142.44,62.65,142.75,62.22,142.67z"/>
	<path class="st91" d="M63.18,142.23c-0.03,0-0.06,0-0.09,0c0.18-0.28,0.49-0.36,0.75-0.51c0.22,0.13,0.16,0.22-0.05,0.25
		C63.56,142,63.36,142.1,63.18,142.23z"/>
	<path class="st92" d="M57.66,145.47c-0.05,0-0.11,0-0.16-0.01c0.18-0.15,0.38-0.27,0.61-0.36
		C58.15,145.46,57.92,145.49,57.66,145.47z"/>
	<path class="st87" d="M65.43,144.91c-0.01,0.11-0.06,0.12-0.11,0.12c-0.11,0-0.15-0.06-0.15-0.16c0-0.05,0.03-0.11,0.08-0.09
		C65.33,144.81,65.39,144.87,65.43,144.91z"/>
	<path class="st93" d="M41.9,139.36c0-0.07,0-0.15,0-0.22c0.02-0.11-0.05-0.3,0.14-0.28c0.18,0.02,0.39,0.14,0.43,0.33
		c0.04,0.21,0.11,0.24,0.31,0.23c0.15-0.01,0.32,0.1,0.46,0.19c0.21,0.15,0.17,0.41-0.06,0.53c-0.13,0.07-0.26,0.11-0.4,0.17
		c0.04-0.25-0.09-0.31-0.32-0.3c-0.17,0.01-0.39,0.06-0.42-0.22C42,139.65,41.91,139.52,41.9,139.36z"/>
	<path class="st79" d="M55.45,158.66c-0.09,0.07-0.11,0-0.11-0.06c0.08-3.79,0.01-7.58,0.03-11.38c0-0.14-0.06-0.3,0.07-0.42
		c0.06,0.1,0.03,0.22,0.03,0.32c0,3.74,0,7.47,0,11.21C55.48,158.44,55.51,158.55,55.45,158.66z"/>
	<path class="st94" d="M55.45,158.66c0-3.95,0-7.91,0-11.86c0.13,0.12,0.07,0.28,0.07,0.42c0,3.81,0,7.63,0,11.44c0,0,0,0,0,0
		C55.5,158.66,55.47,158.66,55.45,158.66z"/>
	<path class="st95" d="M47.79,141.92c-0.07,0.13-0.15,0.04-0.23,0.01c-0.28,0-0.53-0.07-0.67-0.34c-0.02-0.04-0.06-0.08-0.1-0.09
		c-0.3-0.03-0.39-0.35-0.64-0.45c-0.05-0.02,0.03-0.06,0.07-0.07C46.74,141.32,47.34,141.51,47.79,141.92z"/>
	<path class="st96" d="M64.89,137.99c-0.02-0.2,0.08-0.32,0.26-0.41c0.39-0.21,0.77-0.42,1.13-0.67c0.21-0.14,0.43-0.13,0.66-0.13
		c-0.05,0.05-0.1,0.09-0.15,0.14c-0.51,0.26-1.01,0.55-1.48,0.87C65.16,137.86,65.02,137.92,64.89,137.99z"/>
	<path class="st97" d="M66.94,136.78c0.03-0.13,0.03-0.25,0.2-0.34c0.51-0.25,0.99-0.54,1.48-0.81c0.07-0.04,0.16-0.01,0.25-0.02
		C68.26,136.06,67.6,136.42,66.94,136.78z"/>
	<path class="st98" d="M66.94,137.08c-0.04-0.05-0.09-0.09-0.13-0.14c0.09,0.01,0.2-0.06,0.24,0.07
		C67.05,137.02,66.98,137.05,66.94,137.08z"/>
	<path class="st77" d="M55.45,109.09c0-0.2,0-0.39,0-0.59c0-0.08-0.01-0.17,0.07-0.22c0.11,0.1,0.07,0.23,0.07,0.35
		c0,5.94,0,11.88,0,17.82c0,0.08-0.01,0.17-0.02,0.29c-0.09-0.17-0.05-0.31-0.05-0.44c0-5.58,0-11.17,0-16.75
		C55.52,109.39,55.58,109.22,55.45,109.09z"/>
	<path class="st99" d="M57.81,141.94c-0.09-0.2,0.25-0.17,0.11-0.4c0.22,0.1,0.04,0.28,0.19,0.33c-0.02,0.05-0.05,0.1-0.07,0.15
		c-0.02,0.01-0.05,0.01-0.07,0.02c-0.05-0.01-0.09-0.02-0.13-0.05C57.82,141.96,57.81,141.95,57.81,141.94z"/>
	<path class="st100" d="M61.19,140.17c-0.08,0.01-0.16,0.01-0.24,0.02c0.02-0.35,0.39-0.26,0.55-0.46c0.18-0.22,0.43-0.32,0.73-0.35
		c0.21-0.02,0.32-0.34,0.59-0.25c0.04-0.03,0.07-0.02,0.1,0.02c-0.04,0.04-0.08,0.08-0.13,0.12
		C62.26,139.57,61.72,139.87,61.19,140.17z"/>
	<path class="st101" d="M56.85,142.74c-0.09-0.1-0.16-0.04-0.26,0c-0.16,0.08-0.3,0.07-0.5,0.04c-0.25-0.05-0.31,0.17-0.41,0.33
		c0-5.4,0-10.79,0-16.19c0.66,0.18,1.25,0.53,1.87,0.8c0.57,0.24,1.13,0.48,1.66,0.81c-0.23-0.04-0.49,0.09-0.69-0.17
		c-0.06-0.08-0.29,0.01-0.37,0.04c-0.29,0.1-0.58,0.04-0.87,0.06c-0.25,0.02-0.37,0.1-0.37,0.38c0.01,4.12,0,8.24,0.01,12.36
		c0,0.09-0.04,0.23,0.06,0.27c0.47,0.19,0.16,0.34-0.01,0.5c-0.02,0.02-0.03,0.06-0.08,0.16c0.34-0.05,0.62-0.19,0.91-0.19l0,0
		c0.11,0.2-0.08,0.18-0.17,0.23c-0.18,0.1-0.4,0.15-0.47,0.38C57.08,142.64,56.97,142.7,56.85,142.74z"/>
	<path class="st102" d="M57.17,142.54c-0.18-0.19,0.03-0.24,0.12-0.32c0.15-0.14,0.42-0.05,0.51-0.28c0.07,0,0.12,0.02,0.15,0.09
		C57.73,142.25,57.47,142.42,57.17,142.54z"/>
	<path class="st103" d="M62.92,139.15c-0.03-0.01-0.07-0.01-0.1-0.02c0-0.18,0.02-0.32,0.27-0.33c0.22,0,0.34-0.4,0.63-0.18
		C63.47,138.84,63.21,139.03,62.92,139.15z"/>
	<path class="st98" d="M46.76,122.35c-0.06,0.01-0.15,0.07-0.15-0.06c0-0.05,0-0.14,0.08-0.12
		C46.78,122.19,46.75,122.28,46.76,122.35C46.76,122.35,46.76,122.35,46.76,122.35z"/>
</g>
</svg>
