<?xml version="1.0" encoding="utf-8"?>
<!-- Generator: Adobe Illustrator 24.1.2, SVG Export Plug-In . SVG Version: 6.00 Build 0)  -->
<svg version="1.1" id="Calque_1" xmlns="http://www.w3.org/2000/svg" xmlns:xlink="http://www.w3.org/1999/xlink" x="0px" y="0px"
	 viewBox="0 0 512 458" style="enable-background:new 0 0 512 458;" xml:space="preserve">
<style type="text/css">
	svg { background:#9bc8c3; }
	.st0{opacity:0.2;fill:#FFFFFF;}
	.st1{fill:#FFFFFF;}
	.st2{fill:url(#SVGID_1_);}
	.st3{fill:url(#SVGID_2_);}
	.st4{fill:#7DC798;}
	.st5{fill: none;stroke: #000000;stroke-width: 3;stroke-linecap: round;stroke-linejoin: round;}
	.st6{fill:#FEFEFE;}
	.st7{fill:#5492F6;}
	.st8{fill:#4760BF;}
	.st9{fill:#5693F6;}
	.st10{fill:#123FA7;}
	.st11{fill:#F1E2E2;}
	.st12{fill:#EFE0E2;}
	.st13{fill:#5693F5;}
	.st14{fill:#D73434;}
	.st15{fill:#8D0E0E;}
	.st16{fill:#F7E3E3;}
	.st17{fill:#F8ECEC;}
	.st18{fill:#F6E0E0;}
	.st19{fill:#D65656;}
	.st20{fill:#C82B2B;}
	.st21{fill:#C83636;}
	.st22{fill:#C52626;}
	.st23{fill:#CE4040;}
	.st24{fill:#BB1A1A;}
	.st25{fill:#D4444B;}
	.st26{fill:#5562BF;}
	.st27{fill:#274EBD;}
	.st28{fill:#6575C9;}
	.st29{fill:#9DA7D2;}
	.st30{fill:#DA3636;}
	.st31{fill:#C91B1B;}
	.st32{fill:#DC4343;}
	.st33{fill:#DD2F2F;}
	.st34{fill:#E35151;}
	.st35{fill:#E04040;}
	.st36{fill:#E35252;}
	.z-index-above {
		z-index:10;
		position: relative;
	}
	.funds-interaction {
		animation: translate-funds 7s ease-in-out infinite;
		transform: translate(-18px, -7px);
		z-index:1;
		position: relative;
		fill:#FFF;
		opacity:1;
	}
	@keyframes translate-funds {
	  0%, 100%  {
		transform: translate(-18px, -7px);
		fill:#FFF;
	  }
	  10% { fill:#FFF; }
	  11% { fill:#7DC798; }
	  20% {
		transform: translate(314px, 139px);
		fill:#7DC798;
	  }
	  50% {
		transform: translate(314px, 139px);
		fill:#7DC798;
	  }
	  60% {	fill:#7DC798; }
	  61% { fill:#FFF; }
	  70% {	transform: translate(-18px, -7px); }
	}
	
	.circle-client {
		transform-origin: 56.04px 133.01px;
		transform: scale(1);
		animation: circle-client 7s ease-in-out infinite;
	}
	
	@keyframes circle-client {
		0%,100% { transform: scale(1); }
		2% { transform: scale(1.1); }
		4% { transform: scale(1); }
		66% { transform: scale(1); }
		68% { transform: scale(1.1); }
		70% { transform: scale(1); }
	}
	
	.circle-orne {
		transform-origin: 256.04px 232.01px;
		transform: scale(1);
		animation: circle-orne 7s ease-in-out infinite;
	}
	
	@keyframes circle-orne {
		0%,100% { transform: scale(1); }
		8% { transform: scale(1); }
		10% { transform: scale(1.1); }
		12% { transform: scale(1); }
		58% { transform: scale(1); }
		60% { transform: scale(1.1); }
		62% { transform: scale(1); }
	}
	
	.circle-tree {
		transform-origin: 455.04px 320.01px;
		transform: scale(1);
		animation: circle-tree 7s ease-in-out infinite;
	}
	
	@keyframes circle-tree {
		0%,100% { transform: scale(1); }
		18% { transform: scale(1); }
		20% { transform: scale(1.1); }
		22% { transform: scale(1); }
		48% { transform: scale(1); }
		50% { transform: scale(1.1); }
		52% { transform: scale(1); }
	}
	
</style>

<circle class="st0" cx="253.54" cy="230.51" r="222"/>
<circle class="st0" cx="255.4" cy="231.57" r="148.65"/>
<circle class="st0" cx="255.54" cy="231.51" r="97"/>
<linearGradient id="SVGID_1_" gradientUnits="userSpaceOnUse" x1="1658.8044" y1="3556.729" x2="1862.3118" y2="3645.4463" gradientTransform="matrix(-0.9171 -0.1859 -0.1859 -0.5829 2646.3879 2701.0142)">
	<stop  offset="0.2957" style="stop-color:#FFFFFF;stop-opacity:0.1"/>
	<stop  offset="1" style="stop-color:#FFFFFF"/>
</linearGradient>
<polygon class="st2" points="267.89,234.79 269.52,231.13 481.42,325.59 479.79,329.24 "/>
<linearGradient id="SVGID_2_" gradientUnits="userSpaceOnUse" x1="339.338" y1="-461.5411" x2="542.8454" y2="-372.8239" gradientTransform="matrix(0.9171 0.1859 0.1859 0.5829 -156.1564 350.3333)">
	<stop  offset="0.2877" style="stop-color:#FFFFFF;stop-opacity:0.1"/>
	<stop  offset="1" style="stop-color:#FFFFFF"/>
</linearGradient>
<polygon class="st3" points="265.12,229.09 263.49,232.74 51.59,138.29 53.22,134.63 "/>
<circle class="st1 funds-interaction" cx="107.04" cy="161.01" r="8.5"/>
<circle class="st1 z-index-above circle-orne" cx="256.04" cy="232.01" r="57.5"/>
<circle class="st1 z-index-above circle-client" cx="56.04" cy="133.01" r="49.5"/>
<circle class="st1 z-index-above circle-tree" cx="455.04" cy="320.01" r="49.5"/>
<g class="z-index-above">
	<path class="st4" d="M237.9,256.2h48.4l0,0c-13.4,0-24.2-5.4-24.2-12.1l0,0l0,0C262.1,250.8,251.3,256.2,237.9,256.2    L237.9,256.2 M286.3,256.2L286.3,256.2l-24.2-48.4l0,0l-24.2,48.4"/>
		<path class="st5" d="M274.2,256.2L274.2,256.2h-48.4l0,0l0,0l24.2-48.4l0,0L274.2,256.2"/>
</g>
<g class="z-index-above">
	<path class="st4" d="M455,298.1L455,298.1L455,298.1l-19.2,38.4l0,0h38.4l0,0L455,298.1"/>
	<path class="st5" d="M464.7,342L464.7,342 M455,322.7L455,322.7L455,322.7l9.6,19.2 M455,322.7L455,322.7l-9.6,19.2l0,0h19.2"/>
</g>
<g class="z-index-above">
	<g>
		<path class="st6" d="M32.1,133.6c0-7.9,0.1-15.9-0.1-23.8c0-1.8,0.4-2.2,2.2-2.2c15.9,0.1,31.8,0.1,47.6,0c1.8,0,2.2,0.4,2.2,2.2
			c-0.1,15.9-0.1,31.8,0,47.6c0,1.8-0.4,2.2-2.2,2.2c-15.9-0.1-31.8-0.1-47.6,0c-1.8,0-2.2-0.3-2.2-2.2
			C32.2,149.5,32.1,141.6,32.1,133.6z"/>
		<path class="st7" d="M67,116.3c4.5,2.7,7,6.8,8.4,11.7c-0.1,0.2-0.3,0.4-0.4,0.5c-4.2,2.1-8.9,1.9-13.4,3
			c-2.7,0.3-5.5,0.5-8.1,1.3c-1.7,0.5-3.6,0.8-4.6-1.5c-1.6-2-1.7-4.2-1.4-6.6c2.6-5,10.4-9.1,16.6-8.6
			C65.1,116.1,66,116.6,67,116.3z"/>
		<path class="st8" d="M48.9,131.3c1.1,0.5,2.1,1.4,3.5,0.7c3-1.5,6.2-1.4,9.4-1.4c0.3,0.3,0.5,0.6,0.5,1c-0.1,0.7-0.2,1.7-0.7,1.8
			c-3.3,1.1-2,3-1,4.9c0.3,1.1,0.2,2.9-0.9,2.5c-2.7-1-2.7,2-4.3,2.4c-3.3-1-5.7,3.1-9.1,1.7c-0.4-0.2-0.7-0.5-0.9-0.8
			c-0.8-1.6,0.7-2.5,1.1-3.8c0.5-1.7,0.3-3.3-0.8-4.8c-0.8-1-0.3-2,0.1-3C46.3,130.7,47.9,131.9,48.9,131.3z"/>
		<path class="st9" d="M45.8,132.5c0.8,0.9-0.5,1.6-0.2,2.4c1,2.8-0.4,5.5,0,8.3c0,0.3,0,0.6,0,0.9c0.3,0.3,0.5,0.6,0.7,0.9
			c0.1,0.4,0.2,0.8,0.2,1.1c0,0.4,0,0.8-0.1,1.2c-0.3,0.7-0.5,1.6-1.6,1.1c-7.6-6.8-9.9-14.2-6.6-22.1c2.3,1.6,3.8,3.7,5.2,6
			C44.3,134,45,133,45.8,132.5z"/>
		<path class="st10" d="M67,116.3c-2.4,1.5-5.2,0.6-7.7,1.4c-4.5,1.5-8.5,3.6-11.8,7c-0.6-0.6-1.2-1.2-1.8-1.8
			c-0.3-1.4,0.8-2.1,1.7-2.7c2-1.4,2.9-3.4,3.4-5.6C56.4,112.7,61.9,113.1,67,116.3z"/>
		<path class="st11" d="M46.3,153.7c-2.4-0.6-1.2-2.4-1.3-3.7c2.8-1.6,5.9-0.6,8.8-0.9c4.9,0,9.6-1.7,14.5-2.1
			c2.5-0.3,4.9-0.9,7.3-1.7c1.2-0.2,2.3-0.1,3.3,0.8c0,1.2-0.1,2.3-0.1,3.5c-0.4,0.2-0.8,0.4-1.3,0.4
			C67.2,151.7,56.8,153.2,46.3,153.7z"/>
		<path class="st11" d="M78.9,146c-1.2,0-2.3,0-3.5,0c-2.8,0.8-5.6,1.1-8.4,1.7c-6.4,1-12.8,2-19.2,1.9c-0.9,0.3-1.9,0.3-2.8,0
			c-0.1-0.4-0.1-0.7-0.2-1.1c0.7-0.2,0.8-0.8,0.8-1.4c2.3-2.6,5.3-1.1,8-1.5c4.1-0.4,8.1-1.2,12.1-1.7c2.8-0.3,5.5-0.8,8.3-1.4
			c1.7-0.3,3.4-0.4,4.8,0.9C78.9,144.3,78.9,145.1,78.9,146z"/>
		<path class="st12" d="M45.7,145.3c0-0.4,0-0.8,0-1.2c3.6,0.9,6.6-2.4,10.2-1.5c2-0.4,4.1-0.7,6.1-1.4c3.7-0.9,7.6-1,11.3-2.1
			c2-0.3,3.9-0.6,5.6,0.9c0,0.9,0,1.7,0,2.6c-2.4-0.1-4.7,0.3-7,0.8c-2.7,0.3-5.4,1-8.2,1.3C57.7,145.5,51.7,146.9,45.7,145.3z"/>
		<path class="st13" d="M50.7,114.6c1,2.3,0.1,3.9-1.6,5.4c-1.1,1-2.8,1.3-3.4,2.9c-2.1-0.5-4,1.5-6.7,0.7
			C41.7,118.7,45,115.2,50.7,114.6z"/>
		<path class="st14" d="M46.3,153.7c0-0.7-0.3-1.5,0.9-1.5c10.1,0.3,20-1.9,29.9-3.5c0.3,0,0.7,0.4,1,0.6c-1.1,2.2-3.1,2.5-5.2,3
			c-7,1.5-14.1,1.3-21.2,2.1C49.9,154.3,47.9,155.3,46.3,153.7z"/>
		<path class="st15" d="M51.7,154.4c5.2-1.6,10.7-1.4,16-2.4c3.5-0.7,7.2-0.9,10.4-2.6c0.2,0,0.5,0.1,0.7,0.2c0.3,4.1-3,3.8-5.4,4.2
			C66.2,154.9,58.9,154.6,51.7,154.4z"/>
		<path class="st16" d="M78.9,136.7c0,0.8,0,1.6,0,2.4c-2.4,0.1-4.7,0.2-7,0.8c-3.4,0.5-6.7,1.9-10.2,1c-0.4-0.7-0.3-1.4,0.1-2.1
			C67.3,136.7,72.9,134.6,78.9,136.7z"/>
		<path class="st17" d="M78.9,129.8c0,0.9,0,1.7,0,2.6c-2.5,0.5-5.1,0.9-7.7,1.2c-3.1,0.4-6.2,1.8-9.4,0.7c-0.4-0.7-0.4-1.3,0-2
			c2.4-2.4,5.8-1.4,8.6-2.3c1.1-0.4,2.4-0.5,3.6-0.8C75.6,129,77.4,128.6,78.9,129.8z"/>
		<path class="st18" d="M78.9,133.2c0,0.8,0,1.7,0,2.5c-5.5,0.3-10.8,1.7-16.3,2.3c-0.5-0.1-0.8-0.4-1.1-0.8
			c-0.2-0.7-0.1-1.4,0.4-1.9c3.8-1.8,8.1-1.5,12.1-2.5C75.7,132.3,77.4,132.2,78.9,133.2z"/>
		<path class="st19" d="M62,137.4c4.3-0.7,8.7-1.4,13-2.2c1.4-0.3,2.8-0.6,4,0.5c0,0.4,0,0.7,0,1.1c-5.8,0-11.4,1.5-17,2.3
			C61.4,138.5,61.4,137.9,62,137.4z"/>
		<path class="st20" d="M78.9,133.2c-1.7,0-3.3,0.1-5,0.1c-1,0.2-2.1,1.1-2.5-0.7c2.5,0.3,5-2.2,7.5-0.2
			C78.9,132.6,78.9,132.9,78.9,133.2z"/>
		<path class="st21" d="M72.2,142.7c2.2,0,4.4-2,6.7-0.2c0,0.3,0,0.6,0,0.9c-1.6,0-3.3,0.1-4.9,0.1
			C73.2,143.7,72.2,144.4,72.2,142.7z"/>
		<path class="st22" d="M72.2,139.4c2.2,0,4.4-2,6.7-0.2c0,0.3,0,0.5,0,0.8c-1.9,0-3.8,0.1-5.7,0.1
			C72.3,140.5,72.1,140.2,72.2,139.4z"/>
		<path class="st23" d="M45,149.6c0.7-0.1,1.4-0.2,2.1-0.3c2.4,0,5-1.4,7.1,0.8c-3.1,0.2-6.1,0.9-9.2-0.1C45,150,45,149.6,45,149.6z
			"/>
		<path class="st24" d="M78.9,129.8c-1.7,0-3.4,0-5.1,0.1c-0.5-1.6,1.2-1,1.7-1.6c0,0-0.1-0.2-0.1-0.2
			C76.6,128.5,78.8,127.1,78.9,129.8z"/>
		<path class="st25" d="M75.5,128.2c-0.6,0.5-1.1,1.1-1.7,1.6c-3.9,1.4-8,1.5-12,2.3c-0.1-0.2-0.2-0.4-0.3-0.5
			c0.1-0.3,0.1-0.7,0.2-1C66.3,129.8,70.9,129,75.5,128.2z"/>
		<path class="st26" d="M62,137.4c0,0.5,0,1.1-0.1,1.6c0,0.6,0.1,1.2,0.1,1.9c0.4,0.5,0.3,1-0.1,1.5c-2,0.3-3.9,2-6,0.3
			c0.9-1-0.3-4.5,3.3-2.5c1.3,0.7,0.7-1.2,1-2c0.1-1.2,0.7-1.3,1.7-0.8L62,137.4z"/>
		<path class="st27" d="M45.7,143.2c-1.3-2.8-1.2-5.5,0-8.3C48.6,136.4,48.6,140,45.7,143.2z"/>
		<path class="st28" d="M61.8,137.4c-0.6,0.3-1.1,0.5-1.7,0.8c-2.6-2.4-2.4-3.8,0.5-4.9c0.4-0.2,0.6-1.2,0.9-1.8
			c0.2,0.1,0.2,0.3,0.3,0.5c0,0.6,0.1,1.3,0.1,1.9c0.4,0.5,0.5,1.1,0.1,1.6C61.9,136.2,61.9,136.8,61.8,137.4z"/>
		<path class="st29" d="M50.5,138.6c0.1,0,0.3-0.1,0.4-0.1c0.4,0.1,0.4,0.3,0.1,0.5c-0.1,0.1-0.3,0-0.4-0.1
			C50.5,138.8,50.5,138.7,50.5,138.6z"/>
		<path class="st30" d="M45.7,145.3c6.3,0.4,12.4-0.6,18.6-1.1c0.8-0.4,1.7-0.8,1.7,0.7c-4,0.5-8,1.1-11.9,1.6
			c-2.8-0.7-5.6,0.3-8.4-0.6C45.7,145.8,45.6,145.6,45.7,145.3z"/>
		<path class="st31" d="M45.7,146c2.8,0.3,5.7-0.6,8.4,0.6c-2.8,0.2-5.6,0.4-8.5,0.5C45.7,146.8,45.7,146.4,45.7,146z"/>
		<path class="st32" d="M54.2,150.1c-2.2-1.5-4.8-0.3-7.1-0.8c6.6-0.7,13.3-1.5,19.9-2.2c0.5,0.4,1.4,0,1.7,0.7
			C64,149.1,59.1,149.7,54.2,150.1z"/>
		<path class="st33" d="M68.8,147.7c-0.6-0.2-1.2-0.5-1.7-0.7c2.8-0.4,5.5-1.4,8.4-1C73.6,148.1,71.1,147.4,68.8,147.7z"/>
		<path class="st34" d="M66.1,145c-0.6-0.2-1.1-0.5-1.7-0.7c2.5-1.1,5.2-1.1,7.8-1.5c0.6,0.3,1.2,0.5,1.8,0.8
			C71.4,144.5,68.7,144.7,66.1,145z"/>
		<path class="st35" d="M61.9,142.3c0-0.5,0.1-1,0.1-1.5c3.4-0.5,6.8-1,10.2-1.5c0.3,0.3,0.7,0.5,1,0.8
			C69.5,141.5,65.6,141.6,61.9,142.3z"/>
		<path class="st36" d="M62,135.6c0-0.5,0-1.1-0.1-1.6c3.1-0.5,6.3-1,9.4-1.4c0.7,0.8,1.7,0.4,2.5,0.7C69.9,134,66,134.8,62,135.6z"
			/>
	</g>
</g>
</svg>
