<?xml version="1.0" encoding="utf-8"?>
<!-- Generator: Adobe Illustrator 24.1.2, SVG Export Plug-In . SVG Version: 6.00 Build 0)  -->
<svg version="1.1" id="Calque_1" xmlns="http://www.w3.org/2000/svg" xmlns:xlink="http://www.w3.org/1999/xlink" x="0px" y="0px"
	 viewBox="0 0 312 106" style="enable-background:new 0 0 312 106;" xml:space="preserve">
<style type="text/css">
	.st0{fill:#FFFFFF;}
	.st1{fill:#7DC798;}
	.st2{fill:none;stroke:#292929;stroke-width:2;stroke-miterlimit:10;}
	.st3{fill:#777D9E;}
	.st4{fill:#9DA4BD;}
	.st5{fill:#FBFDFA;}
	.st6{fill:#F9FBFB;}
	.st7{fill:#FBFCFA;}
	.st8{fill:#FAFCF9;}
	.st9{fill:#F9FBFA;}
	.st10{fill:#FCFCF9;}
	.st11{fill:#797F99;}
	.st12{fill:#F8FBFA;}
	.st13{fill:#FAFCFA;}
	.st14{fill:#F9FBF9;}
	.st15{fill:#A0A5B7;}
	.st16{fill:#F7FAFA;}
	.st17{fill:#F9FAFA;}
	.st18{fill:#F9FBF7;}
	.st19{fill:#5B607A;}
	.st20{fill:#FBFBF9;}
	.st21{fill:#A1A6B6;}
	.st22{fill:#FBFBF8;}
	.st23{fill:#F9FCF9;}
	.st24{fill:#F1F3F8;}
	.st25{fill:#7C8298;}
	.st26{fill:#798097;}
	.st27{fill:#A2A5B4;}
	.st28{fill:#9FA5B4;}
	.st29{fill:#7A8293;}
	.st30{fill:#9FA3B5;}
	.st31{fill:#F8F9F9;}
	.st32{fill:#F6F9F9;}
	.st33{fill:#F3F7F9;}
	.st34{fill:#7E8297;}
	.st35{fill:#FAFCF6;}
	.st36{fill:#F7F8F7;}
	.st37{fill:#7B819A;}
	.st38{fill:#767E94;}
	.st39{fill:#787E92;}
	.st40{fill:#9FA6B5;}
	.st41{fill:#A3A9B6;}
	.st42{fill:#F7F6F7;}
	.st43{fill:#7D8298;}
	.st44{fill:#5C607E;}
	.st45{fill:#5A5F7B;}
	.st46{fill:#7A8190;}
	.st47{fill:#F6F7F9;}
	.st48{fill:#797E92;}
	.st49{fill:#F3F3F9;}
	.st50{fill:#F5F9FB;}
	.st51{fill:#EAEBF4;}
	.st52{fill:#80859D;}
	.st53{fill:#F4F8FB;}
	.st54{fill:#767E8B;}
	.st55{fill:#ECF0F5;}
	.st56{fill:#EAEDF5;}
	.st57{fill:#EDEFF5;}
	.st58{fill:#E2E2F1;}
	.st59{fill:#A1A8B9;}
	.st60{fill:#575B86;}
	.st61{fill:#7C81A5;}
	.st62{fill:#7D82A6;}
	.st63{fill:#7E83A8;}
	.st64{fill:#7B8095;}
	.st65{fill:#7B7F94;}
	.st66{fill:#7E84A6;}
	.st67{fill:#8086A8;}
	.st68{fill:#8388AB;}
	.st69{fill:#727A90;}
	.st70{fill:#7E849A;}
	.st71{fill:#858BAC;}
	.st72{fill:#878DB2;}
	.st73{fill:#9DA4BF;}
	.st74{fill:#A3AAC5;}
	.st75{fill:#989FBA;}
	.st76{fill:#8389AA;}
	.st77{fill:#727799;}
	.st78{fill:#7B81A3;}
	.st79{fill:#575E7F;}
	.st80{fill:#81889C;}
	.st81{fill:#A4ABC6;}
	.st82{fill:#777F98;}
	.st83{fill:#7C8299;}
	.st84{fill:#797D95;}
	.st85{fill:#797D93;}
	.st86{fill:#7B8297;}
	.st87{fill:#797E96;}
	.st88{fill:#7C8094;}
	.st89{fill:#9CA5C2;}
	.st90{fill:#A2A9C4;}
	.st91{fill:#9FA7B4;}
	.st92{fill:#5A5E7F;}
	.st93{fill:#5F617D;}
	.st94{fill:#FEFEFE;}
	.st95{fill:#535B7D;}
	.st96{fill:#5A5E7C;}
	.st97{fill:#575C85;}
	.st98{fill:#5A6078;}
	.st99{fill:#5A5D78;}
	.st100{opacity:0.68;fill:#FFFFFF;}
	.fleche-bas {
		animation: fleche-bas 2s ease-in-out infinite;
		transform: translate(0px, 0px);
		opacity:1;
		transform-origin: 50% 50%;
	}
	
	@keyframes fleche-bas {
		0%,100% { 
			transform: translate(0px, 0px);
		}
		50% { 
			transform: translate(0px, 0px);
			opacity:1;
		}
		100% { 
			transform: translate(-15px, 0px);
			opacity:0;
		}
	}
	
	.fleche-haut {
		animation: fleche-haut 2s ease-in-out infinite;
		transform: translate(0px, 0px);
		opacity:1;
		transform-origin: 50% 50%;
	}
	
	@keyframes fleche-haut {
		0%,100% { 
			transform: translate(0px, 0px);
		}
		50% { 
			transform: translate(0px, 0px);
			opacity:1;
		}
		100% { 
			transform: translate(15px, 0px);
			opacity:0;
		}
	}
</style>
<circle class="st0" cx="254.27" cy="53.42" r="49.5"/>
<circle class="st0" cx="56.8" cy="53.61" r="49.5"/>
<g>
	<path class="st1" d="M236.1,77.6h48.4l0,0c-13.4,0-24.2-5.4-24.2-12.1l0,0l0,0C260.3,72.2,249.5,77.6,236.1,77.6L236.1,77.6    M284.5,77.6L284.5,77.6l-24.2-48.4l0,0l-24.2,48.4"/>
	<path class="st2" d="M272.4,77.6L272.4,77.6H224l0,0l0,0l24.2-48.4l0,0L272.4,77.6"/>
</g>
<g>
	<path class="st3" d="M58.78,32.04c0.03,0.05,0.05,0.1,0.08,0.14c0.23,0.32,0.47,0.64,0.67,0.98c0.07,0.13,0.15,0.24,0.17,0.39
		c-0.08,0.33,0.02,0.56,0.35,0.68c0.13,0.06,0.13,0.21,0.22,0.3c0.11,0.04,0.1,0.15,0.14,0.23l0,0c0.08,0.12,0.2,0.22,0.22,0.37
		c0.01,0.09,0.06,0.17,0.13,0.22c0.21,0.26,0.4,0.53,0.53,0.84c0,0.16,0.01,0.32,0.2,0.39c0.2,0.4,0.53,0.71,0.75,1.1
		c0.22,0.45,0.54,0.84,0.78,1.27c0.08,0.14,0.17,0.26,0.2,0.43c0.02,0.27-0.05,0.58,0.32,0.69c0.03,0.02,0.06,0.04,0.08,0.07
		c0.06,0.21,0.2,0.39,0.29,0.59c-0.01,0.15-0.06,0.31,0.18,0.35c0.08,0.01,0.11,0.16,0.11,0.26c0,0.25,0.16,0.32,0.36,0.37
		c0.12,0.06,0.13,0.19,0.21,0.28c0.06,0.09,0.11,0.19,0.17,0.28c0.17,0.13,0.28,0.29,0.31,0.5c-0.04,0.14-0.11,0.3,0.15,0.29
		c0.14,0.1,0.2,0.25,0.26,0.39l0,0c0.28,0.37,0.53,0.76,0.73,1.19l0,0c0.17,0.13,0.27,0.31,0.33,0.52c0.01,0.05,0.03,0.1,0.05,0.15
		c-0.01,0.33,0.12,0.56,0.35,0.82c0.26,0.28,0.41,0.68,0.6,1.03c0.11,0.21,0.2,0.45,0.46,0.53c0.07,0.02,0.1,0.08,0.12,0.14
		c0.08,0.24,0.23,0.44,0.38,0.64c0.07,0.06,0.12,0.14,0.14,0.23l0,0c0.12,0.16,0.23,0.33,0.3,0.51c0.13,0.24,0.25,0.47,0.38,0.71
		c0.07,0.24,0.13,0.54,0.26,0.71c0.3,0.4,0.51,0.84,0.77,1.24c0.23,0.36,0.54,0.67,0.7,1.08c0.15,0.38,0.31,0.78,0.61,1.08
		c0.08,0.08,0.08,0.17,0.02,0.27c-0.42,0.06-0.75-0.19-1.08-0.36c-0.39-0.2-0.79-0.37-1.2-0.54c-0.71-0.42-1.49-0.7-2.23-1.06
		c-0.08-0.04-0.16-0.04-0.25,0c-0.25-0.01-0.47-0.11-0.65-0.29c-0.17-0.28-0.46-0.34-0.74-0.43c-0.03-0.01-0.06-0.02-0.1-0.03
		c-0.42-0.18-0.81-0.45-1.28-0.5c-0.15-0.02-0.29-0.07-0.38-0.2c-0.02-0.17-0.15-0.06-0.22-0.1c-0.1-0.02-0.17-0.08-0.25-0.14
		c-0.13-0.1-0.29-0.15-0.44-0.21c-0.03-0.01-0.06-0.03-0.09-0.05c-0.35-0.19-0.7-0.38-1.1-0.48c-0.04-0.02-0.07-0.04-0.09-0.07
		c-0.06-0.06-0.09-0.15-0.18-0.17c-0.84-0.23-1.58-0.7-2.39-1.02c-0.67-0.27-1.31-0.63-1.97-0.95c-0.07-0.03-0.12-0.07-0.2-0.09
		c-0.58-0.17-0.6-0.19-0.6-0.78c0-5.53,0-11.07,0-16.6c0-0.19-0.08-0.43,0.15-0.56c0.02-0.01,0.05,0,0.02-0.03
		c-0.3-0.29-0.09-0.69-0.21-1.01c-0.01-0.1-0.02-0.2,0.08-0.27c0.12-0.02,0.18,0.07,0.23,0.15c0.36,0.58,0.76,1.13,1.01,1.77l0,0
		c0.27,0.18,0.36,0.48,0.49,0.75C58.36,31.37,58.67,31.65,58.78,32.04z"/>
	<path class="st4" d="M48.1,42.12c0.11-0.22,0.21-0.44,0.32-0.65c0.12-0.37,0.34-0.67,0.58-0.96l0,0c0.04-0.21,0.17-0.36,0.3-0.52
		l0,0c0.07-0.13,0.12-0.28,0.27-0.36c0.41-0.29,0.68-0.67,0.69-1.2c0.03-0.1,0.07-0.2,0.18-0.24c0.18,0.07,0.05-0.1,0.1-0.13
		c0.76-1.28,1.53-2.56,2.28-3.84c0.18-0.3,0.42-0.57,0.53-0.92c0.21-0.35,0.35-0.73,0.58-1.06c0.07-0.11,0.14-0.23,0.26-0.3
		c0.12-0.04,0.23-0.14,0.25-0.25c0.06-0.29,0.41-0.32,0.49-0.62c0.05-0.19,0.24,0.04,0.35,0.15c0.17,0.18,0.19,0.4,0.16,0.62
		c-0.08,0.57,0.01,1.14,0.01,1.71c0,2.89,0,5.79,0,8.68c0,1.29,0.01,2.57,0,3.86c0,0.33,0.04,0.6,0.4,0.73
		c0.14,0.05,0.24,0.17,0.31,0.3c0.09,0.19-0.02,0.31-0.15,0.41c-0.18,0.18-0.48,0.18-0.6,0.44c-0.3,0.25-0.67,0.35-1.01,0.51
		c-2.13,0.98-4.27,1.93-6.4,2.91c-2.32,1.06-4.64,2.12-6.97,3.16c-0.12,0.05-0.25,0.1-0.36,0.18c-0.25-0.12-0.05-0.24,0.01-0.34
		c0.57-0.95,1.15-1.9,1.72-2.85c0.05-0.08,0.08-0.18,0.12-0.26c0.24-0.63,0.64-1.16,1.03-1.7l0,0c0.02-0.03,0.05-0.04,0.08-0.04
		c0.48-0.31,0.61-0.86,0.87-1.31c0.09-0.16,0.15-0.33,0.23-0.5c0.1-0.32,0.36-0.54,0.45-0.87c0.39-0.73,0.82-1.43,1.27-2.13
		c0.14-0.22,0.19-0.51,0.42-0.67l0,0c0.03-0.15,0.08-0.28,0.22-0.37l0,0c0.03-0.06,0.06-0.12,0.11-0.17
		C47.76,43.22,47.89,42.64,48.1,42.12z"/>
	<path class="st3" d="M40.97,54.5c1.37-0.63,2.75-1.27,4.12-1.9c1.13-0.52,2.26-1.04,3.39-1.55c1.09-0.5,2.18-0.99,3.27-1.48
		c1.22-0.55,2.46-1.08,3.65-1.69c0.2-0.18,0.46-0.26,0.7-0.38c0.12-0.06,0.26-0.08,0.33,0.1c0.05,0.19,0.03,0.39,0.03,0.59
		c0,5,0,9.99,0,14.99c0,0.2-0.01,0.39,0.02,0.59c0.02,0.06,0.02,0.13,0,0.19c-0.18,0.14-0.28-0.05-0.41-0.09
		c-0.44-0.31-0.9-0.58-1.38-0.82c-0.32-0.03-0.52-0.26-0.75-0.44c-0.32-0.23-0.65-0.43-1.01-0.59c-0.7-0.27-1.3-0.73-1.94-1.09
		c-0.19-0.11-0.39-0.21-0.55-0.37c-0.07-0.1-0.18-0.14-0.29-0.16c-0.3-0.14-0.61-0.27-0.84-0.52c-0.6-0.41-1.24-0.76-1.86-1.13
		c-0.12-0.07-0.24-0.16-0.36-0.24c-0.11-0.23-0.35-0.29-0.55-0.39c-0.35-0.19-0.63-0.55-1.09-0.49c-0.63-0.28-1.21-0.67-1.79-1.04
		c-0.11-0.07-0.23-0.13-0.31-0.24c-0.14-0.14-0.31-0.22-0.5-0.29c-0.34-0.09-0.61-0.3-0.87-0.52c-0.15-0.24-0.27-0.52-0.64-0.4
		c-0.15-0.03-0.3-0.05-0.38-0.21c-0.01-0.03,0.04-0.07,0.03-0.08C40.71,54.73,40.83,54.61,40.97,54.5z"/>
	<path class="st3" d="M62.31,71.88c-0.09,0.02-0.16,0.07-0.18,0.16c-0.08,0.26-0.21,0.49-0.36,0.72c-0.23,0.37-0.58,0.66-0.76,1.07
		c-0.03,0.08-0.11,0.13-0.2,0.15c-0.26-0.02-0.31,0.24-0.43,0.37c-0.11,0.11-0.2,0.35-0.22,0.55c-0.01,0.07-0.07,0.11-0.11,0.16
		c-0.05,0.05-0.1,0.1-0.15,0.15c-0.39,0.21-0.68,0.47-0.63,0.97c-0.08,0.23-0.26,0.39-0.41,0.57c-0.17,0.22-0.35,0.44-0.52,0.67
		c-0.35,0.4-0.87,0.65-1.02,1.23c-0.07,0.25-0.29,0.44-0.41,0.69c-0.09,0.19-0.25,0.31-0.44,0.39c-0.04-0.01-0.06-0.04-0.08-0.08
		c-0.05-0.14-0.04-0.28-0.05-0.43c0-0.05,0-0.09,0-0.14c0-3.76,0-7.51,0-11.27c0-0.2-0.01-0.39,0.01-0.59
		c0.08-0.27,0.3-0.35,0.54-0.41l0,0c0.06-0.07,0.13-0.11,0.22-0.12c0.4,0,0.73-0.17,1.03-0.41c0.1-0.08,0.21-0.16,0.31-0.25
		c0.17-0.06,0.35-0.1,0.37-0.33c0.02-0.03,0.04-0.05,0.07-0.07l0,0c0.39-0.38,0.89-0.59,1.37-0.81c0.54,0.03,0.86-0.42,1.3-0.61
		c0.03-0.01,0.05-0.06,0.09-0.07c0.23-0.08,0.37-0.33,0.64-0.33c0.13,0,0.04-0.14,0.08-0.21c0.12-0.26,0.39-0.31,0.62-0.41
		c0.38,0.02,0.62-0.24,0.9-0.42c0.16-0.15,0.37-0.22,0.58-0.3c0.09-0.03,0.15-0.07,0.13-0.17c0-0.04,0.02-0.06,0.06-0.06
		c0.28-0.15,0.57-0.3,0.85-0.45c0.21-0.04,0.4-0.1,0.55-0.26c0.18-0.2,0.49-0.13,0.67-0.33c0.07-0.07,0.14-0.14,0.18-0.22
		c0.41-0.25,0.82-0.49,1.23-0.74c0.25-0.04,0.41-0.24,0.61-0.36c0.05-0.05,0.1-0.09,0.15-0.14c0.04-0.04,0.09-0.07,0.14-0.08
		c0.43-0.03,0.79-0.23,1.1-0.5c0.31-0.28,0.73-0.39,1.05-0.65c0.05-0.04,0.12-0.01,0.18,0.01c0.1,0.1,0.08,0.22,0.06,0.34
		c-0.52,0.75-1.2,1.39-1.57,2.24c-0.07,0.17-0.3,0.18-0.31,0.38c-0.35,0.4-0.56,0.92-0.95,1.29c-0.08,0.08-0.16,0.15-0.19,0.26
		c-0.01,0.15-0.09,0.26-0.19,0.36c-0.18,0.22-0.28,0.49-0.55,0.64c-0.09,0.05,0.02,0.28-0.03,0.43c-0.12,0.24-0.23,0.49-0.48,0.64
		c-0.16,0-0.25,0.07-0.35,0.22c-0.28,0.44-0.6,0.85-0.78,1.36c-0.02,0.05-0.05,0.09-0.09,0.12l0,0c-0.17,0.36-0.33,0.72-0.71,0.92
		c-0.04,0-0.08-0.01-0.11,0.01c-0.41,0.35-0.8,0.72-0.99,1.24c-0.04,0.11-0.03,0.22,0,0.33c0,0.04-0.01,0.06-0.04,0.08
		c-0.07,0.08-0.14,0.15-0.21,0.23c-0.22,0.21-0.55,0.34-0.52,0.73c-0.22,0.34-0.45,0.67-0.67,1.01
		C62.59,71.54,62.46,71.72,62.31,71.88z"/>
	<path class="st4" d="M56.44,79.69c0.02,0,0.04,0,0.07,0.01c0.04,0.07,0.02,0.16,0.06,0.23c-0.02,0.12-0.04,0.22-0.19,0.13l0,0.01
		c-0.33-0.35-0.65-0.71-0.82-1.17c-0.34-0.54-0.71-1.05-1.1-1.55c-0.24-0.31-0.51-0.59-0.67-0.95l0,0
		c-0.05-0.05-0.12-0.08-0.13-0.16c-0.45-0.76-1-1.44-1.5-2.16c-0.79-1.13-1.6-2.24-2.4-3.36c-0.56-0.64-1.08-1.32-1.48-2.07
		c0-0.02-0.01-0.04-0.02-0.06c-0.08-0.07-0.15-0.13-0.2-0.23l0,0c-0.1-0.14-0.28-0.23-0.26-0.44c0.07-0.29-0.19-0.42-0.3-0.63
		c-0.12-0.23-0.33-0.4-0.49-0.61c-0.46-0.62-0.75-1.36-1.39-1.84c-0.34-0.39-0.6-0.83-0.88-1.26c-0.06-0.42-0.36-0.69-0.59-1
		c-0.05-0.07-0.11,0.02-0.16-0.02c-0.14-0.22-0.29-0.44-0.43-0.66c-0.06-0.2-0.11-0.4-0.23-0.57c-0.24-0.35-0.21-0.43,0.21-0.5
		c0.05-0.02-0.01,0.02,0.04-0.01c0.18-0.09,0.45-0.1,0.43-0.37c-0.02-0.28-0.3-0.29-0.51-0.32c-0.18-0.03-0.27-0.11-0.34-0.27
		c-0.13-0.27-0.26-0.29-0.44-0.1c-0.08,0.09-0.18,0.16-0.27,0.05c-0.14-0.17-0.44-0.09-0.52-0.36c-0.01-0.05,0.16-0.07,0-0.1
		c-0.15-0.03-0.31-0.41-0.22-0.53c0.07-0.11,0.18-0.07,0.26-0.03c0.23,0.12,0.49,0.14,0.74,0.16c0.38,0.12,0.7,0.33,1,0.59
		c0.82,0.58,1.72,1.03,2.57,1.55c0.17,0.1,0.32,0.24,0.51,0.27c0.09,0.06,0.23,0.06,0.27,0.19c0.37,0.4,0.76,0.77,1.29,0.94
		c0.25,0.14,0.55,0.2,0.67,0.51c0.06,0.15,0.24-0.01,0.36,0.06c0.27,0.16,0.5,0.45,0.77,0.53c0.44,0.12,0.74,0.45,1.16,0.58
		c0.16,0.05,0.27,0.25,0.48,0.16c0.04,0,0.07,0.01,0.09,0.04c0.71,0.43,1.43,0.86,2.14,1.29c0.08,0.05,0.16,0.11,0.23,0.17
		c-0.01,0.05-0.04,0.13-0.01,0.13c0.32,0.1,0.53,0.37,0.81,0.54c0.24,0.15,0.48,0.23,0.76,0.18c0.24,0.09,0.55,0.11,0.57,0.47
		c0.04,0.16,0.03,0.32,0.03,0.48c0,3.71,0,7.43,0,11.14c0,0.13-0.04,0.27,0.04,0.4c0,0.02,0,0.05,0,0.07
		c-0.07,0.05-0.13,0.04-0.18-0.04c-0.06-0.11-0.04-0.24-0.04-0.36c0-3.58,0-7.17,0-10.75c0-0.09-0.04-0.2,0.04-0.27
		c-0.05,0.04-0.04,0.09-0.04,0.13c0,3.73-0.01,7.46,0.01,11.18c0.01,0.04,0.03,0.07,0.06,0.1C56.44,79.36,56.36,79.55,56.44,79.69z"
		/>
	<path class="st5" d="M64.64,62.25c-0.01,0.02-0.02,0.04-0.03,0.06c-0.09,0.19-0.3,0.22-0.46,0.32c-0.1,0.06-0.22,0.09-0.27,0.22
		c-0.31,0.1-0.56,0.36-0.89,0.42c-0.21,0.09-0.42,0.19-0.6,0.35c-0.47,0.35-0.94,0.71-1.53,0.85c0.02-0.13,0.13-0.2,0.22-0.28
		c0.05-0.05,0.16-0.09,0.07-0.16c-0.13-0.11-0.05-0.12,0.02-0.22c0.24-0.37,0.56-0.57,0.99-0.52c0.19,0.02,0.24,0,0.23-0.19
		c0-0.09,0.02-0.19,0.05-0.29c0.02-0.07,0.07-0.14,0.16-0.12c0.13,0.04,0.02,0.14,0.04,0.24c0.12-0.06,0.24-0.13,0.23-0.26
		c-0.01-0.12-0.16-0.14-0.26-0.15c-0.16,0-0.22-0.07-0.21-0.23c0.01-0.1,0.01-0.21,0.14-0.21c0.12-0.01,0.22-0.02,0.3,0.13
		c0.14,0.26,0.61,0.21,0.79-0.03c0.17-0.24,0.43-0.09,0.66-0.07C64.41,62.13,64.52,62.2,64.64,62.25z"/>
	<path class="st6" d="M49.3,59.86c0.32,0.09,0.56,0.34,0.86,0.46c0.1,0.05,0.24,0.04,0.3,0.18c0.82,0.5,1.64,1,2.46,1.5
		c-0.39,0.11-0.72,0.03-1.08-0.21c-0.28-0.19-0.61-0.41-1.01-0.32c-0.06,0.01-0.13-0.05-0.29-0.12c0.19,0,0.27,0,0.36,0
		c-0.06-0.19-0.06-0.19-0.23-0.22c-0.02,0-0.04-0.01-0.05-0.02c-0.19-0.25-0.19-0.25-0.57-0.22c-0.2,0.01-0.59-0.35-0.59-0.56
		c0-0.1-0.22-0.21-0.35-0.18c-0.08,0.02-0.14,0.11-0.25,0.04C48.92,59.96,49.22,60.05,49.3,59.86z"/>
	<path class="st5" d="M65.92,66.79c0.01-0.04,0.01-0.08,0.02-0.12c0.27-0.47,0.58-0.92,0.9-1.36c0.08-0.11,0.15-0.22,0.28-0.28
		c0.18-0.17,0.3-0.39,0.43-0.6c0.1-0.12,0.05-0.37,0.3-0.35c0,0.08-0.02,0.17,0.07,0.23c0.02-0.01,0.05-0.02,0.05-0.03
		c-0.03-0.16,0.05-0.26,0.17-0.32c0.06-0.03,0.09,0.07,0.11,0.12c0.04,0.13,0.09,0.27-0.07,0.35c-0.11,0.05-0.15,0.15-0.18,0.26
		c-0.1,0.45-0.35,0.72-0.8,0.76c-0.17,0.02-0.11,0.06-0.11,0.16c-0.02,0.3,0.08,0.58-0.15,0.89c-0.21,0.28-0.41,0.3-0.69,0.29
		C66.14,66.8,66.03,66.8,65.92,66.79z"/>
	<path class="st7" d="M60.05,75.06c0.02-0.05,0.04-0.1,0.06-0.15c0.18-0.35,0.38-0.68,0.68-0.95c0.4-0.51,0.79-1.03,1.12-1.59
		c0.07-0.11,0.15-0.21,0.23-0.32c0.08,0.2,0.16,0.39,0.25,0.6c-0.15,0-0.12-0.19-0.26-0.19c0.02,0.24-0.05,0.47,0.09,0.7
		c0.08,0.13,0.04,0.3-0.15,0.26c-0.14-0.03-0.28,0.27-0.41-0.01c-0.02-0.03-0.02,0.19-0.13,0.21c-0.15-0.08,0.04-0.21-0.06-0.29
		c-0.37,0.17-0.01,0.34,0.01,0.51c-0.11,0.04-0.22,0.06-0.31,0.11c-0.14,0.07-0.22,0.17-0.06,0.3c0.19,0.15,0.06,0.26-0.01,0.43
		C60.88,75.25,60.4,74.95,60.05,75.06z"/>
	<path class="st8" d="M70.28,55.9c-0.05,0.29-0.37,0.28-0.53,0.43c-0.05,0.05-0.14,0.05-0.2,0.09c-0.07,0.05-0.02,0.11,0.02,0.16
		c0.02,0.03,0.07,0.04,0.08-0.01c0.02-0.09,0.15-0.14,0.14-0.12c-0.07,0.23,0.34,0.11,0.23,0.33c-0.06,0.11-0.08,0.27-0.25,0.28
		c-0.15,0.01-0.29,0-0.44,0c-0.14,0-0.26-0.01-0.31,0.18c-0.05,0.2-0.25,0.09-0.38,0.12c-0.15,0.03-0.27-0.07-0.42-0.11
		c0.09,0.33,0.02,0.39-0.52,0.48c-0.02-0.02-0.03-0.04-0.03-0.07c0-0.06-0.05-0.08-0.09-0.11c-0.03-0.02-0.04-0.04-0.05-0.07
		c0.01-0.07,0.06-0.11,0.11-0.15c0.03-0.02,0.05-0.04,0.08-0.06c0.6-0.37,1.23-0.69,1.82-1.1c0.03-0.02,0.06-0.04,0.09-0.05
		C69.85,56.06,70.02,55.86,70.28,55.9z"/>
	<path class="st9" d="M63.14,39.39c-0.26-0.6-0.69-1.09-0.96-1.68c0.05-0.04,0.1-0.05,0.15,0c0.08,0.13,0.04,0.38,0.34,0.26
		c0.13-0.05-0.07,0.19,0.16,0.22c0.06,0-0.04-0.25,0.11-0.21c0.11,0.03,0.26,0.18,0.18,0.27c-0.1,0.12,0.4,0.46-0.14,0.39
		c-0.06-0.01-0.04,0.08-0.01,0.11c0.04,0.06,0.1,0.1,0.15,0.16c0.17,0.25,0.31,0.36,0.35-0.07c0.17,0.07,0.14,0.21,0.1,0.28
		c-0.17,0.38-0.09,0.64,0.27,0.88c0.09,0.06,0.37,0.26,0.29,0.53c-0.01,0.02,0.01,0.05,0.02,0.06c0.4,0.31,0.4,0.31,0.17,0.65
		c-0.24-0.08-0.28-0.32-0.4-0.5c-0.15-0.18-0.26-0.39-0.33-0.62l0,0C63.37,39.93,63.23,39.68,63.14,39.39z"/>
	<path class="st10" d="M60.24,64.88c-0.46,0.25-0.91,0.51-1.37,0.76c0-0.3,0-0.61-0.01-0.91c-0.01-0.2,0.05-0.29,0.27-0.29
		c0.33,0.01,0.66,0.02,0.99,0c0.2-0.01,0.28,0.11,0.38,0.23C60.51,64.86,60.34,64.83,60.24,64.88z"/>
	<path class="st11" d="M71.83,54.28c-0.01-0.07-0.01-0.16-0.05-0.21c-0.33-0.37-0.5-0.75-0.71-1.29c-0.13-0.32-0.36-0.6-0.64-0.83
		c-0.07-0.05-0.1-0.11-0.11-0.17c-0.1-0.38-0.33-0.67-0.56-0.97c-0.19-0.25-0.31-0.57-0.28-0.91c0.04,0.04,0.08,0.07,0.12,0.11
		c0.23,0.2,0.38,0.45,0.45,0.74c0.37,0.68,0.76,1.33,1.19,1.97c0.2,0.21,0.39,0.44,0.44,0.74c0.08,0.22,0.22,0.41,0.36,0.6
		c0.15,0.14,0.3,0.27,0.25,0.51c-0.04,0.04-0.09,0.05-0.15,0.04C72.02,54.52,71.88,54.45,71.83,54.28z"/>
	<path class="st12" d="M65.21,67.71c0.24-0.31,0.48-0.61,0.72-0.92c-0.05,0.33,0.03,0.66-0.06,0.99c-0.1,0.36-0.44,0.7-0.81,0.73
		c-0.15,0.01-0.25,0.08-0.37,0.13c-0.03-0.02-0.04-0.06-0.05-0.09C64.74,68.21,64.9,67.91,65.21,67.71z"/>
	<path class="st13" d="M57.1,66.74c-0.07,0.03-0.15,0.05-0.22,0.08c0.13-0.11,0.1-0.33,0.27-0.42c0.1-0.06-0.01-0.12-0.05-0.17
		c-0.2-0.24-0.07-0.21,0.15-0.33c0.5-0.28,1-0.23,1.52-0.25c0.04,0,0.07,0,0.11-0.01c0,0.02-0.01,0.05-0.01,0.07
		c-0.14,0.22-0.39,0.27-0.59,0.4C57.89,66.33,57.56,66.64,57.1,66.74z"/>
	<path class="st13" d="M56.38,67.09c-0.18-0.16-0.39-0.26-0.6-0.36c-0.23-0.04-0.43-0.11-0.52-0.35c0.03-0.19-0.06-0.44,0.26-0.46
		c0.32-0.02,0.46,0.14,0.39,0.45c-0.04,0.19,0.06,0.13,0.18,0.15c0.26,0.04,0.47-0.19,0.72-0.09c0.14,0.1-0.06,0.28,0.08,0.38
		c-0.15,0.1-0.3,0.19-0.45,0.29C56.41,67.13,56.39,67.13,56.38,67.09z"/>
	<path class="st14" d="M43.33,56.33c0.59,0.34,1.18,0.68,1.76,1.02c0.11,0.07,0.23,0.12,0.35,0.18c0.1,0.05,0.26,0.03,0.25,0.21
		c-0.09,0.01-0.16,0.04-0.22,0.12c-0.07,0.1-0.18,0.06-0.23,0c-0.04-0.06-0.01-0.19-0.14-0.16c-0.15,0.03,0.03,0.18-0.09,0.25
		c-0.14-0.07-0.3-0.13-0.29-0.35c0.01-0.23-0.08-0.31-0.32-0.23c-0.12,0.04-0.26,0.03-0.37-0.02c-0.01-0.17,0.21-0.05,0.18-0.19
		c-0.02-0.1-0.13-0.16-0.22-0.17c-0.28-0.03-0.48-0.11-0.5-0.44C43.5,56.46,43.33,56.44,43.33,56.33z"/>
	<path class="st15" d="M45.6,64.82c0.34-0.02,0.41,0.3,0.58,0.48c0.39,0.4,0.53,0.98,0.91,1.37c0.28,0.29,0.46,0.64,0.73,0.93
		c0.16,0.17,0.1,0.22-0.02,0.31c-0.21,0.02-0.19-0.2-0.28-0.3l0,0c-0.07-0.06-0.09-0.16-0.14-0.23c-0.53-0.78-1.05-1.58-1.65-2.31
		C45.67,65,45.61,64.93,45.6,64.82z"/>
	<path class="st16" d="M48.26,68.63c0.53,0.66,1.01,1.36,1.48,2.07c-0.06,0.01-0.12,0.02-0.18,0.03c-0.02-0.41-0.32-0.4-0.61-0.41
		c-0.09,0-0.11-0.1-0.1-0.17c0.06-0.24-0.02-0.34-0.25-0.46c-0.28-0.14-0.49-0.4-0.29-0.78C48.35,68.85,48.28,68.73,48.26,68.63z"/>
	<path class="st6" d="M46.87,44.05c-0.53,0.96-1.07,1.9-1.7,2.8c-0.03-0.14,0.05-0.26,0.15-0.37c-0.16-0.06-0.2,0.17-0.35,0.09
		c0.04-0.3,0.35-0.41,0.52-0.56c0.27-0.25,0.49-0.47,0.45-0.84c-0.02-0.18,0.1-0.23,0.19-0.26c0.18-0.06,0.26-0.21,0.34-0.35
		c0.07-0.12,0.08-0.25-0.09-0.33c-0.11-0.05-0.21-0.14-0.16-0.29c0.02-0.06,0.07-0.11,0.14-0.11c0.2,0,0.1,0.19,0.17,0.27
		c0.02,0.03,0.04,0.06,0.06,0.1C46.67,44.13,46.68,43.92,46.87,44.05z"/>
	<path class="st17" d="M67.71,57.67c0,0.02,0,0.05,0,0.07c-0.05,0.05-0.09,0.12-0.16,0.15c-0.18,0.07-0.31,0.09-0.32,0.39
		c-0.01,0.35-0.41,0.24-0.65,0.25c-0.16,0.01-0.33-0.08-0.5-0.12c-0.01-0.02-0.01-0.03-0.02-0.05c0.42-0.41,0.9-0.72,1.48-0.85
		l0.02,0.02C67.61,57.59,67.76,57.53,67.71,57.67z"/>
	<path class="st11" d="M69.47,61.5c0.01-0.08,0.01-0.22,0.04-0.24c0.3-0.1,0.32-0.39,0.44-0.61c0.11-0.2,0.27-0.37,0.38-0.56
		c0.21-0.38,0.59-0.62,0.77-1.02c0.05-0.1,0.14-0.2,0.27-0.22c0.06,0.01,0.09,0.05,0.1,0.11c-0.12,0.41-0.42,0.7-0.7,0.99
		c-0.21,0.25-0.43,0.51-0.58,0.81c-0.06,0.11-0.09,0.24-0.21,0.3c-0.1,0.11-0.2,0.23-0.3,0.34C69.58,61.35,69.59,61.56,69.47,61.5z"
		/>
	<path class="st18" d="M65.64,43.45c-0.1-0.13-0.19-0.26-0.29-0.38c-0.11-0.06-0.19-0.14-0.16-0.28c-0.09-0.17-0.18-0.35-0.27-0.52
		c0.15-0.26,0.38-0.3,0.63-0.19c0.2,0.08,0.37,0.63,0.29,0.86c-0.1-0.02-0.04-0.25-0.14-0.16c-0.08,0.06-0.3,0.23-0.15,0.34
		C65.72,43.23,65.62,43.34,65.64,43.45z"/>
	<path class="st9" d="M62.33,37.71c-0.05,0-0.1,0-0.15,0c-0.24-0.37-0.49-0.74-0.73-1.1c-0.05-0.08-0.14-0.15-0.11-0.26
		c0.01-0.01,0.02-0.02,0.03-0.04c0.06,0.05,0.12,0.11,0.19,0.16c0.04-0.09,0.07-0.18,0.14-0.25c0.08-0.09,0.2-0.06,0.31-0.04
		c0.07,0.01,0.09,0.07,0.09,0.14c-0.01,0.12-0.12,0.25-0.19,0.24c-0.26-0.05-0.19,0.06-0.11,0.19c0.02,0.03,0.04,0.07,0.03,0.09
		c-0.05,0.17,0.07,0.36,0.16,0.36c0.18,0,0.25-0.19,0.28-0.37C62.5,37.43,62.5,37.43,62.33,37.71z"/>
	<path class="st14" d="M69.55,58.92c-0.02,0.08-0.03,0.16-0.05,0.24c0.31-0.14,0.38-0.25,0.33-0.56c0.27,0.26,0.56-0.15,0.82,0.09
		c-0.17,0.3-0.49,0.39-0.75,0.57c-0.19,0.12-0.37,0.33-0.65,0.25c0-0.08-0.04-0.16-0.12-0.16c-0.21,0-0.23-0.17-0.21-0.28
		c0.04-0.16,0.19-0.25,0.37-0.22C69.39,58.87,69.47,58.9,69.55,58.92z"/>
	<path class="st19" d="M60.19,61.87c-0.47,0.26-0.93,0.51-1.4,0.77c-0.02-0.03-0.03-0.06-0.02-0.1c0.02-0.07,0.06-0.12,0.11-0.17
		c0.44-0.29,0.83-0.64,1.32-0.88c0.34-0.16,0.68-0.35,1-0.56c0.16-0.1,0.3-0.14,0.47-0.04c0.05,0.09-0.02,0.13-0.09,0.16
		c-0.19,0.06-0.36,0.16-0.5,0.29C60.77,61.5,60.54,61.79,60.19,61.87z"/>
	<path class="st20" d="M49.57,39.69c-0.09,0.1-0.18,0.21-0.27,0.31c0.03-0.28,0.32-0.52,0.15-0.84c-0.02-0.03,0.02-0.06,0.07-0.05
		c0.34,0.09,0.35-0.23,0.48-0.39c0.08-0.11,0.11-0.28-0.1-0.35c-0.11-0.04-0.15-0.12-0.16-0.22c-0.02-0.11-0.18-0.22-0.03-0.32
		c0.12-0.08,0.3-0.08,0.42,0c0.13,0.09,0.03,0.22-0.01,0.33c-0.02,0.04-0.03,0.09-0.02,0.15c0.12-0.11,0.25-0.18,0.39-0.22
		c0.03,0.05,0.05,0.1-0.03,0.13c-0.04,0.07-0.09,0.14-0.13,0.21C50.17,38.91,49.88,39.31,49.57,39.69z"/>
	<path class="st17" d="M61.58,61.05c0.04-0.04,0.08-0.09,0.11-0.13c0.05-0.12,0.18-0.16,0.27-0.23c0.54-0.28,1.03-0.68,1.61-0.9
		c0.15-0.01,0.29-0.17,0.46-0.06c0,0.35-0.35,0.29-0.52,0.44c-0.24,0.08-0.49,0.1-0.63,0.39c-0.05,0.1-0.25,0.15-0.39,0.18
		c-0.35,0.07-0.69,0.13-0.68,0.6c0,0.06-0.01,0.14-0.09,0.13c-0.12-0.02-0.07-0.08-0.03-0.15C61.78,61.18,61.75,61.08,61.58,61.05z"
		/>
	<path class="st21" d="M51.8,64.38c-0.15,0.06-0.25,0.01-0.4-0.05c-0.45-0.16-0.77-0.53-1.26-0.64c-0.29-0.06-0.51-0.38-0.77-0.58
		c-0.04-0.08,0.01-0.13,0.08-0.17c0.21-0.03,0.3,0.15,0.44,0.25c0.04,0.03,0.09,0.05,0.13,0.08c0.13,0.07,0.29,0.08,0.38,0.22l0,0
		c0.07,0.05,0.17,0.07,0.23,0.14c0.1,0.11,0.24,0.16,0.37,0.22C51.3,63.96,51.55,64.16,51.8,64.38z"/>
	<path class="st22" d="M70.79,59.95c0.23-0.34,0.45-0.68,0.68-1.02c0.04-0.22,0.13-0.39,0.36-0.45c-0.05,0.21-0.01,0.45-0.28,0.57
		c-0.14,0.07,0,0.19,0.04,0.28c0.13,0.26,0.14,0.49-0.11,0.68c-0.11,0.09-0.22,0.12-0.28-0.06c-0.12-0.32-0.22-0.13-0.33,0l0,0
		C70.84,59.95,70.81,59.95,70.79,59.95z"/>
	<path class="st23" d="M70.06,50.76c-0.17-0.23-0.34-0.47-0.45-0.74c0.2-0.29,0.46-0.38,0.65-0.22c0.17,0.14,0.14,0.44-0.08,0.7
		c0.23,0.01,0.28,0.15,0.27,0.34c-0.13,0.01-0.13-0.12-0.2-0.17C70.12,50.58,70.07,50.64,70.06,50.76z"/>
	<path class="st24" d="M56.07,63.86c0.12,0.05,0.25,0.09,0.37,0.14c0.08-0.17,0.24-0.23,0.4-0.3c0.26-0.11,0.47-0.29,0.71-0.44
		c0.13-0.05,0.24-0.12,0.35-0.19c0.3-0.12,0.53-0.35,0.81-0.49c0.03-0.01,0.07,0,0.09,0.02c0,0,0,0.04,0,0.04
		c0.08,0.53,0.07,0.54-0.42,0.53c-0.16,0-0.32,0.05-0.41,0.13c-0.34,0.3-0.8,0.38-1.14,0.65C56.53,64.18,56.29,64.13,56.07,63.86z"
		/>
	<path class="st11" d="M69.25,59.51c0.49-0.23,0.94-0.52,1.4-0.81c0.27-0.15,0.54-0.29,0.81-0.44c0.16,0.14,0.13,0.24-0.08,0.29
		c-0.45,0.13-0.81,0.41-1.19,0.68c-0.36,0.25-0.7,0.54-1.19,0.49C69,59.55,69.16,59.57,69.25,59.51L69.25,59.51z"/>
	<path class="st20" d="M49,40.51c-0.16,0.34-0.33,0.68-0.58,0.96c-0.04-0.03-0.12-0.07-0.11-0.08c0.12-0.28-0.12-0.53-0.05-0.8
		c0.03-0.11,0-0.23,0.13-0.28c0.14-0.05,0.23,0.08,0.26,0.15C48.75,40.73,48.87,40.58,49,40.51z"/>
	<path class="st25" d="M60.24,64.88c0.09-0.07,0.17-0.14,0.26-0.21c0.14-0.03,0.26-0.1,0.36-0.2c0.51-0.28,1.02-0.57,1.53-0.85
		c0.1,0.21,0,0.23-0.19,0.32c-0.45,0.21-0.86,0.5-1.27,0.78C60.71,64.86,60.49,64.91,60.24,64.88z"/>
	<path class="st26" d="M67.63,47.21c-0.29-0.39-0.4-0.9-0.8-1.22c-0.24-0.19-0.15-0.46-0.15-0.71c0.3,0.14,0.41,0.42,0.49,0.71
		c0.02,0.11,0.06,0.21,0.15,0.28c0.19,0.09,0.23,0.28,0.3,0.45c0.02,0.07-0.01,0.16,0.09,0.19c0.07,0.03,0.1,0.08,0.09,0.15
		C67.77,47.13,67.69,47.16,67.63,47.21z"/>
	<path class="st27" d="M44.72,47.72c-0.04,0.33-0.16,0.63-0.33,0.91c-0.14,0.24-0.2,0.51-0.41,0.72c-0.12,0.12-0.2,0.23-0.38,0.2
		c-0.06-0.17,0.05-0.26,0.16-0.35C44.09,48.71,44.4,48.21,44.72,47.72z"/>
	<path class="st28" d="M55.25,66.38c0.17,0.12,0.35,0.23,0.52,0.35c-0.17,0.14-0.34,0.08-0.51,0c-0.24-0.12-0.47-0.26-0.66-0.44
		c-0.15-0.14-0.28-0.32-0.55-0.15c0.02-0.19,0.12-0.24,0.19-0.31C54.54,66.1,54.92,66.19,55.25,66.38z"/>
	<path class="st14" d="M66.37,44.64c-0.29-0.37-0.52-0.77-0.73-1.19c0.19-0.24,0.43-0.25,0.73-0.18c-0.16,0.17-0.5,0.03-0.49,0.31
		c0.01,0.24,0.16,0.44,0.34,0.6v0c0.07,0.08,0.15,0.1,0.2,0c0.05-0.08,0.07-0.26,0.2-0.15c0.08,0.08,0.11,0.28-0.07,0.36
		C66.45,44.45,66.39,44.52,66.37,44.64z"/>
	<path class="st29" d="M69.47,61.5c0.1,0.03,0.05-0.29,0.22-0.1c-0.2,0.3-0.39,0.61-0.59,0.91c-0.06,0.11-0.06,0.26-0.22,0.29l0,0
		c-0.11,0.17-0.14,0.39-0.36,0.46c-0.09,0-0.17-0.04-0.23-0.1C68.78,62.55,69.01,61.93,69.47,61.5z"/>
	<path class="st12" d="M47.52,67.62c0.16,0.04,0.14,0.24,0.28,0.3c0.07,0.15,0.21,0.26,0.24,0.43c-0.4,0.19-0.66,0.12-0.73-0.36
		c-0.01-0.05-0.12-0.08-0.2-0.13C47.23,67.71,47.53,67.93,47.52,67.62z"/>
	<path class="st30" d="M48.1,42.12c0.11,0.02,0.2,0.07,0.12,0.19c-0.15,0.21-0.41,0.35-0.32,0.69c0.01,0.04-0.2,0.34-0.37,0.38
		c-0.15,0.04-0.17,0.2-0.32,0.21c-0.08-0.27,0.17-0.41,0.24-0.62c0.01-0.03,0.03-0.06,0.05-0.08c0.06-0.1,0.14-0.18,0.23-0.25
		C47.86,42.48,47.93,42.26,48.1,42.12z"/>
	<path class="st31" d="M64.02,59.73c-0.17,0-0.29,0.16-0.47,0.14c-0.01-0.08,0.03-0.13,0.09-0.18c0.29-0.14,0.52-0.37,0.8-0.52
		c0.14-0.04,0.28-0.13,0.43-0.12c0.01,0.01,0.03,0.02,0.04,0.03c0.15,0.22-0.13,0.3-0.16,0.47c-0.05,0.33-0.24,0.11-0.37,0.07
		C64.24,59.58,64.14,59.69,64.02,59.73z"/>
	<path class="st32" d="M60.19,61.87c0.27-0.22,0.57-0.38,0.88-0.52c-0.02,0.23-0.31,0.16-0.38,0.35c0.13,0.06,0.19-0.08,0.34-0.12
		c-0.17,0.25,0.06,0.31,0.21,0.48C60.83,62.11,60.5,62.08,60.19,61.87z"/>
	<path class="st33" d="M47,61.58c-0.07-0.07-0.15-0.14-0.22-0.22c0.35,0.12,0.73,0.15,1.01,0.48c0.19,0.22,0.52,0.32,0.79,0.48
		c0.07,0.04,0.21,0.05,0.13,0.2c-0.04,0.05-0.09,0.06-0.15,0.05c-0.5-0.29-0.99-0.6-1.49-0.89C47.01,61.66,46.99,61.63,47,61.58z"/>
	<path class="st6" d="M47.73,42.64c-0.05,0.12-0.09,0.23-0.21,0.3c-0.02-0.01-0.03-0.03-0.05-0.04c0.01,0.02,0.03,0.03,0.05,0.04
		c-0.04,0.25-0.27,0.41-0.32,0.66c-0.04,0.03-0.08,0.06-0.12,0.09c-0.02-0.07-0.04-0.14-0.13-0.15c-0.09-0.01-0.16-0.04-0.16-0.15
		c0-0.11,0.08-0.13,0.16-0.15c0.16-0.03,0.19-0.18,0.24-0.3C47.3,42.68,47.48,42.6,47.73,42.64z"/>
	<path class="st34" d="M45.7,57.74c-0.08-0.07-0.17-0.14-0.25-0.21c0.34,0.01,0.63,0.06,0.88,0.35c0.08,0.1,0.3,0.24,0.5,0.28
		c0.17,0.03,0.26,0.15,0.25,0.33C46.62,58.24,46.16,57.99,45.7,57.74z"/>
	<path class="st35" d="M49.88,63.2c-0.15-0.07-0.3-0.14-0.44-0.21c-0.11,0.01-0.16-0.04-0.16-0.15c0.13-0.05,0.16-0.16,0.17-0.29
		c0-0.13,0.09-0.16,0.2-0.15c0.11,0,0.28,0.02,0.22,0.14c-0.05,0.11,0.35,0.32-0.07,0.32C49.82,62.96,49.85,63.08,49.88,63.2z"/>
	<path class="st20" d="M49.3,40c-0.04,0.21-0.17,0.36-0.3,0.52c-0.03-0.13-0.07-0.25-0.12-0.43c-0.02,0.13-0.04,0.21-0.06,0.33
		c-0.16-0.24-0.18-0.47-0.06-0.66c0.07-0.11,0.26-0.09,0.37-0.02c0.21,0.12-0.08,0.23-0.03,0.37C49.17,40.06,49.24,40.03,49.3,40z"
		/>
	<path class="st36" d="M67.78,47.06c-0.02-0.05-0.05-0.1-0.07-0.16c0.14-0.21,0.35-0.06,0.55-0.13c-0.17,0.37,0.04,0.7,0.03,1.04
		c-0.04-0.04-0.09-0.07-0.13-0.11C67.93,47.55,67.83,47.32,67.78,47.06z"/>
	<path class="st14" d="M66.67,45.15c-0.14-0.15-0.24-0.32-0.3-0.51c0.42-0.14,0.75,0.13,0.72,0.58c-0.12,0.02-0.16-0.36-0.35-0.07
		C66.72,45.18,66.7,45.18,66.67,45.15z"/>
	<path class="st37" d="M66.89,60.98c0.04,0.09,0.09,0.16-0.03,0.25c-0.33,0.23-0.77,0.26-1.06,0.58c-0.04,0.05-0.21-0.01-0.31-0.01
		C65.94,61.5,66.39,61.2,66.89,60.98z"/>
	<path class="st38" d="M63.95,40.73c0.12,0.17,0.24,0.35,0.36,0.52c0,0.16,0.14,0.25,0.21,0.37c0.06,0.03,0.06,0.08,0.04,0.13
		c-0.2,0.05-0.32-0.02-0.42-0.21c-0.07-0.14,0.06-0.43-0.27-0.42c-0.01,0-0.19-0.26,0-0.39C63.9,40.7,63.93,40.7,63.95,40.73z"/>
	<path class="st39" d="M59.82,75.41c-0.2,0.25-0.4,0.5-0.6,0.75c-0.11-0.28,0.06-0.67,0.41-0.9c0.05-0.03,0.14-0.35,0.27-0.04
		C59.87,75.27,59.84,75.34,59.82,75.41z"/>
	<path class="st40" d="M49.28,62.83c0.05,0.05,0.11,0.1,0.16,0.15c-0.02,0.05-0.05,0.09-0.07,0.14c-0.21,0.01-0.45,0.16-0.52-0.21
		c-0.05-0.25-0.41-0.15-0.51-0.38c0.07-0.05,0.15,0.02,0.23-0.01c0.05,0,0.1,0,0.14,0C48.88,62.65,49.06,62.77,49.28,62.83z"/>
	<path class="st41" d="M43.97,62.54c0.07,0,0.09-0.17,0.2-0.04c0.27,0.31,0.62,0.58,0.55,1.07C44.47,63.22,44.22,62.88,43.97,62.54z
		"/>
	<path class="st12" d="M68.52,63.06c0.12-0.15,0.24-0.3,0.36-0.45c-0.1,0.4-0.01,0.81-0.11,1.22c-0.06-0.23-0.1-0.46-0.35-0.57
		C68.37,63.16,68.41,63.09,68.52,63.06z"/>
	<path class="st42" d="M71.68,53.47c-0.18-0.23-0.32-0.48-0.44-0.74c0.17,0,0.33,0.14,0.51-0.02c0.06-0.06,0.09,0.06,0.08,0.1
		C71.76,53.03,71.79,53.27,71.68,53.47z"/>
	<path class="st43" d="M67.85,64.08c-0.1,0.12-0.2,0.24-0.3,0.35c-0.06-0.34,0.06-0.59,0.37-0.74c0.15-0.07-0.01-0.34,0.23-0.35
		c0.08-0.05,0.11,0.02,0.14,0.07C68.14,63.64,68,63.86,67.85,64.08z"/>
	<path class="st44" d="M70.28,55.9c-0.21,0.1-0.43,0.21-0.64,0.31c-0.04-0.27,0.29-0.65,0.61-0.69c0.11-0.02,0.22-0.01,0.32,0.02
		c0.04,0.02,0.07,0.04,0.09,0.08C70.54,55.71,70.41,55.81,70.28,55.9z"/>
	<path class="st45" d="M71.62,55.03c-0.19,0.22-0.45,0.33-0.71,0.45c-0.11,0.03-0.17-0.02-0.2-0.12c0.12-0.36,0.49-0.39,0.75-0.55
		c0.11-0.07,0.14,0.08,0.16,0.17C71.62,54.99,71.62,55.01,71.62,55.03z"/>
	<path class="st31" d="M65.58,58.71c-0.12,0.2,0.27,0.02,0.17,0.25c-0.09,0.19-0.26-0.08-0.34,0.12c-0.14,0.36-0.32-0.09-0.49,0
		c0,0-0.01-0.01-0.01-0.01c0.11-0.28,0.35-0.38,0.63-0.4C65.55,58.68,65.56,58.7,65.58,58.71z"/>
	<path class="st46" d="M63.36,70.34c-0.19-0.21-0.19-0.39,0.12-0.46c0.12-0.03,0.07-0.15,0.12-0.19c0.07-0.06,0.12-0.32,0.28-0.07
		C63.73,69.87,63.56,70.11,63.36,70.34z"/>
	<path class="st9" d="M61.23,36.22c-0.15-0.29-0.31-0.57-0.46-0.86c0.18,0.01,0.28,0.08,0.32,0.28c0.05,0.23,0.36,0.36,0.29,0.66
		c0,0-0.02,0.02-0.02,0.02C61.27,36.33,61.25,36.27,61.23,36.22z"/>
	<path class="st47" d="M66.67,45.15c0.03,0,0.05,0,0.08,0c0.26,0.11,0.29,0.45,0.55,0.58c0.12,0.06-0.09,0.16-0.13,0.25
		c-0.16-0.24-0.33-0.47-0.49-0.71C66.68,45.23,66.68,45.19,66.67,45.15z"/>
	<path class="st48" d="M59.66,33.59c0.03,0.03,0.06,0.05,0.09,0.08c0.1,0.19,0.2,0.38,0.3,0.57C59.66,34.23,59.51,33.99,59.66,33.59
		z"/>
	<path class="st49" d="M53.93,62.6c0.27,0.12,0.52,0.26,0.75,0.44c-0.08,0.09-0.51,0.06-0.52-0.04
		C54.15,62.82,53.98,62.74,53.93,62.6z"/>
	<path class="st12" d="M68.89,62.61c0.05-0.11,0.11-0.22,0.22-0.29c0.37,0.19,0.37,0.19,0.32,0.48c-0.18-0.03-0.11-0.17-0.14-0.29
		C69.16,62.54,69.06,62.76,68.89,62.61z"/>
	<path class="st50" d="M51.8,64.38c-0.3-0.13-0.54-0.36-0.81-0.52c0.1,0,0.21-0.17,0.31,0.04c0.06,0.13,0.21,0.2,0.35,0.24
		c0.13,0.03,0.22,0.09,0.23,0.24C51.84,64.38,51.82,64.38,51.8,64.38z"/>
	<path class="st47" d="M67.62,46.71c-0.14-0.12-0.2-0.3-0.3-0.45c0.08-0.01,0.16-0.16,0.2-0.09C67.62,46.33,67.72,46.51,67.62,46.71
		z"/>
	<path class="st51" d="M64.67,68.55c0,0.03,0.01,0.06,0.01,0.1c-0.07,0.19-0.07,0.43-0.36,0.45c-0.01-0.01-0.02-0.03-0.04-0.04
		C64.31,68.8,64.41,68.62,64.67,68.55z"/>
	<path class="st50" d="M50.62,63.64c-0.1-0.01-0.18-0.06-0.23-0.14c0.18-0.05,0.27-0.39,0.57-0.13
		C50.71,63.33,50.63,63.45,50.62,63.64z"/>
	<path class="st52" d="M68.74,59.87c-0.17,0.18-0.28,0.47-0.61,0.36C68.31,60.08,68.5,59.94,68.74,59.87z"/>
	<path class="st53" d="M60.41,34.77c-0.07-0.06-0.12-0.13-0.14-0.23c0.06-0.1,0.12-0.2,0.19-0.3C60.53,34.42,60.58,34.6,60.41,34.77
		z"/>
	<path class="st54" d="M68.28,63.41c-0.05-0.02-0.09-0.05-0.14-0.07c0.13-0.09,0.17-0.22,0.15-0.37c0.09,0,0.18-0.01,0.23,0.09
		c-0.03,0.07-0.06,0.13-0.09,0.2C68.38,63.31,68.33,63.36,68.28,63.41z"/>
	<path class="st14" d="M69.25,59.51c-0.08,0.07-0.16,0.14-0.25,0.21c-0.04,0-0.08,0.01-0.12,0.01
		C68.83,59.37,69.05,59.45,69.25,59.51z"/>
	<path class="st31" d="M66.09,58.41c-0.11,0.21-0.3,0.27-0.51,0.3c0,0-0.02-0.02-0.02-0.02c-0.01-0.08,0.02-0.13,0.07-0.19
		c0.13-0.09,0.26-0.17,0.44-0.11L66.09,58.41z"/>
	<path class="st55" d="M62.31,71.88c0.08-0.21,0.22-0.37,0.37-0.53C62.71,71.63,62.49,71.74,62.31,71.88z"/>
	<path class="st22" d="M70.87,59.95c0.08,0.03,0.17,0.05,0.23,0.1c0.08,0.07,0.1,0.21,0,0.24c-0.2,0.05,0.05-0.13-0.05-0.14
		C70.93,60.13,70.84,60.1,70.87,59.95L70.87,59.95z"/>
	<path class="st56" d="M69.1,49.2c-0.13-0.15-0.25-0.31-0.3-0.51C68.98,48.81,69.1,48.97,69.1,49.2z"/>
	<path class="st17" d="M63.5,60.12c0.09,0.17,0.12,0.28-0.02,0.33c-0.03,0.01-0.11-0.01-0.12-0.04
		C63.3,60.28,63.51,60.29,63.5,60.12z"/>
	<path class="st50" d="M50.39,63.5c-0.15-0.03-0.28-0.1-0.38-0.22C50.18,63.27,50.38,63.23,50.39,63.5z"/>
	<path class="st6" d="M47.09,43.68c-0.03,0.15-0.13,0.26-0.22,0.37C46.8,43.84,46.83,43.69,47.09,43.68z"/>
	<path class="st44" d="M70.72,55.31c0.04,0.08,0.1,0.13,0.18,0.16c-0.06,0.08-0.14,0.13-0.24,0.14c0,0-0.02-0.02-0.02-0.02
		C70.58,55.48,70.53,55.36,70.72,55.31z"/>
	<path class="st53" d="M60.63,35.13c-0.1-0.1-0.19-0.22-0.22-0.37C60.53,34.86,60.73,34.9,60.63,35.13z"/>
	<path class="st12" d="M47.38,67.39c0.09,0.05,0.13,0.13,0.14,0.23c-0.07,0.02-0.14,0.03-0.24,0.06
		C47.32,67.57,47.35,67.48,47.38,67.39z"/>
	<path class="st17" d="M63.68,60.31c0.08-0.14,0.17-0.18,0.31-0.19C63.93,60.26,63.85,60.32,63.68,60.31z"/>
	<path class="st17" d="M62.98,60.88c-0.14,0.01-0.22-0.02-0.3-0.09C62.79,60.77,62.89,60.72,62.98,60.88z"/>
	<path class="st14" d="M66.23,44.19c-0.03-0.11-0.06-0.22-0.09-0.32C66.26,43.95,66.38,44.04,66.23,44.19L66.23,44.19z"/>
	<path class="st57" d="M64.57,41.75c-0.01-0.04-0.03-0.09-0.04-0.13c0.17,0.06,0.21,0.21,0.23,0.37
		C64.69,41.91,64.63,41.83,64.57,41.75z"/>
	<path class="st24" d="M69.99,61.06c0.04-0.12,0.11-0.22,0.21-0.3C70.22,60.92,70.18,61.04,69.99,61.06z"/>
	<path class="st56" d="M68.8,48.69c-0.08-0.05-0.13-0.13-0.14-0.23C68.82,48.47,68.89,48.53,68.8,48.69z"/>
	<path class="st58" d="M64.08,69.38c0-0.02,0-0.05,0-0.07c-0.01-0.15,0.07-0.22,0.21-0.23c0.01,0.01,0.02,0.01,0.03,0.02
		C64.3,69.23,64.22,69.33,64.08,69.38z"/>
	<path class="st6" d="M46.62,43.75c-0.04-0.02-0.08-0.03-0.09-0.06c-0.02-0.06,0.03-0.08,0.08-0.08c0.02,0,0.06,0.04,0.06,0.06
		C46.68,43.7,46.64,43.72,46.62,43.75z"/>
	<path class="st14" d="M69.62,58.76c0.02,0.02,0.05,0.05,0.05,0.08c0.01,0.06-0.04,0.08-0.09,0.08c-0.07,0.01-0.03-0.05-0.03-0.06
		C69.55,58.81,69.54,58.76,69.62,58.76z"/>
	<path class="st59" d="M50.45,38.21c0.01-0.04,0.02-0.09,0.03-0.13c0.02,0,0.04-0.01,0.06-0.02c0.02,0.07,0.12,0.15,0.06,0.22
		C50.53,38.36,50.51,38.21,50.45,38.21z"/>
	<path class="st13" d="M56.88,66.28c0.04,0.03,0.07,0.04,0.09,0.06c-0.03,0.03-0.06,0.06-0.1,0.08c-0.01,0-0.08,0.06-0.06-0.02
		C56.82,66.36,56.85,66.33,56.88,66.28z"/>
	<path class="st16" d="M48.04,68.34c0.09,0.05,0.16,0.13,0.2,0.23C48.11,68.56,48.04,68.48,48.04,68.34z"/>
	<path class="st60" d="M70.72,55.31c-0.11,0.07-0.06,0.19-0.08,0.29c-0.49-0.06-0.82,0.17-1,0.61c0,0,0,0,0,0
		c-0.43,0.18-0.84,0.43-1.23,0.67c-0.24,0.15-0.57,0.19-0.7,0.49l0,0c-0.51,0.14-0.98,0.35-1.38,0.7c-0.12,0.11-0.28,0.15-0.42,0.21
		c-0.13,0.06-0.21,0.16-0.25,0.3c-0.03,0.03-0.06,0.07-0.09,0.1c-0.24,0.1-0.45,0.22-0.65,0.38c-0.15,0.03-0.26,0.19-0.43,0.15
		c-0.22-0.03-0.35,0.22-0.51,0.21c-0.28-0.03-0.27,0.19-0.37,0.32c-0.44,0.27-0.98,0.34-1.35,0.73c-0.09,0.09-0.2,0.06-0.31,0.08
		c-0.06,0.02-0.07,0.11-0.12,0.16c0.05,0,0.1,0.01,0.13,0.05c-0.07,0.09-0.16,0.14-0.26,0.16c-0.2-0.02-0.37,0.07-0.55,0.14
		c-0.43,0.15-0.77,0.46-1.18,0.65c-0.38,0.18-0.75,0.48-1.09,0.76c-0.07,0.05-0.14-0.18-0.22,0.01c-0.03,0.07-0.09,0.14-0.17,0.18
		c-0.18,0.01-0.35,0.08-0.53,0.12c-0.27,0.06-0.36-0.04-0.24-0.28c0.06-0.14,0.09-0.24-0.01-0.36c-0.12-0.14-0.11-0.32-0.11-0.49
		c0-4.01,0-8.01,0-12.02c0-0.53,0.12-0.64,0.65-0.66c0.22-0.01,0.44,0,0.66-0.07c0.36-0.11,0.65,0.19,0.99,0.15
		c0.28-0.01,0.51,0.15,0.74,0.26c0.4,0.18,0.84,0.3,1.19,0.58c0.02,0,0.05,0,0.07,0c0.36,0.18,0.76,0.31,1.11,0.52l0,0
		c0.17,0.07,0.35,0.15,0.52,0.22c0.07,0.05,0.15,0.1,0.22,0.14c0.1-0.04,0.15,0.03,0.22,0.08c0.13,0.07,0.25,0.14,0.38,0.21
		c0.27-0.03,0.46,0.17,0.69,0.25c0.21,0.07,0.43,0.16,0.63,0.27l0,0c0.27,0.14,0.6,0.19,0.81,0.44c0.21,0.11,0.42,0.23,0.66,0.29
		c0.25-0.04,0.43,0.14,0.64,0.23c0.6,0.28,1.23,0.51,1.81,0.84c0.75,0.29,1.46,0.67,2.19,0.99c0.07,0.03,0.13,0.07,0.15,0.15
		c-0.06,0.19-0.16,0.36-0.3,0.51c-0.08,0-0.02-0.27-0.24-0.08C71.19,55.08,70.94,55.19,70.72,55.31z"/>
	<path class="st61" d="M61.81,49.86c-0.49-0.21-0.98-0.42-1.46-0.63c-0.12-0.05-0.23-0.13-0.37-0.11c-0.72-0.24-1.38-0.61-2.08-0.9
		c-0.42-0.17-0.83-0.37-1.24-0.56c-0.1-0.05-0.21-0.08-0.27-0.19c-0.02-0.04-0.04-0.08-0.05-0.12c-0.02-0.17-0.02-0.34-0.02-0.52
		c0-5.81,0-11.63,0-17.44c0-0.26,0-0.52,0.1-0.76c0-0.02,0-0.05,0.01-0.07c0.11,0.22,0.08,0.44,0.07,0.67
		c-0.01,0.22,0.06,0.36,0.36,0.3c-0.49,0.13-0.36,0.49-0.36,0.8c0,5.52,0,11.05,0,16.57c0,0.47,0.04,0.48,0.5,0.58
		c0.28,0.06,0.52,0.27,0.8,0.35c0.34,0.1,0.66,0.32,0.96,0.49c0.44,0.24,0.92,0.34,1.34,0.6c0.19,0.12,0.35,0.27,0.62,0.24
		c0.12-0.01,0.22,0.2,0.38,0.25c0.12,0.03,0.23,0.13,0.34,0.13C61.68,49.54,61.79,49.65,61.81,49.86z"/>
	<path class="st62" d="M69.55,53.39c-0.81-0.37-1.62-0.74-2.43-1.1c0-0.11,0.07-0.12,0.15-0.08c0.74,0.34,1.48,0.68,2.22,1.02
		c0.03,0.01,0.04,0.06,0.06,0.09c0.03,0.02,0.03,0.03,0.03,0.05C69.56,53.39,69.56,53.39,69.55,53.39z"/>
	<path class="st63" d="M69.55,53.39c0-0.02,0-0.05,0-0.07c0.31,0.05,0.61,0.16,0.87,0.32c0.45,0.27,0.93,0.45,1.41,0.64
		c0.1,0.09,0.27,0.12,0.29,0.29c-0.07-0.02-0.15-0.05-0.22-0.07C71.12,54.13,70.33,53.76,69.55,53.39z"/>
	<path class="st64" d="M63.14,39.39c0.17,0.23,0.35,0.46,0.44,0.74C63.16,40.1,63.13,40.05,63.14,39.39z"/>
	<path class="st65" d="M67.78,47.06c0.17,0.19,0.26,0.42,0.38,0.65c-0.28,0.08-0.31-0.18-0.44-0.32c-0.04-0.04-0.02-0.14-0.09-0.18
		C67.63,47.12,67.68,47.07,67.78,47.06z"/>
	<path class="st66" d="M66.45,52c-0.27-0.15-0.6-0.19-0.81-0.44c0.38-0.08,0.61,0.29,0.96,0.31c0.04,0,0.05,0.07,0.02,0.08
		C66.57,51.98,66.51,51.99,66.45,52z"/>
	<path class="st67" d="M65.64,51.56c-0.48-0.07-0.87-0.38-1.32-0.53c0.05-0.07,0.13-0.08,0.19-0.04
		C64.88,51.22,65.33,51.25,65.64,51.56z"/>
	<path class="st68" d="M62.99,50.38c-0.38-0.16-0.79-0.24-1.11-0.52C62.31,49.92,62.66,50.12,62.99,50.38z"/>
	<path class="st69" d="M65.2,42.79c0.05,0.09,0.11,0.19,0.16,0.28c-0.05,0.08-0.1,0.2-0.2,0.06C65.07,43.02,65,42.89,65.2,42.79z"/>
	<path class="st64" d="M63.95,40.73c-0.03,0-0.05,0-0.08,0c-0.19-0.15-0.32-0.33-0.29-0.6C63.76,40.3,63.82,40.53,63.95,40.73z"/>
	<path class="st70" d="M61.23,36.22c0.04,0.03,0.08,0.07,0.12,0.1c0.03,0.09,0.06,0.19,0.09,0.28
		C61.17,36.59,61.22,36.4,61.23,36.22z"/>
	<path class="st71" d="M63.51,50.6c-0.2,0-0.37-0.09-0.52-0.22C63.19,50.38,63.36,50.47,63.51,50.6z"/>
	<path class="st72" d="M63.94,50.83c-0.07-0.03-0.14-0.05-0.22-0.08C63.85,50.63,63.91,50.69,63.94,50.83z"/>
	<path class="st73" d="M55.18,31.15c-0.07-0.32,0.11-0.76,0.38-0.89c0.2-0.1,0.07-0.33,0.22-0.46c0.21-0.18,0.32-0.43,0.36-0.71
		c0.12,0.13,0.1,0.3,0.1,0.45c0,5.74,0,11.48,0,17.21c0,0.16,0.03,0.32-0.1,0.45c-0.13-0.19-0.29-0.35-0.51-0.39
		c-0.3-0.05-0.3-0.23-0.3-0.47c0.01-4.43,0-8.87,0-13.3c0-0.14,0.09-0.33-0.12-0.42c-0.06-0.03-0.05-0.07-0.01-0.12
		c0.26-0.31,0.05-0.69,0.14-1.02C55.39,31.29,55,31.37,55.18,31.15z"/>
	<path class="st74" d="M56.43,28.65c0,6.22,0,12.44,0,18.67c0,0.06-0.01,0.12-0.01,0.18c-0.02,0.03-0.04,0.03-0.06,0.01
		c-0.32,0.12-0.64,0.25-0.95,0.37c0.05-0.29,0.36-0.22,0.51-0.37c0.28-0.09,0.26-0.3,0.26-0.53c0-5.62,0-11.24,0-16.85
		c0-0.15-0.03-0.29,0.02-0.44c0.08-0.01,0.11,0.03,0.12,0.1c0.01,0.1,0,0.2,0,0.29c0,5.57,0,11.14,0,16.71c0,0.12,0.02,0.24,0,0.29
		c0-3.97,0-8.02,0-12.07c0-1.64,0-3.29,0-4.93c0-0.4-0.12-0.8-0.04-1.2c0-0.02,0-0.05,0-0.07C56.34,28.75,56.39,28.7,56.43,28.65z"
		/>
	<path class="st75" d="M56.22,29.68c0,5.78,0,11.56,0,17.34c0,0.22,0.06,0.48-0.29,0.49c0.03-0.13,0.23-0.14,0.22-0.29
		c0-6.04,0-12.08,0-18.12c0.02,0,0.05,0,0.07,0C56.33,29.29,56.32,29.48,56.22,29.68z"/>
	<path class="st59" d="M49.57,39.69c0.22-0.44,0.46-0.86,0.75-1.26c0.08,0.57-0.26,0.93-0.64,1.27
		C49.65,39.71,49.6,39.69,49.57,39.69z"/>
	<path class="st76" d="M56.36,47.51c0.02,0,0.04,0,0.06-0.01c0,0,0.02,0.01,0.02,0.01c0.12,0.15,0.11,0.32,0.11,0.49
		c0,5.05,0,10.1,0,15.14c0,0.17-0.02,0.34-0.03,0.51c-0.01,0.08-0.04,0.14-0.1,0.19c-0.13-0.15-0.07-0.33-0.07-0.49
		C56.36,58.08,56.36,52.79,56.36,47.51z"/>
	<path class="st77" d="M56.22,63.27c-0.11-0.1-0.07-0.23-0.07-0.34c0-4.91,0-9.81,0-14.72c0-0.08,0.01-0.17,0.01-0.25
		c0-0.01,0.02-0.02,0.03-0.02c0.01,0,0.02,0.01,0.03,0.01c0.06,0.11,0.03,0.24,0.03,0.36c0,4.87,0,9.73,0,14.6
		C56.25,63.03,56.28,63.15,56.22,63.27z"/>
	<path class="st78" d="M56.22,63.27c0-5.11,0-10.21,0-15.32c0.12,0.11,0.07,0.25,0.07,0.38c0,4.85,0,9.71,0,14.56
		C56.29,63.01,56.34,63.16,56.22,63.27z"/>
	<path class="st79" d="M56.43,63.86c0-0.05,0.01-0.1,0.01-0.15c0.09-0.41,0.19-0.48,0.56-0.31c0.12,0.05,0.06-0.04,0.09-0.05
		c0.23-0.13,0.36-0.14,0.52-0.01c-0.38,0.24-0.75,0.49-1.17,0.67C56.44,63.95,56.43,63.9,56.43,63.86z"/>
	<path class="st80" d="M50.46,60.5c-0.1-0.06-0.2-0.12-0.3-0.18C50.3,60.32,50.43,60.33,50.46,60.5z"/>
	<path class="st81" d="M56.38,67.09c0.02,0,0.04,0,0.06,0.01c0,4.02,0,8.05,0,12.07c-0.13-0.12-0.07-0.28-0.07-0.42
		c0-3.73,0-7.45,0-11.18C56.37,67.42,56.26,67.25,56.38,67.09z"/>
	<path class="st82" d="M64.29,69.07c-0.07,0.08-0.14,0.16-0.21,0.23c-0.16-0.18-0.08-0.35,0.02-0.52c0.09-0.16,0.17-0.32,0.26-0.47
		c0.17-0.29,0.53-0.41,0.68-0.73c0.04-0.08,0.12,0.06,0.17,0.13c-0.18,0.28-0.36,0.56-0.54,0.84C64.51,68.7,64.39,68.88,64.29,69.07
		z"/>
	<path class="st83" d="M67.12,65.04c-0.37,0.56-0.74,1.13-1.18,1.64c0.08-0.39,0.29-0.72,0.51-1.03c0.1-0.13,0.24-0.27,0.28-0.41
		C66.82,65,66.96,65.04,67.12,65.04z"/>
	<path class="st84" d="M57.1,66.74c0.37-0.25,0.75-0.49,1.16-0.68c0.06-0.03,0.11-0.04,0.16,0.01c-0.13,0.31-0.4,0.48-0.69,0.56
		C57.54,66.69,57.35,66.98,57.1,66.74z"/>
	<path class="st85" d="M60.78,73.95c-0.19,0.34-0.43,0.65-0.68,0.95c-0.1-0.27,0.28-0.43,0.17-0.7c0.27,0.05,0.23-0.2,0.33-0.33
		C60.67,73.78,60.74,73.87,60.78,73.95z"/>
	<path class="st86" d="M62.99,63.27c0.28-0.18,0.52-0.41,0.87-0.45c0.03-0.04,0.06-0.04,0.09,0C63.65,63.03,63.41,63.35,62.99,63.27
		z"/>
	<path class="st87" d="M63.95,62.82c-0.03,0-0.06,0-0.09,0c0.18-0.28,0.49-0.36,0.75-0.51c0.22,0.13,0.16,0.22-0.05,0.25
		C64.32,62.59,64.13,62.69,63.95,62.82z"/>
	<path class="st88" d="M58.42,66.07c-0.05,0-0.11,0-0.16-0.01c0.18-0.15,0.38-0.27,0.61-0.36C58.91,66.06,58.69,66.09,58.42,66.07z"
		/>
	<path class="st83" d="M66.2,65.5c-0.01,0.11-0.06,0.12-0.11,0.12c-0.11,0-0.15-0.06-0.15-0.16c0-0.05,0.03-0.11,0.08-0.09
		C66.1,65.4,66.15,65.47,66.2,65.5z"/>
	<path class="st89" d="M42.66,59.95c0-0.07,0-0.15,0-0.22c0.02-0.11-0.05-0.3,0.14-0.28c0.18,0.02,0.39,0.14,0.43,0.33
		c0.04,0.21,0.11,0.24,0.31,0.23c0.15-0.01,0.32,0.1,0.46,0.19c0.21,0.15,0.17,0.41-0.06,0.53c-0.13,0.07-0.26,0.11-0.4,0.17
		c0.04-0.25-0.09-0.31-0.32-0.3c-0.17,0.01-0.39,0.06-0.42-0.22C42.77,60.25,42.68,60.11,42.66,59.95z"/>
	<path class="st75" d="M56.21,79.25c-0.09,0.07-0.11,0-0.11-0.06c0.08-3.79,0.01-7.58,0.03-11.38c0-0.14-0.06-0.3,0.07-0.42
		c0.06,0.1,0.03,0.22,0.03,0.32c0,3.74,0,7.47,0,11.21C56.25,79.04,56.28,79.15,56.21,79.25z"/>
	<path class="st90" d="M56.21,79.25c0-3.95,0-7.91,0-11.86c0.13,0.12,0.07,0.28,0.07,0.42c0,3.81,0,7.63,0,11.44c0,0,0,0,0,0
		C56.26,79.25,56.24,79.25,56.21,79.25z"/>
	<path class="st91" d="M48.56,62.52c-0.07,0.13-0.15,0.04-0.23,0.01c-0.28,0-0.53-0.07-0.67-0.34c-0.02-0.04-0.06-0.08-0.1-0.09
		c-0.3-0.03-0.39-0.35-0.64-0.45c-0.05-0.02,0.03-0.06,0.07-0.07C47.5,61.91,48.1,62.1,48.56,62.52z"/>
	<path class="st92" d="M65.65,58.58c-0.02-0.2,0.08-0.32,0.26-0.41c0.39-0.21,0.77-0.42,1.13-0.67c0.21-0.14,0.43-0.13,0.66-0.13
		c-0.05,0.05-0.1,0.09-0.15,0.14c-0.51,0.26-1.01,0.55-1.48,0.87C65.93,58.45,65.79,58.52,65.65,58.58z"/>
	<path class="st93" d="M67.7,57.37c0.03-0.13,0.03-0.25,0.2-0.34c0.51-0.25,0.99-0.54,1.48-0.81c0.07-0.04,0.16-0.01,0.25-0.02
		C69.03,56.66,68.36,57.01,67.7,57.37z"/>
	<path class="st94" d="M67.71,57.67c-0.04-0.05-0.09-0.09-0.13-0.14c0.09,0.01,0.2-0.06,0.24,0.07
		C67.82,57.61,67.74,57.65,67.71,57.67z"/>
	<path class="st73" d="M56.22,29.68c0-0.2,0-0.39,0-0.59c0-0.08-0.01-0.17,0.07-0.22c0.11,0.1,0.07,0.23,0.07,0.35
		c0,5.94,0,11.88,0,17.82c0,0.08-0.01,0.17-0.02,0.29c-0.09-0.17-0.05-0.31-0.05-0.44c0-5.58,0-11.17,0-16.75
		C56.29,29.98,56.35,29.82,56.22,29.68z"/>
	<path class="st95" d="M58.57,62.53c-0.09-0.2,0.25-0.17,0.11-0.4c0.22,0.1,0.04,0.28,0.19,0.33c-0.02,0.05-0.05,0.1-0.07,0.15
		c-0.02,0.01-0.05,0.01-0.07,0.02c-0.05-0.01-0.09-0.02-0.13-0.05C58.59,62.56,58.58,62.54,58.57,62.53z"/>
	<path class="st96" d="M61.95,60.76c-0.08,0.01-0.16,0.01-0.24,0.02c0.02-0.35,0.39-0.26,0.55-0.46c0.18-0.22,0.43-0.32,0.73-0.35
		c0.21-0.02,0.32-0.34,0.59-0.25c0.04-0.03,0.07-0.02,0.1,0.02c-0.04,0.04-0.08,0.08-0.13,0.12C63.02,60.17,62.49,60.46,61.95,60.76
		z"/>
	<path class="st97" d="M57.61,63.33c-0.09-0.1-0.16-0.04-0.26,0c-0.16,0.08-0.3,0.07-0.5,0.04c-0.25-0.05-0.31,0.17-0.41,0.33
		c0-5.4,0-10.79,0-16.19c0.66,0.18,1.25,0.53,1.87,0.8c0.57,0.24,1.13,0.48,1.66,0.81c-0.23-0.04-0.49,0.09-0.69-0.17
		c-0.06-0.08-0.29,0.01-0.37,0.04c-0.29,0.1-0.58,0.04-0.87,0.06c-0.25,0.02-0.37,0.1-0.37,0.38c0.01,4.12,0,8.24,0.01,12.36
		c0,0.09-0.04,0.23,0.06,0.27c0.47,0.19,0.16,0.34-0.01,0.5c-0.02,0.02-0.03,0.06-0.08,0.16c0.34-0.05,0.62-0.19,0.91-0.19l0,0
		c0.11,0.2-0.08,0.18-0.17,0.23c-0.18,0.1-0.4,0.15-0.47,0.38C57.85,63.23,57.73,63.29,57.61,63.33z"/>
	<path class="st98" d="M57.94,63.14c-0.18-0.19,0.03-0.24,0.12-0.32c0.15-0.14,0.42-0.05,0.51-0.28c0.07,0,0.12,0.02,0.15,0.09
		C58.5,62.85,58.24,63.02,57.94,63.14z"/>
	<path class="st99" d="M63.68,59.75c-0.03-0.01-0.07-0.01-0.1-0.02c0-0.18,0.02-0.32,0.27-0.33c0.22,0,0.34-0.4,0.63-0.18
		C64.24,59.44,63.98,59.62,63.68,59.75z"/>
	<path class="st94" d="M47.53,42.94c-0.06,0.01-0.15,0.07-0.15-0.06c0-0.05,0-0.14,0.08-0.12C47.55,42.78,47.51,42.88,47.53,42.94
		C47.53,42.94,47.53,42.94,47.53,42.94z"/>
</g>
<path class="st100 fleche-bas" d="M139.92,64.57c1.82,1.2,3.66,2.37,5.47,3.6c1.59,1.09,1.93,2.65,0.98,4.13c-1,1.56-2.35,1.78-4.11,0.63
	c-4.4-2.88-8.78-5.8-13.2-8.65c-1.42-0.91-2.35-1.95-1.88-3.75c0.5-1.89,1.96-2.1,3.61-2.08c16.31,0.26,32.62,0.49,48.93,0.74
	c2.45,0.04,3.8,1.1,3.71,2.9c-0.09,1.76-1.39,2.71-3.76,2.68c-12.57-0.18-25.14-0.37-37.7-0.56c-0.66-0.01-1.31-0.02-1.97-0.03
	C139.96,64.32,139.94,64.45,139.92,64.57z"/>
<path class="st0 fleche-haut" d="M171.37,39.98c-2.03-1.26-4.1-2.47-6.08-3.8c-1.4-0.95-1.6-2.65-0.59-4.07c0.98-1.39,2.31-1.59,3.67-0.72
	c4.83,3.07,9.63,6.19,14.41,9.32c1.27,0.83,1.61,2.08,1.17,3.51c-0.44,1.4-1.48,1.94-2.91,1.92c-16.77-0.26-33.54-0.51-50.31-0.75
	c-1.53-0.02-2.59-0.7-2.88-2.21c-0.28-1.45,0.17-2.63,1.75-3.09c0.71-0.29,1.45-0.13,2.18-0.12c12.6,0.18,25.21,0.38,37.81,0.53
	C170.17,40.5,171.06,41.08,171.37,39.98z"/>
</svg>
