<?xml version="1.0" encoding="utf-8"?>
<!-- Generator: Adobe Illustrator 24.1.2, SVG Export Plug-In . SVG Version: 6.00 Build 0)  -->
<svg version="1.1" id="Calque_1" xmlns="http://www.w3.org/2000/svg" xmlns:xlink="http://www.w3.org/1999/xlink" x="0px" y="0px"
	 viewBox="0 0 312 106" style="enable-background:new 0 0 312 106;" xml:space="preserve">
<style type="text/css">
	.st0{fill:#FFFFFF;}
	.st1{fill:#7DC798;}
	.st2{fill: none;stroke: #000000;stroke-width: 3;stroke-linecap: round;stroke-linejoin: round;}
	.st3{fill:#FEFEFE;}
	.st4{fill:#5492F6;}
	.st5{fill:#4760BF;}
	.st6{fill:#5693F6;}
	.st7{fill:#123FA7;}
	.st8{fill:#F1E2E2;}
	.st9{fill:#EFE0E2;}
	.st10{fill:#5693F5;}
	.st11{fill:#D73434;}
	.st12{fill:#8D0E0E;}
	.st13{fill:#F7E3E3;}
	.st14{fill:#F8ECEC;}
	.st15{fill:#F6E0E0;}
	.st16{fill:#D65656;}
	.st17{fill:#C82B2B;}
	.st18{fill:#C83636;}
	.st19{fill:#C52626;}
	.st20{fill:#CE4040;}
	.st21{fill:#BB1A1A;}
	.st22{fill:#D4444B;}
	.st23{fill:#5562BF;}
	.st24{fill:#274EBD;}
	.st25{fill:#6575C9;}
	.st26{fill:#9DA7D2;}
	.st27{fill:#DA3636;}
	.st28{fill:#C91B1B;}
	.st29{fill:#DC4343;}
	.st30{fill:#DD2F2F;}
	.st31{fill:#E35151;}
	.st32{fill:#E04040;}
	.st33{fill:#E35252;}
	.st100{opacity:0.68;fill:#FFFFFF;}
	.fleche-bas {
		animation: fleche-bas 2s ease-in-out infinite;
		transform: translate(0px, 0px);
		opacity:1;
		transform-origin: 50% 50%;
	}
	
	@keyframes fleche-bas {
		0%,100% { 
			transform: translate(0px, 0px);
		}
		50% { 
			transform: translate(0px, 0px);
			opacity:1;
		}
		100% { 
			transform: translate(-15px, 0px);
			opacity:0;
		}
	}
	
	.fleche-haut {
		animation: fleche-haut 2s ease-in-out infinite;
		transform: translate(0px, 0px);
		opacity:1;
		transform-origin: 50% 50%;
	}
	
	@keyframes fleche-haut {
		0%,100% { 
			transform: translate(0px, 0px);
		}
		50% { 
			transform: translate(0px, 0px);
			opacity:1;
		}
		100% { 
			transform: translate(15px, 0px);
			opacity:0;
		}
	}
</style>
<circle class="st0" cx="254.27" cy="53.42" r="49.5"/>
<circle class="st0" cx="56.8" cy="53.61" r="49.5"/>
<g>
	<path class="st1" d="M236.1,77.6h48.4l0,0c-13.4,0-24.2-5.4-24.2-12.1l0,0l0,0C260.3,72.2,249.5,77.6,236.1,77.6L236.1,77.6    M284.5,77.6L284.5,77.6l-24.2-48.4l0,0l-24.2,48.4"/>
	<path class="st2" d="M272.4,77.6L272.4,77.6H224l0,0l0,0l24.2-48.4l0,0L272.4,77.6"/>
</g>

<path class="st100 fleche-bas" d="M139.92,64.57c1.82,1.2,3.66,2.37,5.47,3.6c1.59,1.09,1.93,2.65,0.98,4.13c-1,1.56-2.35,1.78-4.11,0.63
	c-4.4-2.88-8.78-5.8-13.2-8.65c-1.42-0.91-2.35-1.95-1.88-3.75c0.5-1.89,1.96-2.1,3.61-2.08c16.31,0.26,32.62,0.49,48.93,0.74
	c2.45,0.04,3.8,1.1,3.71,2.9c-0.09,1.76-1.39,2.71-3.76,2.68c-12.57-0.18-25.14-0.37-37.7-0.56c-0.66-0.01-1.31-0.02-1.97-0.03
	C139.96,64.32,139.94,64.45,139.92,64.57z"/>
<path class="st0 fleche-haut" d="M171.37,39.98c-2.03-1.26-4.1-2.47-6.08-3.8c-1.4-0.95-1.6-2.65-0.59-4.07c0.98-1.39,2.31-1.59,3.67-0.72
	c4.83,3.07,9.63,6.19,14.41,9.32c1.27,0.83,1.61,2.08,1.17,3.51c-0.44,1.4-1.48,1.94-2.91,1.92c-16.77-0.26-33.54-0.51-50.31-0.75
	c-1.53-0.02-2.59-0.7-2.88-2.21c-0.28-1.45,0.17-2.63,1.75-3.09c0.71-0.29,1.45-0.13,2.18-0.12c12.6,0.18,25.21,0.38,37.81,0.53
	C170.17,40.5,171.06,41.08,171.37,39.98z"/>
<g>
	<g>
		<path class="st3" d="M30.6,53.2c0-7.9,0.1-15.9-0.1-23.8c0-2.1,0.5-2.4,2.4-2.4c15.7,0.1,31.5,0.1,47.2,0c2.1,0,2.4,0.5,2.4,2.4
			c-0.1,15.7-0.1,31.5,0,47.2c0,2.1-0.5,2.4-2.4,2.4c-15.7-0.1-31.5-0.1-47.2,0c-2.1,0-2.4-0.5-2.4-2.4C30.6,68.8,30.6,61,30.6,53.2
			z"/>
		<path class="st4" d="M65.4,36.5c4.5,2.7,6.9,6.8,8.4,11.7c-0.1,0.2-0.3,0.4-0.4,0.5c-4.2,2.1-8.9,1.9-13.4,3
			c-2.7,0.3-5.5,0.5-8.1,1.3c-1.7,0.5-3.6,0.8-4.6-1.5c-1.6-2-1.7-4.2-1.4-6.6c2.6-5,10.4-9.1,16.6-8.6
			C63.5,36.4,64.4,36.8,65.4,36.5z"/>
		<path class="st5" d="M47.3,51.5c1.1,0.5,2.1,1.4,3.5,0.7c3-1.5,6.2-1.4,9.4-1.4c0.3,0.3,0.4,0.6,0.5,1c-0.1,0.7-0.2,1.7-0.7,1.8
			c-3.3,1.1-2,3-1,4.9c0.3,1.1,0.2,2.9-0.9,2.5c-2.7-1-2.7,2-4.3,2.4c-3.3-1-5.7,3.1-9.1,1.7c-0.4-0.2-0.7-0.5-0.9-0.8
			c-0.8-1.6,0.7-2.5,1.1-3.8c0.5-1.7,0.3-3.3-0.8-4.8c-0.8-1-0.3-2,0.1-3C44.8,50.9,46.4,52.1,47.3,51.5z"/>
		<path class="st6" d="M44.1,63.4c0,0.3,0,0.6,0,0.9c0.3,0.3,0.5,0.6,0.7,0.9c0.1,0.4,0.2,0.8,0.2,1.1c0,0.4,0,0.8-0.1,1.2
			c-0.3,0.7-0.5,1.6-1.6,1.1c-7.6-6.8-9.9-14.2-6.6-22.1c2.3,1.6,3.8,3.7,5.2,6c1,1.6,1.6,0.7,2.5,0.2c0.8,0.9-0.5,1.6-0.2,2.4
			C45.2,57.9,43.7,60.7,44.1,63.4z"/>
		<path class="st7" d="M65.4,36.5c-2.4,1.5-5.2,0.6-7.7,1.4c-4.5,1.5-8.5,3.6-11.8,7c-0.6-0.6-1.2-1.2-1.8-1.8
			c-0.3-1.4,0.8-2.1,1.7-2.7c2-1.4,2.9-3.4,3.4-5.6C54.9,32.9,60.3,33.3,65.4,36.5z"/>
		<path class="st8" d="M44.8,73.9c-2.4-0.6-1.2-2.4-1.3-3.7c2.8-1.6,5.9-0.6,8.8-0.9c4.9,0,9.6-1.7,14.5-2.1
			c2.5-0.3,4.9-0.9,7.3-1.7c1.2-0.2,2.3-0.1,3.3,0.7c0,1.2-0.1,2.3-0.1,3.5c-0.4,0.2-0.8,0.4-1.3,0.4C65.6,71.9,55.3,73.4,44.8,73.9
			z"/>
		<path class="st8" d="M77.4,66.2c-1.2,0-2.3,0-3.5,0c-2.8,0.8-5.6,1.1-8.4,1.7c-6.4,1-12.7,2-19.2,1.9c-0.9,0.3-1.9,0.3-2.8,0
			c-0.1-0.4-0.1-0.7-0.2-1.1c0.7-0.2,0.8-0.8,0.8-1.4c2.3-2.6,5.3-1.1,8-1.5c4.1-0.4,8.1-1.2,12.1-1.7c2.8-0.3,5.5-0.8,8.3-1.4
			c1.7-0.3,3.4-0.4,4.8,0.9C77.3,64.5,77.4,65.3,77.4,66.2z"/>
		<path class="st9" d="M44.2,65.5c0-0.4,0-0.8,0-1.2c3.6,0.9,6.6-2.4,10.2-1.5c2-0.4,4.1-0.7,6.1-1.4c3.7-0.9,7.6-1,11.3-2.1
			c1.9-0.3,3.9-0.6,5.6,0.9c0,0.9,0,1.7,0,2.6c-2.4-0.1-4.7,0.3-7,0.8c-2.7,0.3-5.4,1-8.2,1.3C56.1,65.7,50.2,67.1,44.2,65.5z"/>
		<path class="st10" d="M49.2,34.8c1,2.3,0.1,3.9-1.6,5.4c-1.1,1-2.8,1.3-3.4,2.9c-2.1-0.5-4,1.5-6.7,0.7
			C40.2,39,43.5,35.4,49.2,34.8z"/>
		<path class="st11" d="M44.8,73.9c0-0.7-0.3-1.5,0.9-1.5c10.1,0.3,20-1.9,29.9-3.5c0.3,0,0.7,0.4,1,0.6c-1.1,2.2-3.1,2.5-5.2,3
			c-7,1.5-14.1,1.3-21.2,2.1C48.3,74.5,46.4,75.6,44.8,73.9z"/>
		<path class="st12" d="M50.1,74.6c5.2-1.6,10.7-1.4,16-2.4c3.5-0.7,7.2-0.9,10.4-2.6c0.2,0,0.5,0.1,0.7,0.2c0.3,4.1-3,3.8-5.4,4.2
			C64.7,75.2,57.4,74.8,50.1,74.6z"/>
		<path class="st13" d="M77.4,56.9c0,0.8,0,1.6,0,2.4c-2.4,0.1-4.7,0.2-7,0.8c-3.4,0.5-6.7,1.9-10.2,1c-0.4-0.7-0.3-1.4,0.1-2.1
			C65.8,57,71.3,54.8,77.4,56.9z"/>
		<path class="st14" d="M77.3,50c0,0.9,0,1.7,0,2.6c-2.5,0.5-5.1,0.9-7.7,1.2c-3.1,0.4-6.2,1.8-9.4,0.7c-0.4-0.7-0.4-1.3,0-2
			c2.4-2.4,5.8-1.4,8.6-2.3c1.1-0.4,2.4-0.5,3.6-0.8C74.1,49.2,75.8,48.8,77.3,50z"/>
		<path class="st15" d="M77.3,53.4c0,0.8,0,1.7,0,2.5c-5.5,0.3-10.8,1.7-16.3,2.3c-0.5-0.1-0.8-0.4-1.1-0.8
			c-0.2-0.7-0.1-1.4,0.4-1.9c3.8-1.8,8.1-1.5,12.1-2.5C74.2,52.5,75.8,52.4,77.3,53.4z"/>
		<path class="st16" d="M60.4,57.6c4.3-0.7,8.6-1.4,13-2.2c1.4-0.3,2.8-0.6,4,0.5c0,0.4,0,0.7,0,1.1c-5.8,0-11.3,1.5-17,2.3
			C59.9,58.7,59.9,58.1,60.4,57.6z"/>
		<path class="st17" d="M77.3,53.4c-1.7,0-3.3,0.1-5,0.1c-1,0.2-2.1,1.1-2.5-0.7c2.5,0.3,5-2.2,7.5-0.2
			C77.3,52.9,77.3,53.1,77.3,53.4z"/>
		<path class="st18" d="M70.6,62.9c2.2,0,4.4-2,6.7-0.2c0,0.3,0,0.6,0,0.9c-1.6,0-3.3,0.1-4.9,0.1C71.6,63.9,70.6,64.6,70.6,62.9z"
			/>
		<path class="st19" d="M70.6,59.6c2.2,0,4.4-2,6.7-0.2c0,0.3,0,0.5,0,0.8c-1.9,0-3.8,0.1-5.7,0.1C70.8,60.7,70.5,60.4,70.6,59.6z"
			/>
		<path class="st20" d="M43.5,69.8c0.7-0.1,1.4-0.2,2.1-0.3c2.4,0,5-1.4,7.1,0.8c-3.1,0.2-6.1,0.9-9.2-0.1
			C43.5,70.2,43.5,69.8,43.5,69.8z"/>
		<path class="st21" d="M77.3,50c-1.7,0-3.4,0-5.1,0.1c-0.5-1.6,1.2-1,1.7-1.6c0,0-0.1-0.2-0.1-0.2C75,48.7,77.2,47.3,77.3,50z"/>
		<path class="st22" d="M73.9,48.4c-0.6,0.5-1.1,1.1-1.7,1.6c-3.9,1.4-8,1.5-12,2.3c-0.1-0.2-0.2-0.4-0.3-0.5c0.1-0.3,0.1-0.7,0.2-1
			C64.8,50,69.4,49.2,73.9,48.4z"/>
		<path class="st23" d="M60.4,57.6c0,0.5,0,1.1-0.1,1.6c0,0.6,0.1,1.2,0.1,1.9c0.4,0.5,0.3,1-0.1,1.5c-2,0.3-3.9,2-6,0.3
			c0.9-1-0.3-4.5,3.3-2.5c1.3,0.7,0.7-1.2,1-2c0.1-1.2,0.7-1.3,1.7-0.8L60.4,57.6z"/>
		<path class="st24" d="M44.1,63.4c-1.3-2.8-1.2-5.5,0-8.3C47,56.7,47,60.2,44.1,63.4z"/>
		<path class="st25" d="M60.3,57.6c-0.6,0.3-1.1,0.5-1.7,0.8c-2.6-2.4-2.4-3.8,0.5-4.9c0.4-0.2,0.6-1.2,0.9-1.8
			c0.2,0.1,0.2,0.3,0.3,0.5c0,0.6,0.1,1.3,0.1,1.9c0.4,0.5,0.5,1.1,0.1,1.6C60.4,56.4,60.3,57,60.3,57.6z"/>
		<path class="st26" d="M49.6,58.9c-0.1,0.1-0.2,0.1-0.3,0.2c-0.1-0.2-0.2-0.3-0.3-0.5c0.1,0,0.3-0.1,0.4,0
			C49.5,58.7,49.5,58.8,49.6,58.9z"/>
		<path class="st27" d="M44.2,65.5c6.3,0.4,12.4-0.6,18.6-1.1c0.8-0.4,1.7-0.8,1.7,0.7c-4,0.5-8,1.1-11.9,1.6
			c-2.8-0.7-5.6,0.3-8.4-0.6C44.1,66,44.1,65.8,44.2,65.5z"/>
		<path class="st28" d="M44.2,66.2c2.8,0.3,5.7-0.6,8.4,0.6c-2.8,0.2-5.6,0.4-8.5,0.5C44.1,67,44.2,66.6,44.2,66.2z"/>
		<path class="st29" d="M52.6,70.3c-2.2-1.5-4.7-0.3-7.1-0.8c6.6-0.7,13.3-1.5,19.9-2.2c0.5,0.4,1.4,0,1.7,0.7
			C62.5,69.3,57.6,69.9,52.6,70.3z"/>
		<path class="st30" d="M67.2,67.9c-0.6-0.2-1.2-0.5-1.7-0.7c2.8-0.4,5.5-1.4,8.4-1C72.1,68.3,69.5,67.6,67.2,67.9z"/>
		<path class="st31" d="M64.5,65.2c-0.6-0.2-1.1-0.5-1.7-0.7c2.5-1.1,5.2-1.1,7.8-1.5c0.6,0.3,1.2,0.5,1.8,0.8
			C69.9,64.7,67.2,64.9,64.5,65.2z"/>
		<path class="st32" d="M60.3,62.6c0-0.5,0.1-1,0.1-1.5c3.4-0.5,6.8-1,10.2-1.5c0.3,0.3,0.7,0.5,1,0.8C68,61.7,64.1,61.8,60.3,62.6z
			"/>
		<path class="st33" d="M60.5,55.8c0-0.5,0-1.1-0.1-1.6c3.1-0.5,6.3-1,9.4-1.4c0.7,0.8,1.7,0.4,2.5,0.7
			C68.4,54.3,64.4,55.1,60.5,55.8z"/>
	</g>
</g>
</svg>
