<?xml version="1.0" encoding="utf-8"?>
<!-- Generator: Adobe Illustrator 24.1.2, SVG Export Plug-In . SVG Version: 6.00 Build 0)  -->
<svg version="1.1" id="Calque_1" xmlns="http://www.w3.org/2000/svg" xmlns:xlink="http://www.w3.org/1999/xlink" x="0px" y="0px"
	 viewBox="0 0 312 106" style="enable-background:new 0 0 312 106;" xml:space="preserve">
<style type="text/css">
	.st0{fill:#FFFFFF;}
	.st1{fill:#7DC798;}
	.st2{fill: none;stroke: #000000;stroke-width: 3;stroke-linecap: round;stroke-linejoin: round;}
	.st100{opacity:0.68;fill:#FFFFFF;}
	.fleche-bas {
		animation: fleche-bas 2s ease-in-out infinite;
		transform: translate(0px, 0px);
		opacity:1;
		transform-origin: 50% 50%;
	}
	
	@keyframes fleche-bas {
		0%,100% { 
			transform: translate(0px, 0px);
		}
		50% { 
			transform: translate(0px, 0px);
			opacity:1;
		}
		100% { 
			transform: translate(-15px, 0px);
			opacity:0;
		}
	}
	
	.fleche-haut {
		animation: fleche-haut 2s ease-in-out infinite;
		transform: translate(0px, 0px);
		opacity:1;
		transform-origin: 50% 50%;
	}
	
	@keyframes fleche-haut {
		0%,100% { 
			transform: translate(0px, 0px);
		}
		50% { 
			transform: translate(0px, 0px);
			opacity:1;
		}
		100% { 
			transform: translate(15px, 0px);
			opacity:0;
		}
	}
</style>
<circle class="st0" cx="254.27" cy="53.42" r="49.5"/>
<circle class="st0" cx="56.8" cy="53.61" r="49.5"/>
<g>
	<path class="st1" d="M236.1,77.6h48.4l0,0c-13.4,0-24.2-5.4-24.2-12.1l0,0l0,0C260.3,72.2,249.5,77.6,236.1,77.6L236.1,77.6    M284.5,77.6L284.5,77.6l-24.2-48.4l0,0l-24.2,48.4"/>
	<path class="st2" d="M272.4,77.6L272.4,77.6H224l0,0l0,0l24.2-48.4l0,0L272.4,77.6"/>
</g>

<path class="st100 fleche-bas" d="M139.92,64.57c1.82,1.2,3.66,2.37,5.47,3.6c1.59,1.09,1.93,2.65,0.98,4.13c-1,1.56-2.35,1.78-4.11,0.63
	c-4.4-2.88-8.78-5.8-13.2-8.65c-1.42-0.91-2.35-1.95-1.88-3.75c0.5-1.89,1.96-2.1,3.61-2.08c16.31,0.26,32.62,0.49,48.93,0.74
	c2.45,0.04,3.8,1.1,3.71,2.9c-0.09,1.76-1.39,2.71-3.76,2.68c-12.57-0.18-25.14-0.37-37.7-0.56c-0.66-0.01-1.31-0.02-1.97-0.03
	C139.96,64.32,139.94,64.45,139.92,64.57z"/>
<path class="st0 fleche-haut" d="M171.37,39.98c-2.03-1.26-4.1-2.47-6.08-3.8c-1.4-0.95-1.6-2.65-0.59-4.07c0.98-1.39,2.31-1.59,3.67-0.72
	c4.83,3.07,9.63,6.19,14.41,9.32c1.27,0.83,1.61,2.08,1.17,3.51c-0.44,1.4-1.48,1.94-2.91,1.92c-16.77-0.26-33.54-0.51-50.31-0.75
	c-1.53-0.02-2.59-0.7-2.88-2.21c-0.28-1.45,0.17-2.63,1.75-3.09c0.71-0.29,1.45-0.13,2.18-0.12c12.6,0.18,25.21,0.38,37.81,0.53
	C170.17,40.5,171.06,41.08,171.37,39.98z"/>
<image style="overflow:visible;" width="60" height="60" xlink:href="UST.png"  transform="matrix(0.8667 0 0 0.8667 30.4912 27)">
</image>
</svg>
