<?xml version="1.0" encoding="utf-8"?>
<!-- Generator: Adobe Illustrator 24.1.2, SVG Export Plug-In . SVG Version: 6.00 Build 0)  -->
<svg version="1.1" id="Calque_1" xmlns="http://www.w3.org/2000/svg" xmlns:xlink="http://www.w3.org/1999/xlink" x="0px" y="0px"
	 viewBox="0 0 144 43" style="enable-background:new 0 0 144 43;" xml:space="preserve">
<style type="text/css">
	.st0{fill:#5D5D5D;}
	.st1{fill:#7DC697;}
	.st2{fill:#8CDFAA;}
	.st3{fill:#90E5AF;}
	.st4{fill:#F8F8F8;}
	.st5{fill:#8DE0AB;}
	.st6{fill:#88D8A4;}
	.st7{fill:#85D4A2;}
	.st8{fill:#86D5A2;}
	.st9{fill:#85D4A1;}
	.st10{fill:#84D3A1;}
	.st11{fill:#85D5A2;}
</style>
<g>
	<path class="st0" d="M6.03,36.15c0.03-0.01,0.07-0.02,0.1-0.02c0.22,0.21,0.21,0.43,0.03,0.65c-0.04,0-0.08,0-0.13,0
		C6.03,36.57,6.03,36.36,6.03,36.15z"/>
	<path class="st1" d="M24.77,12.71c0.21,0.1,0.23-0.06,0.3-0.19c0.75-1.51,1.5-3.01,2.25-4.51c0.23-0.45,0.5-0.85,1.07-0.85
		c0.58,0,0.89,0.39,1.13,0.87c4.63,9.23,9.27,18.47,13.91,27.7c0.11,0.23,0.22,0.44,0.22,0.71c-0.02,0.57-0.27,0.86-0.84,0.86
		c-2.21,0-4.43-0.01-6.64-0.01c-0.05-0.25,0.16-0.35,0.3-0.49c0.33-0.29,0.15-0.59,0-0.88c-0.12-0.41-0.19-0.84-0.64-1.05
		c-0.23-0.18-0.32-0.44-0.45-0.68c-1.5-2.98-3-5.97-4.49-8.96c-1.37-2.74-2.78-5.46-4.13-8.22c-0.61-1.24-1.25-2.47-1.87-3.71
		C24.79,13.1,24.61,12.93,24.77,12.71z"/>
	<path d="M24.77,12.71c1.56,3.1,3.11,6.2,4.67,9.3c1.12,2.23,2.23,4.47,3.37,6.69c1.04,2.02,1.97,4.1,3.1,6.08
		c0.41,0.36,0.45,0.93,0.73,1.36c0.02,0.27,0.11,0.55-0.14,0.77c-0.11,0.12-0.23,0.25-0.34,0.37c-3.97,0-7.93,0.01-11.9,0.01
		c-5.74,0-11.48,0-17.22,0.01c-0.42,0-0.75-0.05-0.88-0.51c-0.01-0.22-0.02-0.44-0.03-0.65c1.2-2.4,2.39-4.8,3.59-7.2
		c3.49-6.95,6.98-13.89,10.47-20.84c0.24-0.49,0.5-0.95,1.14-0.94c0.63,0,0.88,0.46,1.13,0.95C23.22,9.64,24,11.17,24.77,12.71z"/>
	<path d="M130.11,22.78c-2.49,0-4.98,0-7.47,0c-0.27,0-0.52-0.08-0.49,0.39c0.22,3.35,2.59,6.34,5.77,7.12
		c2.57,0.62,4.97,0.05,7.22-1.25c0.11-0.06,0.22-0.13,0.32-0.2c0.75-0.46,1.47-0.15,1.63,0.71c0.07,0.37-0.17,0.59-0.42,0.79
		c-0.74,0.61-1.6,1-2.5,1.31c-2.92,1.03-5.86,1.27-8.74-0.08c-3.14-1.47-4.76-4.12-5.29-7.44c-0.52-3.29,0.06-6.37,2.21-9.02
		c4.16-5.12,12.73-4.18,15.39,1.67c0.7,1.55,0.93,3.17,0.83,4.85c-0.06,0.96-0.27,1.13-1.26,1.13
		C134.92,22.78,132.52,22.78,130.11,22.78z"/>
	<path d="M78.72,22.18c-0.11,3.39-1.35,6.25-4.08,8.36c-3.92,3.02-9.48,2.51-12.89-1.14c-3.5-3.75-3.76-9.85-0.54-13.83
		c2.43-3,5.61-4.3,9.42-3.56c4.03,0.78,6.51,3.38,7.7,7.25C78.61,20.2,78.73,21.18,78.72,22.18z"/>
	<path d="M100.24,14.85c1.81-1.68,3.82-2.74,6.18-2.97c2.93-0.28,5.62,0.23,7.47,2.81c1.09,1.52,1.49,3.3,1.52,5.12
		c0.07,3.8,0.03,7.61,0.04,11.41c0,0.52-0.25,0.78-0.77,0.77c-0.17,0-0.34,0-0.51,0c-0.66-0.01-0.87-0.21-0.87-0.86
		c-0.01-1.32,0-2.65,0-3.97c0-2.23,0.01-4.45-0.01-6.68c-0.01-1.12-0.18-2.21-0.6-3.26c-0.8-1.99-2.32-3.06-4.42-3.25
		c-3.09-0.28-5.55,1.03-7.69,3.13c-0.24,0.23-0.19,0.49-0.19,0.76c0,4.37,0,8.74,0,13.11c0,0.35,0.12,0.79-0.31,0.94
		c-0.49,0.17-1.05,0.2-1.54-0.02c-0.33-0.14-0.28-0.53-0.28-0.84c0-3.87,0-7.73,0-11.6c0-2.06,0-4.12,0-6.18
		c0-0.7,0.2-0.93,0.79-0.96c0.8-0.04,0.93,0.06,1.03,0.82c0.03,0.27,0.04,0.54,0.07,0.82C100.15,14.22,100.19,14.49,100.24,14.85z"
		/>
	<path d="M85.66,14.79c1.77-2.11,3.91-3.08,6.52-2.98c0.91,0.03,1.79,0.22,2.64,0.58c0.64,0.27,0.74,0.51,0.48,1.18
		c-0.05,0.12-0.09,0.23-0.14,0.35c-0.31,0.74-0.43,0.79-1.19,0.49c-2.94-1.17-6.38-0.03-8.02,2.64c-0.16,0.25-0.16,0.51-0.16,0.78
		c0,4.39,0,8.78,0,13.17c0,0.35,0.1,0.8-0.34,0.92c-0.52,0.13-1.09,0.2-1.59-0.07c-0.22-0.11-0.22-0.39-0.21-0.63
		c0-6.03,0-12.06,0-18.09c0-0.5,0.18-0.81,0.72-0.83c0.51-0.01,1.05-0.08,1.11,0.67C85.52,13.55,85.59,14.11,85.66,14.79z"/>
	<path class="st2" d="M36.55,36.02c-0.32-0.36-0.53-0.78-0.64-1.25c0.59,0.19,0.6,0.7,0.65,1.19L36.55,36.02z"/>
	<path class="st3" d="M36.55,36.02c0,0,0.01-0.06,0.01-0.06c0.37,0.34,0.38,0.66-0.06,0.95C36.6,36.61,36.57,36.31,36.55,36.02z"/>
	<path class="st1" d="M30.91,29.83c0.95,1.55,1.66,3.22,2.52,4.82c0.08,0.15,0.15,0.3,0.12,0.47c-0.18,0.2-0.43,0.14-0.65,0.14
		c-6.12,0-12.24,0-18.36,0c-0.23,0-0.47,0.05-0.67-0.12c-0.25-0.4,0.02-0.73,0.18-1.05c1.33-2.67,2.68-5.34,4.02-8.01
		c1.62-3.23,3.24-6.47,4.87-9.7c0.14-0.27,0.2-0.61,0.55-0.73c0.64,0.44,0.79,1.18,1.13,1.81c0.13,0.23,0.16,0.52,0.45,0.64
		c0.09,0.04,0.12,0.11,0.11,0.21c0.14,0.58,0.28,1.16,0.76,1.57c0.05,0.08,0.14,0.14,0.11,0.25c0.12,0.35,0.15,0.76,0.53,0.96
		c0.2,0.23,0.31,0.5,0.35,0.8c0.19,0.53,0.34,1.1,0.8,1.49l-0.03,0.01l0.03-0.02c0.15,0.56,0.3,1.13,0.78,1.52
		c0.36,0.54,0.63,1.12,0.86,1.72c0.1,0.53,0.33,1,0.64,1.44c0.2,0.17,0.28,0.4,0.35,0.64C30.45,29.12,30.58,29.53,30.91,29.83z"/>
	<path class="st4" d="M23.49,15.71c-1.47,2.9-2.94,5.8-4.4,8.7c-1.66,3.3-3.31,6.6-4.97,9.9c-0.09,0.19-0.17,0.38-0.25,0.57
		c-0.05,0.31-0.21,0.47-0.55,0.46c-1.45-0.03-2.91,0.04-4.36-0.04c0.73-1.71,1.63-3.34,2.46-5.01c3.27-6.54,6.57-13.07,9.86-19.6
		c0.22-0.01,0.19,0.18,0.25,0.3c0.64,1.27,1.28,2.55,1.93,3.82c0.1,0.2,0.24,0.4,0.19,0.65C23.63,15.56,23.59,15.65,23.49,15.71z"/>
	<path class="st5" d="M8.95,35.29c1.39-0.01,2.77-0.03,4.16-0.01c0.36,0,0.6-0.11,0.76-0.41c0.09,0.41,0.43,0.26,0.67,0.27
		c4.67,0.01,9.35,0.01,14.02,0c1.66,0,3.33-0.01,4.99-0.02c0.13,0.05,0.26,0.13,0.05,0.23c-0.12,0.05-0.29,0.01-0.44,0.01
		c-6.27,0-12.55,0-18.82,0c-1.6,0-3.2,0.03-4.8,0.03C9.35,35.39,9.12,35.5,8.95,35.29z"/>
	<path class="st6" d="M23.49,15.71c0.05-0.08,0.1-0.17,0.16-0.25c0.63,0.8,0.98,1.75,1.42,2.65c-0.36-0.04-0.43-0.34-0.56-0.6
		C24.2,16.88,23.98,16.22,23.49,15.71z"/>
	<path class="st7" d="M28.49,24.91c-0.53-0.25-0.87-0.93-0.78-1.52C28.06,23.85,28.25,24.4,28.49,24.91z"/>
	<path class="st8" d="M25.93,19.88c-0.6-0.36-0.8-0.91-0.76-1.57C25.5,18.79,25.7,19.35,25.93,19.88z"/>
	<path class="st9" d="M27.71,23.39c-0.57-0.34-0.78-0.86-0.8-1.49C27.34,22.31,27.45,22.9,27.71,23.39z"/>
	<path class="st10" d="M29.99,28.07c-0.49-0.36-0.71-0.83-0.64-1.44C29.68,27.06,29.84,27.56,29.99,28.07z"/>
	<path class="st11" d="M30.91,29.83c-0.5-0.22-0.61-0.63-0.58-1.12C30.63,29.03,30.84,29.4,30.91,29.83z"/>
	<path class="st8" d="M26.57,21.1c-0.38-0.04-0.58-0.4-0.53-0.96C26.32,20.39,26.41,20.76,26.57,21.1z"/>
	<path class="st4" d="M129.31,21.02c-2.15,0-4.31-0.03-6.46,0.02c-0.61,0.01-0.65-0.17-0.59-0.69c0.53-4.72,5.32-7.76,9.82-6.18
		c2.53,0.89,3.79,2.82,4.24,5.35c0.26,1.51,0.23,1.51-1.31,1.51C133.11,21.02,131.21,21.02,129.31,21.02z"/>
	<path class="st4" d="M61.08,22.08c0.1-3.05,1.28-5.54,3.96-7.16c3.44-2.09,7.83-1.01,10.1,2.41c2.17,3.28,1.83,7.87-0.86,10.74
		c-1.92,2.05-4.32,2.84-7.06,2.22c-2.95-0.66-4.77-2.61-5.72-5.41C61.2,23.97,61.07,23.04,61.08,22.08z"/>
</g>
</svg>
