<?xml version="1.0" encoding="utf-8"?>
<!-- Generator: Adobe Illustrator 24.1.2, SVG Export Plug-In . SVG Version: 6.00 Build 0)  -->
<svg version="1.1" id="Calque_1" xmlns="http://www.w3.org/2000/svg" xmlns:xlink="http://www.w3.org/1999/xlink" x="0px" y="0px"
	 viewBox="0 0 126 126" style="enable-background:new 0 0 126 126;" xml:space="preserve">
<style type="text/css">
	.st0{fill:#FFFFFF;}
	.st1{opacity:0.68;fill:#7DC798;}
	.st2{fill:#7DC798;}
</style>
<circle class="st0" cx="63.04" cy="64.51" r="57.5"/>
<g>
	<path class="st1" d="M80.13,79.52c-2.36-4.11-4.7-8.23-7.07-12.34c-2.77-4.8-5.55-9.59-8.32-14.39c-0.07-0.13-0.12-0.27-0.2-0.4
		c-0.3-0.5-0.5-1.31-1.07-1.29c-0.54,0.02-0.76,0.82-1.05,1.32c-4.96,8.62-9.92,17.24-14.89,25.85c-0.15,0.26-0.33,0.49-0.5,0.74
		c-2.08,0-4.17,0-6.59,0c7.72-13.37,15.3-26.49,23.04-39.89C71.17,52.42,78.75,65.54,86.53,79c-1.85,0-3.45-0.03-5.04,0.02
		C81.01,79.03,80.34,78.71,80.13,79.52z"/>
	<path class="st2" d="M80.13,79.52c2.07,3.55,4.15,7.1,6.4,10.96c-15.42,0.21-30.56,0.1-46.02,0.01c2.24-3.94,4.38-7.7,6.52-11.47
		c-0.22-0.56,0.18-0.95,0.42-1.36c4.92-8.56,9.9-17.08,14.8-25.66c0.97-1.7,1.53-1.68,2.52,0.05c4.86,8.54,9.82,17.02,14.73,25.52
		C79.85,78.19,80.11,78.81,80.13,79.52z"/>
</g>
</svg>
