<?xml version="1.0" encoding="utf-8"?>
<!-- Generator: Adobe Illustrator 24.1.2, SVG Export Plug-In . SVG Version: 6.00 Build 0)  -->
<svg version="1.1" id="Calque_1" xmlns="http://www.w3.org/2000/svg" xmlns:xlink="http://www.w3.org/1999/xlink" x="0px" y="0px"
	 viewBox="0 0 126 126" style="enable-background:new 0 0 126 126;" xml:space="preserve">
<style type="text/css">
	.st0{fill:#FFFFFF;}
	.st1{opacity:0.68;fill:#7DC798;}
	.st2{fill:#7DC798;}
</style>
<circle class="st0" cx="62.5" cy="62.97" r="57.5"/>
<path class="st1" d="M47.54,73.85c1.84,1.17,3.7,2.32,5.52,3.52c1.61,1.06,1.97,2.62,1.04,4.12c-0.97,1.57-2.33,1.82-4.1,0.69
	c-4.45-2.81-8.86-5.67-13.33-8.45c-1.44-0.89-2.38-1.92-1.93-3.72c0.48-1.9,1.93-2.13,3.57-2.13c16.31,0.01,32.63,0.01,48.94,0.01
	c2.45,0,3.81,1.05,3.75,2.84c-0.06,1.76-1.35,2.73-3.72,2.73c-12.57,0.01-25.14,0-37.71,0c-0.66,0-1.31,0-1.97,0
	C47.58,73.6,47.56,73.73,47.54,73.85z"/>
<path class="st2" d="M78.16,52.37c-2.05-1.23-4.13-2.41-6.13-3.71c-1.42-0.92-1.64-2.62-0.65-4.06c0.96-1.4,2.29-1.62,3.66-0.78
	c4.88,2.99,9.72,6.04,14.55,9.11c1.28,0.81,1.64,2.06,1.22,3.49c-0.42,1.41-1.45,1.96-2.88,1.96c-16.77-0.01-33.54-0.01-50.31,0
	c-1.53,0-2.6-0.66-2.92-2.17c-0.3-1.45,0.13-2.63,1.71-3.11c0.71-0.3,1.45-0.15,2.17-0.15c12.6-0.01,25.21,0,37.81-0.04
	C76.97,52.91,77.87,53.48,78.16,52.37z"/>
</svg>
