<?xml version="1.0" encoding="utf-8"?>
<!-- Generator: Adobe Illustrator 24.1.2, SVG Export Plug-In . SVG Version: 6.00 Build 0)  -->
<svg version="1.1" id="Calque_1" xmlns="http://www.w3.org/2000/svg" xmlns:xlink="http://www.w3.org/1999/xlink" x="0px" y="0px"
	 viewBox="0 0 126 126" style="enable-background:new 0 0 126 126;" xml:space="preserve">
<style type="text/css">
	.st0{fill:#FFFFFF;}
	.st1{opacity:0.68;fill:#7DC798;}
	.st2{fill:#7DC798;}
</style>
<circle class="st0" cx="63" cy="62.5" r="57.5"/>
<path class="st1" d="M55.31,54.75c0.14-0.39,0.17-0.86,0.42-1.15c4.27-4.97,8.57-9.99,14.02-13.67c4.34-2.93,10.96-1.67,14.36,2.12
	c3.88,4.32,4.68,10.48,1.13,14.85c-4.37,5.38-9.04,10.59-15.05,14.33c-2.86,2.16-5.91,1.19-8.95,0.59
	c-2.94-1.58-5.31-3.78-7.05-6.64c1.77-3.86,5.19-5.03,8.65-2.98c3.19,1.9,4.37,1.65,7.17-1.52c2.77-2.26,5.2-4.88,7.66-7.46
	c1.75-1.84,1.77-3.83,0.31-5.34c-1.37-1.42-3.78-1.27-5.55,0.42c-1.92,1.83-3.75,3.76-5.65,5.61c-0.7,0.68-1.31,1.54-2.42,1.62
	c-2.39-0.48-4.79-0.79-7.23-0.38C56.48,55.26,55.82,55.3,55.31,54.75z"/>
<path class="st2" d="M70.42,60.68c-1.57,3.28-4.11,4.36-6.93,2.62c-4.8-2.96-5.52-1.53-9.1,1.98c0.21,1.21-0.77,1.75-1.41,2.43
	c-1.7,1.8-3.55,3.46-5.21,5.3c-1.5,1.67-1.54,3.41-0.24,4.9c1.27,1.45,3.45,1.64,5.13,0.27c2.05-1.67,3.76-3.71,5.68-5.52
	c0.69-0.65,1.25-1.6,2.43-1.48c3.14,0.71,6.27,1.04,9.42,0.07c-0.14,1.64-1.35,2.62-2.37,3.66c-2.91,2.97-5.86,5.89-8.84,8.78
	c-5.05,4.89-12.41,5.07-17.01,0.46c-4.91-4.91-5.06-12.09,0.02-17.13c4.28-4.25,7.96-9.18,13.34-12.24c3.23-0.6,6.44-0.92,9.58,0.46
	C67.97,55.64,70.17,57.83,70.42,60.68z"/>
</svg>
