<?xml version="1.0" encoding="utf-8"?>
<!-- Generator: Adobe Illustrator 24.1.2, SVG Export Plug-In . SVG Version: 6.00 Build 0)  -->
<svg version="1.1" id="Calque_1" xmlns="http://www.w3.org/2000/svg" xmlns:xlink="http://www.w3.org/1999/xlink" x="0px" y="0px"
	 viewBox="0 0 126 126" style="enable-background:new 0 0 126 126;" xml:space="preserve">
<style type="text/css">
	.st0{fill:#FFFFFF;}
	.st1{fill:#8DCFA8;stroke:#8DCFA8;stroke-linecap:round;stroke-linejoin:round;}
	.st2{fill:none;stroke:#000000;stroke-width:3;stroke-linecap:round;stroke-linejoin:round;}
</style>
<circle class="st0" cx="63" cy="62.5" r="57.5"/>
<path class="st1" d="M68.3,41.4L68.3,41.4L68.3,41.4c11.6,0,21.1,9.4,21.1,21.1l0,0c0,11.6-9.4,21.1-21.1,21.1l0,0
	c-11.6,0-21.1-9.4-21.1-21.1l0,0C47.2,50.9,56.6,41.4,68.3,41.4"/>
<path class="st2" d="M57.7,41.4L57.7,41.4L57.7,41.4 M57.7,83.6L57.7,83.6c11.6,0,21.1-9.4,21.1-21.1l0,0c0-11.6-9.4-21.1-21.1-21.1
	l0,0c-11.6,0-21.1,9.4-21.1,21.1l0,0C36.7,74.1,46.1,83.6,57.7,83.6"/>
</svg>
