<?xml version="1.0" encoding="utf-8"?>
<!-- Generator: Adobe Illustrator 24.1.2, SVG Export Plug-In . SVG Version: 6.00 Build 0)  -->
<svg version="1.1" id="Calque_1" xmlns="http://www.w3.org/2000/svg" xmlns:xlink="http://www.w3.org/1999/xlink" x="0px" y="0px"
	 viewBox="0 0 31 31" style="enable-background:new 0 0 31 31;" xml:space="preserve">
<style type="text/css">
	.st0{fill:#658690;}
	.st1{fill:#F7F7F7;}
</style>
<g>
	<path class="st0" d="M30.38,15.51c0.04,8.23-6.78,14.84-14.84,14.85C7.61,30.38,0.69,23.92,0.67,15.54
		C0.66,7.29,7.29,0.67,15.52,0.66C23.76,0.65,30.42,7.31,30.38,15.51z"/>
	<path class="st1" d="M12.83,21.84c0.06-1.04,0.13-2.07,0.18-3.11c0.01-0.14,0.07-0.24,0.17-0.33c1.56-1.42,3.12-2.84,4.69-4.25
		c0.67-0.61,1.35-1.22,2.03-1.83c0.07-0.06,0.2-0.13,0.14-0.23c-0.06-0.13-0.21-0.09-0.32-0.06c-0.06,0.02-0.12,0.06-0.18,0.1
		c-2.78,1.74-5.56,3.47-8.34,5.21c-0.18,0.11-0.34,0.14-0.55,0.07c-1.09-0.36-2.19-0.7-3.28-1.05c-0.09-0.03-0.19-0.06-0.28-0.09
		c-0.4-0.17-0.46-0.53-0.12-0.81c0.18-0.15,0.38-0.24,0.6-0.32c4.69-1.8,9.39-3.61,14.08-5.42c0.19-0.07,0.38-0.11,0.58-0.1
		c0.37,0.02,0.62,0.27,0.65,0.64c0.04,0.45-0.11,0.88-0.2,1.32c-0.74,3.53-1.5,7.06-2.25,10.59c-0.05,0.22-0.11,0.44-0.24,0.63
		c-0.23,0.33-0.5,0.42-0.87,0.27C19.15,23,19,22.91,18.85,22.8c-1.1-0.81-2.2-1.62-3.3-2.44c-0.15-0.11-0.24-0.13-0.39,0.01
		c-0.58,0.57-1.18,1.12-1.77,1.67c-0.05,0.05-0.1,0.1-0.16,0.14c-0.11,0.07-0.24,0.15-0.36,0.09c-0.14-0.06-0.04-0.21-0.06-0.32
		C12.81,21.92,12.82,21.88,12.83,21.84C12.82,21.84,12.82,21.84,12.83,21.84z"/>
</g>
</svg>
