<?xml version="1.0" encoding="utf-8"?>
<!-- Generator: Adobe Illustrator 24.1.2, SVG Export Plug-In . SVG Version: 6.00 Build 0)  -->
<svg version="1.1" id="Calque_1" xmlns="http://www.w3.org/2000/svg" xmlns:xlink="http://www.w3.org/1999/xlink" x="0px" y="0px"
	 viewBox="0 0 31 31" style="enable-background:new 0 0 31 31;" xml:space="preserve">
<style type="text/css">
	.st0{fill:#658791;}
</style>
<g id="Layer_2_1_">
	<g id="Layer_5_1_">
		<path class="st0" d="M15.54,0.47c-8.28,0-15,6.72-15,15s6.72,15,15,15s15-6.72,15-15S23.82,0.47,15.54,0.47z M23.08,12.63v0.46
			c0.04,5.64-4.49,10.25-10.13,10.29c-0.05,0-0.11,0-0.16,0c-1.96,0-3.88-0.56-5.52-1.63c0.29,0.02,0.57,0.02,0.86,0
			c1.63,0,3.21-0.54,4.49-1.55c-1.55-0.02-2.91-1.03-3.37-2.51c0.22,0.05,0.45,0.07,0.68,0.07c0.32,0,0.64-0.05,0.95-0.13
			c-1.68-0.34-2.9-1.82-2.9-3.54v-0.05c0.5,0.28,1.06,0.44,1.64,0.45c-1.55-1.06-2.02-3.14-1.08-4.77c1.83,2.23,4.52,3.6,7.4,3.75
			c-0.06-0.27-0.09-0.55-0.09-0.83c0.01-2,1.64-3.61,3.64-3.6c0.99,0,1.93,0.41,2.61,1.13c0.81-0.16,1.59-0.46,2.3-0.88
			c-0.27,0.84-0.83,1.55-1.59,2c0.71-0.08,1.41-0.28,2.07-0.57C24.4,11.46,23.79,12.11,23.08,12.63z"/>
	</g>
</g>
</svg>
